<svg width="1173" height="1136" viewBox="0 0 1173 1136" fill="none" xmlns="http://www.w3.org/2000/svg">
<g opacity="0.4" filter="url(#filter0_f_552_742)">
<path d="M293 315.33H620.25V642.58H293V315.33Z" fill="#00FF94"/>
<path d="M682.62 413.505C682.62 480.058 632.116 534.01 569.815 534.01C507.515 534.01 457.01 480.058 457.01 413.505C457.01 346.952 507.515 293 569.815 293C632.116 293 682.62 346.952 682.62 413.505Z" fill="#FF00C7"/>
<path d="M701.1 580.98C701.1 673.261 626.292 748.07 534.01 748.07C441.729 748.07 366.92 673.261 366.92 580.98C366.92 488.699 441.729 413.89 534.01 413.89C626.292 413.89 701.1 488.699 701.1 580.98Z" fill="#0500FF"/>
<path d="M674.92 366.92L782.948 554.03H566.892L674.92 366.92Z" fill="#8000FF"/>
<path d="M665.933 424.9L562.593 702.827L373.572 474.369L665.933 424.9Z" fill="#0094FF"/>
<path d="M606.427 394.128L710.766 530.275L878.624 473.025L775.251 614.418L879.59 750.565L711.363 701.804L607.99 843.197L607.393 671.668L439.166 622.907L607.024 565.657L606.427 394.128Z" fill="#FF0F00"/>
</g>
<defs>
<filter id="filter0_f_552_742" x="0.350006" y="0.35025" width="1171.89" height="1135.5" filterUnits="userSpaceOnUse" color-interpolation-filters="sRGB">
<feFlood flood-opacity="0" result="BackgroundImageFix"/>
<feBlend mode="normal" in="SourceGraphic" in2="BackgroundImageFix" result="shape"/>
<feGaussianBlur stdDeviation="146.325" result="effect1_foregroundBlur_552_742"/>
</filter>
</defs>
</svg>
