<svg width="33" height="33" viewBox="0 0 33 33" fill="none" xmlns="http://www.w3.org/2000/svg">
<g clip-path="url(#clip0_22_32)">
<path d="M16.106 6.44238C11.8112 6.44238 9.12798 8.58888 8.05348 12.8836C9.66347 10.7369 11.543 9.93188 13.6897 10.4686C14.9155 10.7741 15.7914 11.6629 16.7615 12.6478C18.3403 14.25 20.1677 16.1049 24.1585 16.1049C28.453 16.1049 31.1365 13.9581 32.211 9.66238C30.6007 11.8104 28.7215 12.6154 26.5745 12.0786C25.349 11.7729 24.474 10.8843 23.5027 9.89942C21.9249 8.29723 20.098 6.44238 16.106 6.44238ZM8.05348 16.1049C3.75898 16.1049 1.07548 18.2516 0.000976562 22.5474C1.61097 20.3994 3.49023 19.5944 5.63722 20.1311C6.86296 20.4369 7.73893 21.3254 8.709 22.3103C10.2878 23.9125 12.1152 25.7674 16.106 25.7674C20.4005 25.7674 23.084 23.6209 24.1585 19.3261C22.5482 21.4729 20.669 22.2779 18.522 21.7411C17.2965 21.4356 16.4215 20.5468 15.4502 19.5619C13.8724 17.9597 12.0455 16.1049 8.05348 16.1049Z" fill="white"/>
</g>
<defs>
<clipPath id="clip0_22_32">
<rect width="32.21" height="32.21" fill="white"/>
</clipPath>
</defs>
</svg>
