<svg width="33" height="33" viewBox="0 0 33 33" fill="none" xmlns="http://www.w3.org/2000/svg">
<path d="M11.1828 25.3225C10.1184 24.4845 8.98351 23.6818 8.20594 22.5519C6.57279 20.5589 5.31459 18.2489 4.45649 15.823C3.93559 14.2453 3.75945 12.5542 3.08757 11.0368C2.38801 9.93465 3.20835 8.73181 4.41371 8.38203C4.94971 8.27886 5.89588 7.77054 4.75594 8.13542C3.73428 8.88531 3.63614 7.45348 4.68297 7.36288C5.39763 7.26726 5.66185 6.68345 5.41776 6.15501C4.65025 5.65424 7.2799 5.10315 5.95627 4.35578C4.57728 2.86858 7.88384 2.58171 7.06852 4.27274C6.87476 5.5712 9.37858 4.03368 8.79729 5.53346C9.38865 6.25315 11.0117 5.69702 10.9689 6.70862C11.8296 6.76901 12.1265 7.49122 12.9317 7.54658C13.7697 7.92404 15.2871 8.2235 15.5715 9.16715C14.741 9.82393 12.816 7.80829 12.7254 9.63017C12.977 12.3202 12.9116 15.0908 13.8955 17.6525C14.3611 19.2026 15.4884 20.423 16.5076 21.6309C17.4839 22.8136 18.8025 23.6465 20.1513 24.3486C21.3315 24.9048 22.6048 25.2747 23.8932 25.5062C24.4141 25.1061 25.3376 23.6239 26.1504 24.248C26.1907 24.9526 24.5349 25.7176 26.0724 25.6421C26.9758 25.3703 27.6024 26.3391 28.3473 25.4634C29.0317 26.2762 31.1958 24.945 30.7076 26.6033C30.0483 27.0286 29.0871 26.7719 28.4253 27.3582C27.3357 26.8147 26.47 27.8439 25.2647 27.7156C23.9259 27.9546 22.5645 28.0528 21.2057 28.0528C18.9787 27.8766 16.7038 27.8037 14.5875 27.0286C13.3948 26.6813 12.2297 26.0019 11.1828 25.3225ZM13.0626 26.1378C14.2277 26.6411 15.3676 27.172 16.6434 27.3331C18.6692 27.6149 20.7628 28.0477 22.7961 27.6527C21.8751 27.2375 20.9239 27.8137 20.0079 27.3557C18.9082 27.5923 17.728 27.2953 16.6107 27.1494C15.3399 26.5832 13.9685 26.1932 12.7782 25.4584C11.291 24.9148 13.5483 26.1554 13.9484 26.2561C14.8769 26.7845 12.9267 25.9843 12.6499 25.7654C11.8723 25.3275 11.7717 25.4206 12.5719 25.8635C12.733 25.9566 12.894 26.0573 13.0626 26.1378ZM10.8456 24.5701C11.9755 24.9878 10.8406 23.7749 10.3247 23.8453C10.0958 23.4478 9.44904 23.1961 9.90451 22.9822C9.08416 23.2666 9.0439 21.9002 8.65889 22.0939C7.79073 21.8196 8.32169 20.8483 7.28745 20.2519C7.19434 19.6228 6.26075 19.0793 5.96382 18.1306C5.83297 17.6449 4.90944 16.2533 5.47564 17.5493C5.95879 18.7974 6.80681 19.8669 7.51392 20.9339C8.0625 21.9505 8.71173 23.0124 9.70823 23.6465C10.0454 23.9737 10.37 24.4694 10.8456 24.5701ZM7.59193 20.9993C7.6322 20.8282 7.79828 21.3667 7.59193 20.9993V20.9993ZM12.197 25.0708C11.8371 24.9299 12.4486 24.9601 12.197 25.0708V25.0708ZM12.811 25.2948C12.5316 25.4684 12.748 24.9853 12.811 25.2948V25.2948ZM13.5785 25.6144C13.0148 25.3955 13.9433 25.2671 13.5785 25.6144V25.6144ZM14.892 26.3467C14.1824 26.2233 15.116 26.0195 14.892 26.3467V26.3467ZM12.3681 24.5877C11.6358 24.5827 12.9343 24.2203 12.3681 24.5877V24.5877ZM12.9443 24.8746C12.738 24.9601 12.9267 24.6808 12.9443 24.8746V24.8746ZM15.8206 26.6688C16.2836 26.9607 18.5207 27.3079 17.119 26.7895C16.885 26.8399 14.5196 26.1202 15.8206 26.6688ZM11.2533 23.1131C10.5361 22.8992 11.208 22.9193 11.2533 23.1131V23.1131ZM12.592 23.8932C11.8698 23.7069 12.9418 23.6516 12.592 23.8932V23.8932ZM13.7194 24.5852C12.9066 24.3964 14.2176 24.3964 13.7194 24.5852V24.5852ZM10.7072 22.5192C11.2508 22.9344 12.8965 22.572 11.5377 22.2701C10.9211 21.9404 9.52705 21.7165 10.4757 22.4689L10.7072 22.5192ZM14.4819 24.8242C13.5332 24.6028 14.7083 24.4392 14.4819 24.8242V24.8242ZM13.3344 23.9108C14.6605 24.2857 12.2196 23.0703 13.0072 23.7724L13.1834 23.8529L13.3344 23.9108ZM15.6344 25.2394C14.4995 25.0683 16.8901 25.252 15.6344 25.2394V25.2394ZM10.2241 21.792C9.91458 21.8121 10.1763 21.5579 10.2241 21.792V21.792ZM17.7582 26.4322C17.3506 26.7468 17.7934 26.0095 17.7582 26.4322V26.4322ZM12.3681 23.1055C11.9755 23.0955 12.2926 22.8841 12.3681 23.1055V23.1055ZM10.3449 21.646C9.35593 21.3289 11.0646 21.6032 10.3449 21.646V21.646ZM7.94423 20.0959C7.15911 19.4743 7.85364 19.7486 7.94423 20.0959V20.0959ZM14.2428 24.092C14.1119 23.941 14.1799 24.1247 14.2428 24.092V24.092ZM18.1634 26.4976C17.9495 26.5857 18.1508 26.2686 18.1634 26.4976V26.4976ZM13.8955 23.7346C13.2815 23.644 13.966 23.4377 13.8955 23.7346V23.7346ZM10.9765 21.8825C10.1159 21.5202 11.5125 21.8247 10.9765 21.8825V21.8825ZM15.9162 24.9526C15.1009 24.7915 16.7517 24.6204 15.9162 24.9526V24.9526ZM13.347 23.2087C14.3107 23.332 12.1995 22.5519 13.1356 23.1382L13.347 23.2087ZM16.6963 25.2696C17.5972 24.7311 17.3002 26.5303 18.2237 25.4206C19.1347 24.7563 17.4361 26.2435 18.5584 25.5389C19.3712 24.9953 20.569 25.7956 21.3265 26.0573C21.87 26.0296 22.401 26.5278 22.9596 26.2259C24.0341 25.9365 20.8559 25.7956 21.6888 25.2822C20.7049 25.5691 19.9777 24.94 19.4945 24.3109C18.3898 24.0567 17.114 23.493 16.5629 22.5142C16.339 22.1468 16.8875 22.567 16.3692 21.9656C15.7048 21.3742 15.3727 20.7024 14.9273 19.9827C14.3938 19.6983 14.3309 18.8603 14.278 19.955C14.2831 19.2655 13.6338 18.8 13.4753 18.9937C13.4728 18.3294 14.1698 18.6615 13.6816 18.1708C13.5759 17.4814 13.2312 16.7642 13.128 15.9866C12.967 15.6117 13.1054 14.8089 12.5769 15.657C12.3857 16.5553 12.514 14.5548 12.8135 15.2141C13.206 14.5422 12.6726 14.6202 12.6499 14.7133C12.9066 14.1446 12.811 13.3393 12.582 13.6464C12.7179 13.0449 12.7984 11.4319 12.3781 11.7188C12.6323 11.0897 12.8613 8.84002 11.7566 9.69811C11.3087 9.70566 10.5361 9.85916 10.1687 10.0429C11.3162 10.6745 10.053 10.2719 9.58493 10.1712C9.52453 10.7575 9.06151 10.5034 8.48274 10.5084C9.40626 10.6216 8.0323 11.452 7.50386 11.1299C6.81436 11.4596 8.09773 12.2799 7.51644 12.5341C7.5869 12.9166 6.46207 12.3957 6.55014 13.279C5.88329 12.9971 6.45955 14.3258 6.79172 13.8779C7.92661 14.1849 7.59193 14.8869 7.61961 15.5513C7.4334 15.9388 6.70616 14.6403 7.45856 14.7007C6.86469 13.7369 6.80178 14.3535 6.31108 14.7989C6.19784 14.8316 7.56677 15.4355 6.70616 15.735C7.4636 15.8532 7.48624 16.5151 7.63974 16.9328C8.09521 17.4059 8.00211 16.4094 8.54565 16.9781C8.2009 16.4698 6.72126 15.5488 7.91152 15.8432C7.90397 15.3323 7.69511 14.9197 8.0625 14.9297C8.42486 14.2755 7.68252 16.5453 8.49784 15.7123C8.72432 15.6142 8.77968 15.0581 9.18482 15.7652C9.77366 16.3439 9.39871 16.7642 8.56578 16.2332C8.71425 16.739 9.67803 16.9177 9.49685 17.7078C9.6881 18.4024 9.95736 18.1457 10.1914 18.1054C10.3751 18.7798 10.4783 18.2841 10.4883 17.962C11.3288 18.1432 11.1325 18.6389 11.3942 18.9862C11.973 19.2479 10.5663 17.2146 11.5603 18.3747C12.6071 19.3183 11.9529 19.7134 11.0142 19.5624C11.6081 19.5146 11.7994 20.3652 12.5417 20.335C13.2186 20.6571 13.6791 21.8951 12.5115 21.3793C12.1064 21.0144 10.672 20.564 11.8447 21.2585C12.9267 21.7592 13.7848 22.0587 14.8291 22.6878C15.574 23.2213 15.8986 23.8302 16.1804 23.951C15.5538 24.2505 14.2906 23.712 15.2292 23.5459C14.6429 23.4402 13.9861 23.1433 14.5473 23.873C15.0229 24.2706 16.2358 24.2304 16.4547 24.2731C16.271 24.6783 15.9539 24.711 16.4623 24.7412C15.8961 25.0482 16.6434 25.096 16.6963 25.2696ZM15.5387 21.9983C15.194 21.6385 15.1059 20.9641 15.4783 21.5504C15.6671 21.6259 16.0898 22.6526 15.5387 21.9983ZM19.3108 24.3939C19.3159 24.5575 19.5247 24.3788 19.3108 24.3939V24.3939ZM14.9952 21.115C14.9801 20.569 15.1185 21.5353 14.9952 21.115V21.115ZM14.6203 20.6092C14.1849 19.7738 15.1663 20.8483 14.6203 20.6092V20.6092ZM10.0756 17.4738C10.2014 17.9091 10.3298 17.4059 10.0756 17.4738V17.4738ZM13.6917 19.4341C13.8477 18.8478 13.8754 19.9273 13.6917 19.4341V19.4341ZM11.1375 17.6575C10.9589 17.3329 11.515 17.962 11.1375 17.6575V17.6575ZM13.3293 18.3596C12.9192 17.4411 13.6212 17.8563 13.4199 18.5106L13.3293 18.3596ZM9.5497 15.8407C9.366 15.5387 9.06403 14.6529 9.15965 14.3837C9.24773 14.824 10.0958 16.2785 9.57486 14.9851C9.00112 13.903 10.2618 15.3374 10.3927 15.6066C10.4531 15.8759 10.0379 15.5337 10.3197 16.1628C9.80637 15.4456 10.0177 16.5603 9.5497 15.8407ZM8.38208 15.0354C8.4299 14.3333 8.64882 15.516 8.38208 15.0354V15.0354ZM8.9055 15.2166C9.15714 14.6856 9.33077 15.9539 8.9055 15.2166V15.2166ZM7.64226 14.2377C7.20692 13.8049 6.89237 13.4073 7.66239 13.9685C7.95933 13.981 7.00309 13.0625 7.73285 13.6765C8.50287 13.8175 8.11283 14.9373 7.64226 14.2377ZM8.30659 14.2201C8.43996 14.4667 8.55823 13.971 8.30659 14.2201V14.2201ZM8.71425 14.3509C8.33176 13.6338 9.17979 14.6529 8.71425 14.3509V14.3509ZM7.90397 13.5759C6.64073 12.4511 9.49182 14.1647 8.11031 13.7848L7.90397 13.5759ZM11.5251 15.6796C10.9765 15.3525 11.3791 13.3695 11.5653 14.7259C12.0963 14.5548 11.5351 15.4255 11.9327 15.4179C11.8723 15.9665 11.6937 16.1653 11.5251 15.6796ZM12.8663 16.4723C12.9192 15.8734 12.9796 16.8799 12.8663 16.4723V16.4723ZM12.6323 16.2408C12.6398 16.5427 12.6927 15.9866 12.6323 16.2408V16.2408ZM8.15058 13.206C7.33778 12.0862 10.511 14.3409 8.67147 13.4903C8.47771 13.4375 8.2462 13.4199 8.15058 13.206ZM10.7324 14.5724C10.6544 13.6287 10.9035 14.7284 10.7324 14.5724V14.5724ZM12.6902 15.8306C12.7028 16.1854 12.8412 15.2921 12.6902 15.8306V15.8306ZM8.2764 12.7782C8.75955 12.675 10.2769 13.6262 8.88285 13.05C8.72683 12.8763 8.39718 12.9543 8.2764 12.7782ZM12.4209 14.8442C12.4712 13.8779 12.7103 14.2679 12.4234 14.9826L12.4209 14.8442ZM8.63373 12.441C8.83001 12.1516 8.11031 11.1375 8.7369 12.0761C9.00867 12.29 9.5195 12.436 9.06655 12.5266C9.78121 13.1557 8.89543 12.6977 8.63373 12.441ZM12.2171 14.5422C12.3354 15.1864 12.353 13.4425 12.2171 14.5422V14.5422ZM8.22355 11.4269C8.30408 11.6257 8.37454 11.3615 8.22355 11.4269V11.4269ZM9.15714 11.983C9.39871 11.4772 9.60254 12.5442 9.15714 11.983V11.983ZM11.7918 13.4476C11.7918 13.2538 11.8421 13.7294 11.7918 13.4476V13.4476ZM11.6408 13.1104C11.276 12.207 11.9805 13.5885 11.6408 13.1104V13.1104ZM11.4169 12.519C11.354 12.1466 11.6257 12.9871 11.4169 12.519V12.519ZM11.7817 11.9251C11.5301 11.4822 12.0988 9.97491 12.1617 10.911C11.8975 11.6383 12.0862 12.0459 12.2699 11.0696C12.6122 10.2995 12.197 12.5844 11.7817 11.9251ZM12.1567 9.68301C12.1819 9.84658 12.2674 9.54964 12.1567 9.68301V9.68301ZM11.5301 22.0436C11.3816 21.9127 11.5477 22.1266 11.5301 22.0436V22.0436ZM12.821 22.6979C13.5407 22.8841 13.5357 22.5871 12.8865 22.4991C12.5367 22.1745 11.4345 21.8297 12.4209 22.4588C12.4889 22.6224 12.6952 22.6173 12.821 22.6979ZM10.2694 21.0018C10.6645 21.2987 11.7616 21.8373 10.8331 21.115C11.1451 20.7527 10.2342 20.5589 10.5361 20.3148C9.76611 19.8443 9.92967 19.887 10.4682 19.9021C9.54466 19.4894 10.6016 19.5196 10.5512 19.3083C10.1939 19.2378 8.78219 18.6792 9.61261 19.3536C8.7671 18.9233 9.41129 19.5146 9.15462 19.4517C8.28898 19.2152 9.92464 20.111 9.01874 19.887C9.51447 20.2796 10.3524 20.8936 9.2276 20.3022C9.08416 20.5161 10.0354 20.8408 10.2694 21.0018ZM11.6207 21.7794C10.8154 21.1301 13.2639 22.3078 11.6207 21.7794V21.7794ZM18.5408 25.9692C18.3143 26.2485 18.5609 25.6421 18.5408 25.9692V25.9692ZM19.2504 26.2686C19.6304 25.9012 19.2655 26.855 19.8795 26.1781C19.8871 25.6949 19.8619 25.408 19.1749 25.9969C18.9862 26.1026 18.9007 26.548 19.2504 26.2686ZM7.96436 19.1799C7.14653 18.7245 7.84609 18.7219 7.96436 19.1799V19.1799ZM8.7218 19.6782C7.71524 19.2554 8.43996 19.2101 8.7218 19.6782V19.6782ZM13.0425 22.2827C13.4652 22.6576 14.9801 22.5569 13.5533 22.328C13.3444 22.0159 12.2146 22.0914 13.0425 22.2827ZM18.9812 25.9491C18.3521 26.1932 19.6279 25.4055 18.9812 25.9491V25.9491ZM20.33 26.8776C20.0507 26.9531 20.335 26.704 20.33 26.8776V26.8776ZM20.3325 26.6335C19.6355 26.6788 21.0522 25.8711 20.3325 26.6335V26.6335ZM6.09467 17.6172C5.48318 16.744 5.71469 16.3515 5.12334 15.6368C5.0101 15.0908 4.10923 13.8527 4.6578 15.1637C5.15857 15.9312 5.30704 17.119 6.09467 17.6172ZM20.106 26.3919C19.565 26.0195 21.4297 25.5364 20.106 26.3919V26.3919ZM21.1151 26.787C20.6974 26.6688 21.7794 26.2183 21.1151 26.787V26.787ZM7.73788 18.2136C7.2497 18.1784 7.92913 17.9318 7.73788 18.2136V18.2136ZM20.9062 26.5153C21.5479 26.1026 20.7578 26.1655 20.7905 26.553L20.9062 26.5153ZM12.2045 21.032C11.8648 21.0547 12.1819 20.7527 12.2045 21.032V21.032ZM12.743 21.3415C12.4788 21.3944 12.5694 20.9943 12.743 21.3415V21.3415ZM21.9354 26.7946C22.7583 26.2007 21.4372 26.6813 21.7643 26.9078L21.9354 26.7946ZM21.6184 26.6436C20.9138 26.8927 22.2903 26.0824 21.6184 26.6436V26.6436ZM23.2264 27.7131C22.6803 27.6174 23.6768 27.4136 23.2264 27.7131V27.7131ZM8.15058 18.0098C8.752 18.1457 10.5563 19.492 9.49182 18.1029C8.94576 17.9419 9.27289 16.6082 8.71677 16.8447C9.08919 17.4688 9.02377 17.733 8.23865 17.3404C7.25473 16.8598 7.68504 17.577 7.8788 17.7758C7.6171 17.8387 8.22858 18.0048 8.15058 18.0098ZM5.40769 15.8432C5.5159 15.3978 4.41371 13.3897 4.8868 14.8366C5.05791 15.1411 5.0403 15.7148 5.40769 15.8432ZM10.443 18.9484C10.1335 18.6892 10.4279 18.9107 10.443 18.9484V18.9484ZM11.2055 19.1271C10.3625 18.9333 11.2055 18.654 11.2055 19.1271V19.1271ZM17.8236 23.2968C17.3254 23.2917 17.6978 22.9747 17.8236 23.2968V23.2968ZM18.1407 23.5308C17.9595 23.566 18.0954 23.3496 18.1407 23.5308V23.5308ZM20.7653 25.1816C20.4508 25.1589 21.017 24.9953 20.7653 25.1816V25.1816ZM6.77662 16.193C6.00408 15.9942 7.49883 15.9136 6.77662 16.193V16.193ZM17.2423 22.7859C16.7818 22.9017 17.2323 22.3179 17.2423 22.7859V22.7859ZM6.49226 15.5286C6.06196 15.4255 6.95528 15.3726 6.49226 15.5286V15.5286ZM7.83602 16.1804C7.69511 16.2382 7.82847 16.0269 7.83602 16.1804V16.1804ZM24.248 26.2435C24.8444 26.1227 26.2033 26.548 26.4222 26.0849C25.6975 26.0673 23.9184 25.5741 23.8353 26.2007L23.9939 26.2259L24.248 26.2435ZM8.26381 16.2886C7.89642 16.271 8.2764 15.8155 8.26381 16.2886V16.2886ZM4.72826 13.8351C4.11678 13.6992 4.56721 12.9342 4.72826 13.8351V13.8351ZM5.57126 14.0465C4.79872 13.7873 5.58132 13.7571 5.57126 14.0465V14.0465ZM6.05189 14.283C5.91349 14.1723 5.94369 14.4264 6.05189 14.283V14.283ZM9.08668 16.2282C8.74696 16.1326 9.23011 16.0973 9.08668 16.2282V16.2282ZM5.73231 13.7495C4.75594 13.6489 5.64927 13.0676 5.73231 13.7495V13.7495ZM4.00354 12.6272C3.83494 12.7455 3.97837 12.3127 4.00354 12.6272V12.6272ZM4.26021 12.4334C4.03877 12.4813 4.21743 12.061 4.26021 12.4334V12.4334ZM5.68198 13.2815C6.2834 13.0449 4.58734 12.7933 5.55868 13.2362L5.68198 13.2815ZM24.7035 25.0306C24.2153 24.9224 25.0885 24.6783 24.7035 25.0306V25.0306ZM27.001 26.2233C26.6134 26.2812 27.1545 25.7679 27.001 26.2233V26.2233ZM5.82542 12.5366C5.34981 12.6247 5.89084 12.0962 5.82542 12.5366V12.5366ZM3.80474 11.1828C3.69654 10.5612 3.71163 9.4666 4.75091 9.83651C3.36437 10.1133 5.71218 11.5603 5.41524 10.4178C5.99905 10.4455 6.55517 10.0731 6.25069 10.6392C7.40069 10.5134 8.19587 9.51693 9.30561 9.65533C10.1712 9.53958 11.1149 9.45402 12.046 9.10675C12.811 9.05139 13.5483 8.22601 13.1305 7.73783C12.0862 7.64976 10.9916 7.78061 9.83908 8.0096C8.56075 8.27634 7.39817 8.77962 6.10725 8.99855C4.84905 9.16715 6.35889 9.46408 5.99905 9.52951C5.34227 9.75599 6.78165 9.912 5.91349 10.1511C5.3775 10.0479 4.81885 9.86419 5.04785 9.30052C3.84249 9.45653 2.78308 9.9573 3.7368 11.1828H3.80474ZM6.70867 9.70314C6.99051 8.66135 8.22103 10.5587 7.17169 9.84155C7.04587 9.74592 6.83953 9.67043 6.70867 9.70314ZM6.76403 9.19734C6.98045 9.36846 7.17169 8.89538 6.76403 9.19734V9.19734ZM7.28242 9.20741C7.32016 8.72929 8.46764 9.46157 7.47115 9.37853L7.28242 9.20741ZM7.98953 8.92054C8.06502 9.1898 8.24871 8.61857 7.98953 8.92054V8.92054ZM8.17071 8.79975C8.60101 8.28137 10.6091 8.4701 9.13952 8.74942C8.74696 8.45249 8.44499 8.92557 8.17071 8.79975ZM10.7928 8.39713C10.7274 6.98291 12.0963 8.89789 10.7928 8.39713V8.39713ZM11.5377 8.39209C11.8094 7.67995 12.5945 8.10522 11.6635 8.24866C11.6836 8.32415 11.6358 8.61605 11.5377 8.39209ZM5.53351 12.1717C4.67039 11.7389 6.34631 11.6735 5.53351 12.1717V12.1717ZM6.13493 12.3378C5.5159 12.2145 6.41929 12.0359 6.13493 12.3378V12.3378ZM4.36338 11.0821C3.81481 10.9462 4.82892 10.7248 4.36338 11.0821V11.0821ZM28.3573 26.0925C28.0025 26.2787 28.3699 25.6773 28.3573 26.0925V26.0925ZM25.9189 24.4292C25.6069 24.4694 25.9894 23.951 25.9189 24.4292V24.4292ZM29.0292 26.2535C29.6784 26.2561 30.997 26.0522 29.5828 26.0522C29.3614 26.0849 28.2919 26.0799 29.0292 26.2535ZM6.66338 12.0459C7.18931 12.0107 7.48624 11.4671 6.56021 11.4973C5.12837 11.3489 7.82344 11.988 6.37651 11.8043C6.18275 11.9327 6.6508 12.0811 6.66338 12.0459ZM7.1264 12.2799C6.96283 12.4586 7.07104 11.9427 7.1264 12.2799V12.2799ZM7.67497 10.8154C7.35791 10.7399 7.90145 10.5336 7.67497 10.8154V10.8154ZM5.92607 7.89636C6.86469 7.57678 8.14554 7.21945 8.58843 8.05238C8.13799 7.51135 8.40725 6.97536 8.83252 7.77054C9.43394 8.57328 9.73591 7.40566 9.34335 7.13641C9.78876 7.69002 10.2971 7.95172 9.6428 7.17164C10.3549 6.31606 8.21852 7.28488 7.73285 7.27481C7.50134 7.37798 5.32213 7.82842 5.92607 7.89636ZM6.47716 6.84451C7.01316 6.44188 8.32672 7.08608 7.48373 6.4444C7.40069 6.3689 5.63417 6.93006 6.47716 6.84451ZM8.42738 6.92503C9.05397 6.94013 8.15812 6.08455 8.90298 6.47208C8.77968 6.07197 8.03482 5.99648 7.66994 5.83794C7.4636 6.20282 8.08767 6.93006 8.42738 6.92503ZM6.8194 5.15348C6.43942 5.30446 7.03581 4.86158 6.8194 5.15348V5.15348ZM7.61458 5.34473C8.62366 5.21136 7.35791 4.91191 7.41075 5.33466L7.61458 5.34473ZM6.12738 4.18215C5.41776 3.25359 7.4636 4.33816 6.74139 3.36683C6.13493 2.88368 5.55113 3.91038 6.12738 4.18215ZM15.2393 9.08914C15.5639 8.51288 13.8955 8.31157 15.0204 8.88531C15.1261 8.92054 15.1009 9.1294 15.2393 9.08914Z" fill="white"/>
</svg>
