<svg width="33" height="33" viewBox="0 0 33 33" fill="none" xmlns="http://www.w3.org/2000/svg">
<path fill-rule="evenodd" clip-rule="evenodd" d="M22.7713 14.4145C22.6782 13.2091 22.3948 12.0468 22.0008 10.9081C21.1844 8.36556 19.8744 6.11539 18.0291 4.17926C17.5626 3.68957 17.0437 3.2409 16.7183 2.63142C16.5125 2.24591 16.3165 1.85511 16.1159 1.46658L15.9888 1.14624C15.9674 1.21972 15.9538 1.24589 15.9531 1.27231C15.9367 1.90569 15.5779 2.33524 15.131 2.73611C14.6284 3.1873 14.1606 3.67699 13.6777 4.14982L12.1928 6.10331C11.7922 6.83936 11.3921 7.57541 10.992 8.31145L10.1893 10.4798L10.1651 10.5136C9.72322 11.965 9.5053 13.4573 9.3981 14.9646C9.35783 15.531 9.40363 16.1058 9.43559 16.6752C9.48114 17.4893 9.62256 18.2895 9.83469 19.0771C10.6052 21.9388 12.1689 24.3125 14.3066 26.3292C14.7039 26.7039 15.1116 27.0446 15.5263 27.4012C15.5973 27.1583 15.6539 26.9155 15.7183 26.6727C15.7827 26.4308 15.8479 26.1903 15.8914 25.9477C15.8476 26.1903 15.7986 26.4308 15.75 26.6727L15.5422 27.4012L15.7279 28.0305L15.9 29.0079L15.982 30.0278C15.9813 30.2349 15.973 30.4425 15.9855 30.6493C15.9886 30.7022 16.058 30.751 16.0968 30.8018L16.443 30.9234L16.8039 31.0638L16.742 30.1571L16.7392 29.2643L16.8638 27.9042L16.9541 27.608L17.2125 27.15C17.5316 26.8934 17.8741 26.6603 18.1648 26.3747C18.6907 25.8579 19.2154 25.3344 19.6859 24.7685C20.2984 24.035 20.8214 23.2311 21.2438 22.3739C21.5262 21.7991 21.7919 21.2128 22.0118 20.6122C22.2056 20.0827 22.3256 19.5263 22.4784 18.9818C22.492 18.9425 22.5101 18.904 22.5186 18.864C22.8342 17.3942 22.8873 15.9095 22.7713 14.4145Z" fill="white"/>
</svg>
