<svg width="33" height="33" viewBox="0 0 33 33" fill="none" xmlns="http://www.w3.org/2000/svg">
<path d="M28.378 7.63332L17.2814 1.19006C16.5816 0.791464 15.6704 0.791464 14.965 1.19006L3.74989 7.63332C3.02768 8.04878 2.5166 8.82962 2.5166 9.66481V22.5342C2.5166 23.3694 3.04102 24.1505 3.76323 24.5682L6.7263 26.2512C8.14253 26.9488 8.64304 26.9488 9.2875 26.9488C11.3844 26.9488 12.5822 25.6807 12.5822 23.4691V10.7637C12.5822 10.5843 12.4889 10.3173 12.3127 10.3173H10.8977C10.7186 10.3173 10.3175 10.5843 10.3175 10.7635V23.4688C10.3175 24.4492 9.43068 25.4248 7.77337 24.5962L4.71166 22.8314C4.60497 22.7735 4.52973 22.657 4.52973 22.5342V9.66481C4.52973 9.54352 4.66939 9.42173 4.77684 9.35958L15.9557 2.92739C16.0602 2.86825 16.2137 2.86825 16.3178 2.92739L27.3603 9.35806C27.466 9.42173 27.4288 9.53975 27.4288 9.66481V22.5342C27.4288 22.657 27.4748 22.7766 27.3704 22.8357L16.2766 29.2716C16.1814 29.3288 16.0634 29.3288 15.9592 29.2716L13.1139 27.5733C13.0281 27.5235 12.9262 27.5056 12.8439 27.5517C12.0523 28.0004 11.9063 28.06 11.1637 28.3174C10.981 28.3811 10.7115 28.4916 11.2669 28.8028L14.9907 31.0057C15.3462 31.211 15.7495 31.3192 16.1601 31.3192C16.5732 31.3192 16.9779 31.212 17.3345 31.0057L28.3777 24.5682C29.0999 24.1475 29.4421 23.3694 29.4421 22.5342V9.66481C29.4421 8.82962 29.0999 8.05079 28.378 7.63332ZM19.6055 20.4949C16.6548 20.4949 16.0048 19.6809 15.7881 18.2135C15.763 18.0555 15.6288 17.8665 15.468 17.8665H14.0259C13.8475 17.8665 13.704 18.0829 13.704 18.2606C13.704 20.1394 14.7255 22.4157 19.6058 22.4157C23.1386 22.4157 25.164 21.043 25.164 18.6137C25.164 16.205 23.5366 15.5728 20.1106 15.1194C16.6475 14.6616 16.2957 14.4304 16.2957 13.6191C16.2957 12.9502 16.5936 12.0582 19.1578 12.0582C21.449 12.0582 22.2935 12.5499 22.6411 14.0942C22.6707 14.2394 22.8034 14.3436 22.9531 14.3436H24.401C24.4901 14.3436 24.5752 14.3076 24.6376 14.2439C24.698 14.1755 24.7299 14.0897 24.7219 13.9976C24.4977 11.3382 22.7309 10.0989 19.1576 10.0989C15.9791 10.0989 14.083 11.4411 14.083 13.6911C14.083 16.1315 15.9696 16.8059 19.0207 17.1076C22.6707 17.4654 22.9546 17.9989 22.9546 18.7168C22.9546 19.9637 21.9536 20.4949 19.6055 20.4949Z" fill="white"/>
</svg>
