<svg width="33" height="33" viewBox="0 0 33 33" fill="none" xmlns="http://www.w3.org/2000/svg">
<path d="M31.4046 13.1104C30.3225 12.4813 28.8882 12.4058 27.6803 12.7581C27.5293 11.4496 26.6738 10.3172 25.6672 9.51195L25.2646 9.18481L24.9123 9.58744C24.2328 10.3675 24.0315 11.6761 24.1322 12.6826C24.2077 13.4124 24.4342 14.1673 24.8871 14.7712C24.5348 14.9725 24.1573 15.2494 23.8051 15.3752C23.1005 15.6268 22.3204 15.8785 21.5654 15.8785H19.8795V12.3303H16.6081V6.03931H12.8335V9.05899H6.5425V12.3303H3.27118V15.8533H0.452802L0.402474 16.2308C0.276653 17.8413 0.477966 19.4014 1.1574 20.8861L1.4342 21.4397L1.45936 21.49C3.44733 24.862 6.91997 26.2712 10.7197 26.2712C18.0676 26.2712 24.1322 22.9747 26.9002 16.0546C28.7624 16.1553 30.6748 15.6017 31.5807 13.815L31.8072 13.362L31.4046 13.1104ZM7.04579 9.81392H9.56219V12.582H7.04579V9.81392ZM10.3423 20.9364C10.3423 21.3642 9.98998 21.7165 9.56219 21.7165C9.1344 21.7165 8.78211 21.3642 8.78211 20.9364C8.78211 20.5086 9.1344 20.1563 9.56219 20.1563C9.98998 20.1815 10.3423 20.5086 10.3423 20.9364ZM7.04579 13.0852H9.56219V15.8533H7.04579V13.0852ZM3.77446 13.0852H6.5425V15.8533H3.77446V13.0852ZM10.7449 25.7176C6.76898 25.6924 4.63004 24.3587 2.86855 22.5973C3.397 22.6224 3.90028 22.6476 4.35323 22.6476C4.75586 22.6476 5.15848 22.6476 5.53594 22.6224C6.51734 22.5721 7.37292 22.4463 8.07751 22.245C8.65629 23.5787 9.71318 24.8117 11.6005 25.7176H10.7449ZM12.8335 15.8533H10.0655V13.0852H12.8335V15.8533ZM12.8335 12.582H10.0655V9.81392H12.8335V12.582ZM16.1048 15.8533H13.3368V13.0852H16.1048V15.8533ZM16.1048 12.582H13.3368V9.81392H16.1048V12.582ZM16.1048 9.31063H13.3368V6.54259H16.1048V9.31063ZM19.3762 15.8533H16.6081V13.0852H19.3762V15.8533ZM9.7635 20.4331C9.71318 20.408 9.63768 20.3828 9.56219 20.3828C9.26022 20.3828 9.00858 20.6345 9.00858 20.9364C9.00858 21.2384 9.26022 21.49 9.56219 21.49C9.86416 21.49 10.1158 21.2384 10.1158 20.9364C10.1158 20.8609 10.0906 20.7854 10.0655 20.7351C10.0151 20.8106 9.96482 20.8609 9.86416 20.8609C9.73834 20.8609 9.63768 20.7603 9.63768 20.6345C9.66285 20.5338 9.71318 20.4583 9.7635 20.4331Z" fill="white"/>
</svg>
