<svg width="33" height="33" viewBox="0 0 33 33" fill="none" xmlns="http://www.w3.org/2000/svg">
<g clip-path="url(#clip0_80_1171)">
<path d="M11.4498 32.4617C14.4443 32.4617 16.8601 30.0459 16.8601 27.0514V21.6411H11.4498C8.4553 21.6411 6.03955 24.0569 6.03955 27.0514C6.03955 30.0459 8.4553 32.4617 11.4498 32.4617Z" fill="white"/>
<path d="M6.03955 16.2308C6.03955 13.2363 8.4553 10.8206 11.4498 10.8206H16.8601V21.6411H11.4498C8.4553 21.6411 6.03955 19.2254 6.03955 16.2308Z" fill="white"/>
<path d="M6.03955 5.41027C6.03955 2.41575 8.4553 0 11.4498 0H16.8601V10.8205H11.4498C8.4553 10.8205 6.03955 8.4048 6.03955 5.41027Z" fill="white"/>
<path d="M16.8599 0H22.2701C25.2647 0 27.6804 2.41575 27.6804 5.41027C27.6804 8.4048 25.2647 10.8205 22.2701 10.8205H16.8599V0Z" fill="white"/>
<path d="M27.6804 16.2308C27.6804 19.2254 25.2647 21.6411 22.2701 21.6411C19.2756 21.6411 16.8599 19.2254 16.8599 16.2308C16.8599 13.2363 19.2756 10.8206 22.2701 10.8206C25.2647 10.8206 27.6804 13.2363 27.6804 16.2308Z" fill="white"/>
</g>
<defs>
<clipPath id="clip0_80_1171">
<rect width="32.21" height="32.21" fill="white"/>
</clipPath>
</defs>
</svg>
