<svg width="33" height="33" viewBox="0 0 33 33" fill="none" xmlns="http://www.w3.org/2000/svg">
<path fill-rule="evenodd" clip-rule="evenodd" d="M31.0168 19.3219C30.9036 18.5876 30.2868 18.1068 29.5694 18.0743C29.3097 18.0625 29.046 18.0896 28.787 18.1226C28.4742 18.1624 28.1652 18.2328 27.8532 18.2794C27.6375 18.3116 27.4189 18.3264 27.2035 18.3486L27.1982 18.3207C27.6003 17.5612 28.0193 16.8101 28.3998 16.0398C28.6914 15.4489 28.941 14.8367 29.199 14.2295C29.6257 13.2234 29.9667 12.1862 30.2491 11.132C30.5196 10.1227 30.7511 9.10231 30.8238 8.05523C30.853 7.637 30.8731 7.21701 30.8709 6.79828C30.8689 6.46436 30.8329 6.12993 30.7994 5.79701C30.7617 5.41552 30.6464 5.05391 30.4869 4.70589C30.2765 4.2474 29.9504 3.8712 29.6071 3.51387C29.3323 3.22776 29.0301 2.96706 28.7304 2.70661C28.3031 2.33493 27.8227 2.03825 27.3237 1.77478C26.7585 1.47441 26.1596 1.24211 25.5396 1.08277C25.1639 0.986895 24.7797 0.915681 24.3992 0.839686C24.2623 0.812005 24.1251 0.754883 23.9882 0.754883H21.4112C21.3181 0.754883 21.2257 0.802946 21.1319 0.813515C20.5148 0.882213 19.9051 0.998471 19.313 1.18192C19.0916 1.25061 18.8892 1.20733 18.6789 1.18796C18.5176 1.17311 18.359 1.12983 18.1977 1.12177C17.5832 1.09107 16.968 1.04603 16.3537 1.05257C15.7651 1.05861 15.1826 1.15549 14.6129 1.3173C14.136 1.45268 13.6695 1.61801 13.2422 1.86864C13.0592 1.97584 12.9143 1.95571 12.7251 1.90111C12.0892 1.71766 11.4487 1.54529 10.8028 1.40059C10.4002 1.31051 9.9862 1.26571 9.57502 1.22268C9.18046 1.18168 8.78438 1.15699 8.38778 1.1487C8.00076 1.1404 7.61097 1.14065 7.22571 1.17487C6.61207 1.22822 6.0072 1.35607 5.42446 1.5556C4.77907 1.77597 4.17604 2.10489 3.64134 2.52819C3.09603 2.95976 2.65868 3.48669 2.30689 4.08837C1.93622 4.72326 1.68206 5.40294 1.52403 6.11684C1.43848 6.50361 1.38437 6.90121 1.32574 7.29402C1.30737 7.41631 1.50994 7.53861 1.2583 7.6604V9.37005C1.50994 9.48379 1.31064 9.59728 1.32524 9.71128C1.36022 9.98531 1.39117 10.2616 1.43747 10.5336C1.5107 10.9642 1.59751 11.3935 1.68609 11.8213C1.80908 12.4192 1.93877 13.0157 2.07513 13.6107C2.17478 14.0435 2.28827 14.4738 2.40704 14.9019C2.58847 15.5556 2.76714 16.2106 2.97222 16.8571C3.16272 17.4578 3.38089 18.0499 3.5973 18.642C3.897 19.4611 4.25584 20.2538 4.68615 21.0135C5.05833 21.6712 5.4836 22.2873 6.05407 22.7941C6.43002 23.128 6.8485 23.3847 7.33567 23.513C7.71842 23.6137 8.10746 23.6257 8.49926 23.5455C8.94565 23.4547 9.36267 23.2549 9.71317 22.9639C9.75419 22.9302 9.79923 22.9045 9.8478 22.9664C10.0328 23.2007 10.2804 23.357 10.5393 23.4921C11.2381 23.8565 11.9996 23.9657 12.7731 24.0103C12.9603 24.0211 13.1496 23.9941 13.3383 23.9889C13.706 23.9788 14.0633 23.9071 14.4148 23.8054C14.599 23.7521 14.779 23.6844 14.9664 23.6212C14.9762 23.8208 14.9888 24.013 14.9946 24.2053L15.0208 25.2536C15.0256 25.4131 15.0318 25.5732 15.0467 25.732C15.0847 26.1414 15.1219 26.5511 15.1708 26.9592C15.2047 27.2406 15.24 27.5242 15.3061 27.7987C15.4388 28.3529 15.6205 28.8942 15.8492 29.4162C16.0681 29.9229 16.4045 30.3702 16.8306 30.721C17.3892 31.183 18.044 31.38 18.7511 31.4165C19.0435 31.4319 19.3442 31.4175 19.6321 31.3652C20.0896 31.2839 20.5422 31.1768 20.9877 31.0444C21.8913 30.7716 22.6724 30.3005 23.256 29.5393C23.5881 29.1055 23.8609 28.6362 24.0361 28.118C24.1805 27.69 24.3166 27.2577 24.4248 26.8196C24.5104 26.4743 24.5527 26.1182 24.6048 25.7657C24.6392 25.5324 24.6599 25.2969 24.6815 25.0619C24.7167 24.6801 24.7527 24.2986 24.7781 23.9161C24.7958 23.6499 24.795 23.3824 24.8056 23.1157C24.8088 23.0344 24.8219 22.9536 24.8295 22.8726C24.8365 22.7976 24.8743 22.7717 24.9508 22.7729C25.2203 22.777 25.4903 22.784 25.759 22.7719C26.0603 22.7583 26.3642 22.7455 26.6607 22.6957C27.0831 22.6251 27.502 22.5355 27.9164 22.4272C28.4053 22.2993 28.8537 22.0704 29.2853 21.8094C29.7881 21.5057 30.2463 21.1493 30.6182 20.6904C30.9416 20.29 31.0948 19.8272 31.0168 19.3219ZM30.1582 19.569C30.1416 19.7993 30.0362 19.9966 29.8832 20.1652C29.1612 20.9611 28.2556 21.444 27.2196 21.6818C26.826 21.7719 26.4198 21.8187 26.017 21.856C25.6728 21.8862 25.327 21.8944 24.9817 21.8804C24.7286 21.8708 24.4774 21.8129 24.2187 21.7757C24.1928 22.0122 24.1682 22.2586 24.1382 22.5044L24.0177 23.4468C23.9812 23.7455 23.9528 24.0452 23.9153 24.3437C23.8785 24.6333 23.8327 24.9219 23.7942 25.2116C23.7582 25.4813 23.7318 25.7524 23.6918 26.0216C23.6302 26.4343 23.5713 26.848 23.4907 27.2574C23.3941 27.7469 23.2459 28.221 23.0041 28.6623C22.7092 29.2011 22.2909 29.6115 21.7587 29.9155C21.2101 30.229 20.6105 30.3921 20.0025 30.5285C19.5722 30.6251 19.1288 30.641 18.693 30.6017C17.937 30.5333 17.2918 30.2099 16.8042 29.6238C16.3386 29.0645 16.0236 28.4233 15.9108 27.6975C15.8582 27.3521 15.817 27.0049 15.7873 26.6568C15.7539 26.2698 15.7288 25.8822 15.712 25.4942C15.6897 25.0019 15.6732 24.5094 15.6625 24.0168C15.6491 23.4113 15.6448 22.8059 15.6363 22.2005L15.6348 22.1773C15.3268 22.362 15.024 22.5643 14.703 22.7309C14.3277 22.925 13.9169 23.0408 13.4956 23.0714C13.1639 23.0965 12.828 23.1194 12.4978 23.093C11.9566 23.0495 11.4158 22.9647 10.9311 22.6982C10.7346 22.59 10.5295 22.4584 10.3941 22.2855C10.0695 21.8713 10.225 21.3479 10.7145 21.096C11.0527 20.9216 11.4218 20.8489 11.7885 20.7641C12.1076 20.6917 12.4233 20.6053 12.7349 20.5051C13.0424 20.4045 13.2364 20.1551 13.4279 19.9105L13.7314 19.5202C13.6048 19.5069 13.4855 19.4933 13.3662 19.4822C13.0041 19.448 12.6586 19.3484 12.3282 19.2019C12.0454 19.0768 12.0411 19.0632 11.8337 19.2882C11.4875 19.6642 11.1508 20.0489 10.8116 20.4312C10.562 20.7122 10.3138 20.9951 10.0655 21.2769C9.81937 21.5557 9.58886 21.8504 9.32388 22.1099C8.93032 22.4951 8.45598 22.7269 7.89004 22.7007C7.52692 22.6841 7.1945 22.5568 6.89555 22.3487C6.27853 21.9189 5.86282 21.3177 5.48435 20.6863C4.99944 19.8773 4.62727 19.0154 4.30869 18.1299C4.08825 17.5179 3.86681 16.9054 3.6743 16.2846C3.46519 15.61 3.28174 14.9268 3.10132 14.2438C2.96654 13.7278 2.84221 13.2092 2.72839 12.6882C2.59566 12.0965 2.47284 11.5026 2.35998 10.9068C2.28499 10.5044 2.24146 10.0963 2.18082 9.69114C2.09903 9.14508 2.08393 8.59399 2.11363 8.04567C2.14005 7.5517 2.21101 7.05898 2.28147 6.56828C2.37911 5.88936 2.60282 5.24868 2.92466 4.64374C3.1217 4.27307 3.36629 3.93612 3.64914 3.62308C4.11342 3.10923 4.67533 2.73781 5.3004 2.45899C5.73725 2.26422 6.19876 2.14696 6.66908 2.05536C7.36713 1.91948 8.07147 1.92476 8.77606 1.93936C9.08407 1.94565 9.39082 2.00176 9.69858 2.03221C10.3611 2.09814 11.0106 2.23755 11.6518 2.40967C12.1191 2.53499 12.5768 2.6973 13.0404 2.83822C13.0869 2.85231 13.1551 2.85105 13.1931 2.82614C13.8212 2.41621 14.5077 2.1457 15.2377 1.99094C15.5147 1.93231 15.8006 1.90664 16.084 1.88852C16.4285 1.86663 16.7757 1.8465 17.1195 1.86638C17.5327 1.89003 17.9438 1.95093 18.3545 2.0073C18.5538 2.03448 18.7483 2.10368 18.9481 2.12255C19.0438 2.13161 19.1452 2.06165 19.2463 2.03825C19.7619 1.91922 20.2753 1.78661 20.7954 1.6925C21.1827 1.62254 21.5783 1.58957 21.9721 1.56693C22.4112 1.54176 22.8536 1.52339 23.2925 1.54453C23.8482 1.57205 24.4003 1.64979 24.942 1.7768C25.6156 1.93357 26.2618 2.1613 26.8761 2.47736C27.3351 2.7134 27.7714 2.98719 28.1642 3.32388C28.4216 3.54482 28.6851 3.76299 28.9176 4.0091C29.2045 4.31258 29.4972 4.61631 29.6771 5.00509C29.8125 5.29825 29.9091 5.60173 29.9358 5.92283C29.969 6.32193 30.0092 6.72254 30.0055 7.12215C30.0019 7.50439 29.9499 7.88638 29.9129 8.26761C29.8288 9.13678 29.6398 9.98707 29.4103 10.826C29.2184 11.5191 29.0011 12.2048 28.7588 12.8819C28.5377 13.5063 28.2825 14.1193 28.0246 14.7297C27.8347 15.1819 27.6284 15.6271 27.406 16.0642C26.984 16.8911 26.5452 17.7094 26.0376 18.4882C25.95 18.6229 25.867 18.7608 25.7814 18.8982C26.0029 19.0476 26.2538 19.1002 26.5064 19.1274C26.7467 19.1536 26.9918 19.1692 27.2319 19.1513C27.6161 19.1229 27.9991 19.068 28.3811 19.0144C28.7596 18.9616 29.1305 18.8539 29.5191 18.8823C29.9071 18.9105 30.1846 19.2054 30.1582 19.569ZM24.6189 18.7253C24.454 18.5124 24.2859 18.302 24.1246 18.0866C23.8715 17.7484 23.6895 17.3707 23.5069 16.9912C23.3337 16.6316 23.1213 16.2912 22.9389 15.9356C22.6206 15.3153 22.2965 14.697 22.0033 14.0647C21.6346 13.2702 21.344 12.4476 21.2524 11.5676C21.2137 11.1952 21.2038 10.8233 21.2791 10.4544C21.3996 9.86528 21.7074 9.40453 22.2247 9.08847C22.7046 8.7953 23.2394 8.70069 23.7872 8.67099C24.1271 8.65262 24.4686 8.66772 24.8214 8.66772L24.8096 8.60808C24.5902 8.14934 24.3851 7.6828 24.145 7.23488C23.8063 6.60276 23.373 6.03279 22.8903 5.50435C22.5328 5.11305 22.1455 4.74993 21.7212 4.42909C21.304 4.11328 20.8644 3.83119 20.3953 3.60043C19.8359 3.32539 19.2534 3.11276 18.6421 2.97712C18.0548 2.84677 17.4637 2.767 16.8613 2.76046C16.3474 2.75492 15.8368 2.77807 15.3363 2.89408C14.5809 3.06897 13.8899 3.38 13.2887 3.88378C12.9561 4.16272 12.6589 4.48132 12.4037 4.83247C12.1028 5.24591 11.8599 5.69232 11.6523 6.16038C11.3675 6.80256 11.1719 7.47092 11.0383 8.1579C10.9714 8.50038 10.919 8.84588 10.8657 9.19113C10.8471 9.31192 10.8456 9.43548 10.8347 9.57388C10.9276 9.52557 10.9945 9.48832 11.063 9.45511L11.2857 9.3552C12.0388 9.01071 12.8192 8.78901 13.6579 8.81443C14.0142 8.82525 14.3552 8.89571 14.672 9.05173C15.2797 9.35143 15.6353 9.861 15.7898 10.506C15.8965 10.9511 15.9695 11.4051 16.0404 11.8578C16.096 12.2113 16.1529 12.5687 16.1595 12.9252C16.1688 13.4464 16.1423 13.9685 16.1139 14.4894C16.0895 14.9324 15.9978 15.369 15.8421 15.7844C15.5603 16.5375 15.2462 17.2784 14.9528 18.0272C14.856 18.2746 14.7815 18.5308 14.6899 18.8028C14.8313 18.8028 14.946 18.8018 15.0608 18.8033C15.1056 18.8041 15.1514 18.8053 15.1947 18.8156C15.5319 18.8952 15.8243 19.0479 16.0641 19.3073C16.3839 19.6526 16.5518 20.0555 16.5603 20.5218C16.5651 20.7802 16.5379 21.0394 16.5392 21.2978C16.5445 22.5022 16.5535 23.7065 16.5636 24.9106C16.5653 25.1074 16.5752 25.3044 16.5893 25.501C16.6187 25.9124 16.6484 26.3241 16.6887 26.7345C16.7168 27.0257 16.7561 27.3163 16.8021 27.6054C16.8673 28.0151 17.0538 28.3797 17.2654 28.7283C17.4476 29.028 17.6844 29.2826 17.9964 29.4583C18.5266 29.7567 19.0976 29.7816 19.6731 29.6717C20.0619 29.5974 20.4436 29.4781 20.8211 29.3551C21.1923 29.236 21.5312 29.0334 21.8118 28.7627C22.0763 28.5063 22.264 28.1938 22.3906 27.8488C22.6362 27.1797 22.7127 26.4751 22.8143 25.776C22.8523 25.5143 22.8853 25.2518 22.92 24.9896C22.9595 24.6912 22.9995 24.393 23.0378 24.0948C23.066 23.8726 23.0916 23.6499 23.1188 23.4277C23.1576 23.1086 23.1986 22.7898 23.2356 22.4705C23.264 22.2236 23.2882 21.9757 23.3133 21.7284C23.3458 21.4123 23.3808 21.0963 23.4087 20.7797C23.4304 20.5394 23.4215 20.2948 23.4641 20.059C23.5423 19.6267 23.7467 19.2588 24.1299 19.021C24.2902 18.9216 24.4711 18.8561 24.6491 18.7721L24.6189 18.7253ZM10.1251 16.9507C9.93398 16.5013 9.81884 16.0232 9.78439 15.536C9.75218 15.0768 9.80678 14.6193 9.85384 14.162C9.89964 13.7192 9.93764 13.2743 9.95097 12.8294C9.97312 12.0981 9.9238 11.3678 9.88882 10.6371C9.86768 10.202 9.91826 9.7616 9.95701 9.32551C9.99199 8.9327 10.0355 8.53888 10.1098 8.15186C10.2343 7.50237 10.3996 6.8622 10.6347 6.24165C10.8579 5.65332 11.1143 5.08033 11.4764 4.56447C11.7245 4.21066 12.0061 3.88001 12.2766 3.53425L12.1964 3.50582C11.3161 3.22625 10.4215 3.00782 9.50154 2.91245C9.06646 2.86741 8.62986 2.84098 8.19352 2.81506C8.05964 2.80701 7.92376 2.82513 7.78938 2.83796C7.45671 2.86967 7.12002 2.88225 6.79263 2.94466C6.2355 3.0506 5.70102 3.22876 5.20604 3.5189C4.76164 3.77935 4.38846 4.11605 4.07592 4.51993C3.73067 4.96584 3.49841 5.47012 3.33157 6.00788C3.13453 6.64227 3.04067 7.29502 3.01526 7.95382C2.99311 8.53133 2.98204 9.11212 3.08169 9.68737C3.15592 10.1157 3.2055 10.5485 3.28728 10.975C3.39876 11.5566 3.51829 12.1368 3.65644 12.7123C3.85397 13.5362 4.05126 14.3613 4.28529 15.1751C4.50925 15.955 4.76189 16.7278 5.03568 17.4912C5.25964 18.1143 5.51858 18.7258 5.79135 19.3292C5.96901 19.7223 6.18417 20.1005 6.40964 20.4687C6.64945 20.8595 6.92223 21.2304 7.29239 21.514C7.75944 21.8721 8.12104 21.9277 8.59564 21.5349C8.79896 21.3665 8.97083 21.1587 9.14774 20.9606C9.42882 20.6461 9.70009 20.323 9.97991 20.0074C10.3362 19.6053 10.6971 19.2074 11.0552 18.8073C11.1309 18.7228 11.2036 18.6357 11.2774 18.5502L11.1556 18.4432C10.7133 18.0217 10.3626 17.5136 10.1251 16.9507ZM23.6352 4.98043C23.928 5.32082 24.2058 5.67378 24.4679 6.03833C24.9712 6.74519 25.3733 7.50841 25.6695 8.32499C25.8006 8.68483 25.9052 9.0482 25.8584 9.44202C25.826 9.71782 25.8287 9.99764 25.8043 10.275C25.784 10.5057 25.7475 10.7352 25.7175 10.9652C25.6727 11.312 25.6078 11.6577 25.5884 12.006C25.5701 12.3374 25.5892 12.6723 25.6101 13.0045C25.6312 13.3419 25.6768 13.6779 25.7077 14.0148C25.7427 14.3968 25.7897 14.7788 25.8006 15.1616C25.8094 15.4759 25.7814 15.7922 25.754 16.106C25.7213 16.4839 25.6254 16.8498 25.4825 17.2009C25.3821 17.448 25.262 17.6875 25.1486 17.9349L25.1941 17.9832L25.2633 18.0368L25.333 17.912C25.9216 16.9856 26.4448 16.0192 26.8987 15.0199C27.1891 14.3748 27.4649 13.7232 27.7259 13.0656C28.1345 12.043 28.4579 10.9916 28.708 9.91938C28.8202 9.43799 28.9061 8.94931 28.9823 8.46062C29.0417 8.07863 29.0913 7.69211 29.1023 7.3066C29.1142 6.89768 29.0915 6.48549 29.0538 6.07759C29.0256 5.76958 28.9496 5.45956 28.7566 5.20917C28.4463 4.80605 28.1114 4.42053 27.6994 4.11554C27.3527 3.85862 27.0072 3.59515 26.635 3.37899C26.0449 3.03676 25.4062 2.80877 24.7389 2.65351C24.0876 2.50177 23.4278 2.43635 22.7638 2.42251C22.3722 2.4142 21.9789 2.45622 21.5881 2.49296C21.234 2.52618 20.8822 2.5828 20.5257 2.62961C20.9082 2.84476 21.2854 3.03601 21.6412 3.26148C22.3893 3.73531 23.0597 4.30553 23.6352 4.98043ZM13.9156 18.2474C14.1574 17.4741 14.4868 16.7358 14.8059 15.993C15.0646 15.3906 15.206 14.7559 15.253 14.1042C15.2764 13.7828 15.2699 13.4574 15.254 13.1351C15.2383 12.7765 15.2054 12.4188 15.1554 12.0634C15.0885 11.6102 15.0122 11.1567 14.905 10.7118C14.7888 10.2304 14.4956 9.89523 13.9933 9.77167C13.6873 9.69643 13.3834 9.69945 13.0741 9.74827C12.3187 9.86729 11.6272 10.1456 10.983 10.5533C10.8534 10.6353 10.7821 10.7015 10.8045 10.8874C10.8518 11.2813 10.8622 11.6814 10.8604 12.079C10.8579 12.6416 10.834 13.2043 10.8126 13.7667C10.8055 13.9499 10.7791 14.1321 10.7595 14.3145C10.7293 14.5939 10.6712 14.8729 10.6729 15.1517C10.6747 15.4391 10.7041 15.7333 10.7738 16.0116C10.9953 16.8941 11.4643 17.6163 12.2331 18.1259C12.7059 18.4392 13.2291 18.5972 13.8033 18.6272C13.8423 18.4953 13.8771 18.3707 13.9156 18.2474ZM13.0132 10.6763C12.912 10.4639 12.9699 10.288 13.2044 10.2065C13.2616 10.1864 13.3204 10.165 13.3798 10.1592C13.4614 10.1511 13.5444 10.1572 13.6269 10.1572C13.9244 10.1587 14.2105 10.2002 14.4561 10.3894C14.6136 10.5107 14.6559 10.6718 14.554 10.8371C14.4093 11.0716 14.1886 11.1894 13.9176 11.2121C13.4906 11.2475 13.1908 11.0485 13.0132 10.6763ZM24.8504 10.5988C24.8846 10.316 24.912 10.0324 24.947 9.74953C24.9611 9.63578 24.9012 9.60508 24.8058 9.60231C24.5059 9.59401 24.2059 9.58344 23.906 9.57791C23.5678 9.57187 23.2386 9.62622 22.9256 9.75481C22.5783 9.89774 22.3138 10.1267 22.2059 10.5047C22.1269 10.7834 22.1019 11.0747 22.1321 11.3628C22.1742 11.8083 22.2751 12.2463 22.4323 12.6653C22.6422 13.2242 22.8619 13.7828 23.1244 14.3183C23.4799 15.0433 23.8823 15.7451 24.26 16.459C24.3609 16.6495 24.4457 16.8483 24.5509 17.0708C24.763 16.6285 24.8789 16.1463 24.8909 15.656C24.9012 15.2509 24.8687 14.844 24.8451 14.4386C24.8302 14.1905 24.7953 13.9439 24.7711 13.6963C24.7374 13.3513 24.6863 13.0065 24.6785 12.6608C24.6707 12.3092 24.6956 11.9557 24.7258 11.6046C24.7542 11.2679 24.8098 10.934 24.8504 10.5988ZM24.1737 10.3265C24.0622 10.6343 23.8239 10.8079 23.5149 10.859C23.2268 10.9063 22.9744 10.7999 22.7867 10.5701C22.653 10.4066 22.7041 10.2128 22.9044 10.1023C23.1344 9.97499 23.3873 9.94279 23.6855 9.92341C23.7665 9.93826 23.8886 9.95059 24.0046 9.9838C24.1729 10.0314 24.2351 10.1579 24.1737 10.3265ZM15.2601 19.8033C15.0953 19.6687 14.8773 19.6609 14.7206 19.8086C14.5261 19.9923 14.3549 20.2024 14.1838 20.4095C13.9863 20.6488 13.8011 20.8977 13.5462 21.0832C13.1752 21.3527 12.7429 21.4644 12.3083 21.5701C11.9628 21.6541 11.6158 21.7321 11.2693 21.8129L11.265 21.8577C11.368 21.9053 11.4676 21.9647 11.5748 21.9986C12.1033 22.166 12.6408 22.2493 13.1992 22.202C13.6023 22.1677 13.9863 22.0799 14.3502 21.9073C14.8509 21.67 15.2362 21.294 15.5638 20.8567C15.6187 20.7837 15.6436 20.6758 15.6501 20.5816C15.6725 20.2492 15.5037 20.0021 15.2601 19.8033ZM28.2827 19.9357C27.8575 19.9812 27.4317 20.0295 27.0052 20.054C26.7993 20.0658 26.5905 20.0265 26.3826 20.0097C26.0341 19.9815 25.6939 19.904 25.3992 19.7178C25.2286 19.6103 25.0869 19.5982 24.9057 19.6591C24.647 19.7462 24.4359 19.8786 24.3735 20.1589C24.331 20.3484 24.3156 20.5447 24.2985 20.7387C24.2952 20.7729 24.338 20.8358 24.3707 20.8444C24.5703 20.897 24.7708 20.9591 24.9749 20.9775C25.2256 21.0001 25.4807 20.9928 25.7331 20.9802C26.0056 20.9667 26.2799 20.949 26.5484 20.9037C27.1813 20.7976 27.7936 20.6244 28.3373 20.2656C28.5334 20.136 28.7276 20.0036 28.9224 19.8725L28.9063 19.8448C28.6985 19.8758 28.4916 19.9135 28.2827 19.9357Z" fill="white"/>
</svg>
