<svg width="33" height="33" viewBox="0 0 33 33" fill="none" xmlns="http://www.w3.org/2000/svg">
<path d="M16.105 18.9737C17.6894 18.9737 18.9737 17.6894 18.9737 16.105C18.9737 14.5207 17.6894 13.2363 16.105 13.2363C14.5207 13.2363 13.2363 14.5207 13.2363 16.105C13.2363 17.6894 14.5207 18.9737 16.105 18.9737Z" fill="white"/>
<path d="M27.0013 11.3742C26.4477 11.1729 25.8689 10.9716 25.265 10.7954C25.4159 10.1915 25.5418 9.58755 25.6424 9.00877C26.1709 5.68712 25.5921 3.34686 23.9816 2.44095C23.5035 2.16415 22.975 2.03833 22.3711 2.03833C20.6096 2.03833 18.37 3.34686 16.1052 5.53613C13.8405 3.34686 11.6009 2.03833 9.83939 2.03833C9.23545 2.03833 8.70701 2.16415 8.22889 2.44095C6.61839 3.37203 6.03962 5.71228 6.56806 9.00877C6.66872 9.58755 6.79454 10.1915 6.94552 10.7954C6.34159 10.9716 5.76281 11.1477 5.2092 11.3742C2.0637 12.5821 0.352539 14.2429 0.352539 16.105C0.352539 17.9672 2.08886 19.628 5.2092 20.8359C5.76281 21.0372 6.34159 21.2385 6.94552 21.4147C6.79454 22.0186 6.66872 22.6225 6.56806 23.2013C6.03962 26.523 6.61839 28.8632 8.22889 29.7691C8.70701 30.0459 9.23545 30.1718 9.83939 30.1718C11.626 30.1718 13.8656 28.8632 16.1052 26.6739C18.37 28.8632 20.6096 30.1718 22.3711 30.1718C22.975 30.1718 23.5035 30.0459 23.9816 29.7691C25.5921 28.8381 26.1709 26.4978 25.6424 23.2013C25.5418 22.6225 25.4159 22.0186 25.265 21.4147C25.8689 21.2385 26.4477 21.0624 27.0013 20.8359C30.1468 19.628 31.8579 17.9672 31.8579 16.105C31.8579 14.2429 30.1468 12.5821 27.0013 11.3742ZM23.277 3.69916C24.3087 4.3031 24.661 6.16524 24.2332 8.80746C24.1577 9.33591 24.0319 9.88952 23.8809 10.4683C22.5724 10.1663 21.1884 9.96501 19.7289 9.83919C18.8733 8.63131 17.9925 7.54926 17.1118 6.56786C18.9739 4.73088 20.8612 3.47268 22.3963 3.47268C22.7234 3.47268 23.0254 3.54817 23.277 3.69916ZM20.4586 18.6214C20.0057 19.4267 19.4772 20.2319 18.9236 21.0372C17.9925 21.1127 17.0615 21.1379 16.1052 21.1379C15.1238 21.1379 14.1928 21.1127 13.2869 21.0372C12.7333 20.2319 12.23 19.4267 11.777 18.6214C11.2989 17.791 10.846 16.9355 10.4433 16.105C10.846 15.2746 11.2989 14.419 11.777 13.5886C12.23 12.7834 12.7584 11.9781 13.312 11.1729C14.2431 11.0974 15.1742 11.0722 16.1304 11.0722C17.1118 11.0722 18.0429 11.0974 18.9488 11.1729C19.5024 11.9781 20.0057 12.7834 20.4586 13.5886C20.9367 14.419 21.3897 15.2746 21.7923 16.105C21.3645 16.9355 20.9367 17.7659 20.4586 18.6214ZM22.5472 17.791C22.9247 18.6718 23.2267 19.5274 23.5035 20.3829C22.6479 20.5842 21.742 20.7352 20.7858 20.861C21.0877 20.3829 21.4149 19.8797 21.6917 19.3512C21.9936 18.8228 22.2704 18.2943 22.5472 17.791ZM16.1052 24.6105C15.5013 23.9562 14.9225 23.2516 14.3689 22.5219C14.9477 22.547 15.5265 22.5722 16.1052 22.5722C16.684 22.5722 17.2628 22.547 17.8416 22.5219C17.288 23.2516 16.7092 23.9562 16.1052 24.6105ZM11.4247 20.8359C10.4685 20.7101 9.56258 20.5591 8.70701 20.3578C8.98381 19.5274 9.28578 18.6466 9.66324 17.7659C9.94005 18.2691 10.2169 18.7976 10.5188 19.3009C10.8208 19.8545 11.1228 20.3326 11.4247 20.8359ZM9.66324 14.419C9.28578 13.5383 8.98381 12.6827 8.70701 11.8272C9.56258 11.6258 10.4685 11.4749 11.4247 11.349C11.1228 11.8272 10.7956 12.3304 10.5188 12.8589C10.2169 13.3873 9.94005 13.9158 9.66324 14.419ZM16.1052 7.59959C16.7092 8.25385 17.288 8.95845 17.8416 9.6882C17.2628 9.66304 16.684 9.63788 16.1052 9.63788C15.5265 9.63788 14.9477 9.66304 14.3689 9.6882C14.9225 8.95845 15.5013 8.25385 16.1052 7.59959ZM21.6917 12.884L20.7858 11.3742C21.742 11.5 22.6479 11.651 23.5035 11.8523C23.2267 12.6827 22.9247 13.5635 22.5472 14.4442C22.2704 13.9158 21.9936 13.3873 21.6917 12.884ZM7.97725 8.80746C7.54946 6.16524 7.90176 4.3031 8.93348 3.69916C9.18512 3.54817 9.48709 3.47268 9.81423 3.47268C11.3241 3.47268 13.2114 4.70572 15.0987 6.56786C14.2179 7.5241 13.3372 8.63131 12.4816 9.83919C11.0221 9.96501 9.63808 10.1915 8.32955 10.4683C8.17856 9.88952 8.07791 9.33591 7.97725 8.80746ZM1.76173 16.105C1.76173 14.9223 3.19608 13.6641 5.71248 12.7331C6.21577 12.5317 6.76937 12.3556 7.32298 12.2046C7.72561 13.4628 8.22889 14.7965 8.83283 16.1302C8.22889 17.4639 7.70045 18.7724 7.32298 20.0306C3.85034 19.0241 1.76173 17.5142 1.76173 16.105ZM8.93348 28.5109C7.90176 27.907 7.54946 26.0448 7.97725 23.4026C8.05274 22.8742 8.17856 22.3206 8.32955 21.7418C9.63808 22.0438 11.0221 22.2451 12.4816 22.3709C13.3372 23.5788 14.2179 24.6608 15.0987 25.6422C13.2365 27.4792 11.3492 28.7374 9.81423 28.7374C9.48709 28.7374 9.18512 28.6619 8.93348 28.5109ZM24.2332 23.4026C24.661 26.0448 24.3087 27.907 23.277 28.5109C23.0254 28.6619 22.7234 28.7374 22.3963 28.7374C20.8864 28.7374 18.9991 27.5044 17.1118 25.6422C17.9925 24.686 18.8733 23.5788 19.7289 22.3709C21.1884 22.2451 22.5724 22.0186 23.8809 21.7418C24.0319 22.3206 24.1326 22.8742 24.2332 23.4026ZM26.498 19.477C25.9947 19.6783 25.4411 19.8545 24.8875 20.0055C24.4849 18.7473 23.9816 17.4136 23.3777 16.0799C23.9816 14.7462 24.51 13.4377 24.8875 12.1794C28.3601 13.186 30.4488 14.6959 30.4488 16.105C30.4488 17.2878 28.9892 18.546 26.498 19.477Z" fill="white"/>
</svg>
