<svg width="33" height="33" viewBox="0 0 33 33" fill="none" xmlns="http://www.w3.org/2000/svg">
<path d="M16.1052 8.31396C7.61482 8.31396 0.731445 11.8022 0.731445 16.105C0.731445 20.4078 7.61482 23.8961 16.1052 23.8961C24.5955 23.8961 31.4789 20.4078 31.4789 16.105C31.4789 11.8022 24.5955 8.31396 16.1052 8.31396ZM12.1048 17.6229C11.738 17.9661 11.3305 18.1078 10.8819 18.2538C10.4332 18.4 9.86223 18.3698 9.16795 18.3698H7.59444L7.15835 20.8862H5.32112L6.96056 12.3304H10.4936C11.5565 12.3304 12.3318 12.6361 12.8193 13.194C13.3067 13.7519 13.4531 14.5438 13.2589 15.5436C13.1786 15.9555 13.0435 16.3385 12.8527 16.6798C12.6551 17.0318 12.4026 17.3502 12.1048 17.6229ZM17.4676 18.3698L18.1925 14.7411C18.2751 14.3163 18.2449 14.0008 18.1017 13.8465C17.9583 13.692 17.6533 13.5886 17.187 13.5886H15.73L14.7911 18.3698H12.9682L14.6077 10.0656H16.4305L15.9947 12.3304H17.6185C18.6405 12.3304 19.3451 12.5355 19.7328 12.8918C20.1206 13.2481 20.2369 13.7363 20.0819 14.5345L19.3191 18.3698H17.4676ZM27.5984 15.5569C27.5183 15.9689 27.383 16.3453 27.1925 16.6863C27.0017 17.0278 26.7526 17.3401 26.4448 17.6229C26.0779 17.9661 25.6703 18.1078 25.2219 18.2538C24.7734 18.4 24.202 18.3698 23.5077 18.3698H21.9342L21.4983 20.8862H19.6611L21.3003 12.3304H24.8336C25.8965 12.3304 26.6718 12.6361 27.159 13.194C27.6459 13.7519 27.7926 14.5574 27.5984 15.5569ZM24.1373 13.5886H22.8788L22.1926 17.1116H23.3104C24.0507 17.1116 24.6028 17.0386 24.9652 16.7593C25.3281 16.4805 25.5724 16.0476 25.6995 15.3951C25.8213 14.7683 25.7659 14.2794 25.5334 14.0217C25.3006 13.764 24.8353 13.5886 24.1373 13.5886ZM9.79755 13.5886H8.53885L7.85262 17.1116H8.97016C9.71074 17.1116 10.2626 17.0386 10.6252 16.7593C10.9878 16.4805 11.2324 16.0476 11.3592 15.3951C11.481 14.7683 11.4257 14.2794 11.1932 14.0217C10.9606 13.764 10.4956 13.5886 9.79755 13.5886Z" fill="white"/>
</svg>
