<svg width="33" height="33" viewBox="0 0 33 33" fill="none" xmlns="http://www.w3.org/2000/svg">
<path d="M0.354492 0.354248H31.8559V31.8559H0.354492V0.354248Z" fill="white"/>
<path d="M29.2776 24.3427C29.0469 22.9055 28.1098 21.6984 25.3339 20.5728C24.3696 20.1297 23.2946 19.8124 22.9743 19.0816C22.8605 18.6563 22.8454 18.4168 22.9174 18.1593C23.124 17.3239 24.1213 17.0634 24.9117 17.303C25.4207 17.4736 25.9026 17.8659 26.1933 18.4918C27.5526 17.6115 27.5499 17.6173 28.4991 17.0124C28.1515 16.4736 27.9661 16.225 27.7386 15.9945C26.921 15.0813 25.807 14.611 24.0254 14.6469L23.0973 14.767C22.208 14.9917 21.3605 15.4585 20.8635 16.0843C19.3723 17.7763 19.7976 20.7376 21.6122 21.9563C23.3998 23.2981 26.0259 23.6033 26.3614 24.858C26.6877 26.394 25.2325 26.8913 23.7861 26.7146C22.7201 26.4929 22.1273 25.9511 21.4863 24.966C20.3066 25.6487 20.3066 25.6487 19.0937 26.3462C19.3814 26.9751 19.6836 27.2597 20.1657 27.8045C22.4476 30.1191 28.1578 30.0053 29.182 26.502C29.2235 26.3817 29.4993 25.5795 29.2776 24.3427ZM17.4795 14.8324H14.533L14.5209 22.4501C14.5209 24.0701 14.6047 25.5553 14.3412 26.0105C13.9102 26.9059 12.7932 26.7949 12.2841 26.6213C11.766 26.3666 11.5025 26.0045 11.1973 25.4927C11.1135 25.3457 11.0505 25.232 11.0294 25.2231L8.63379 26.6902C9.03214 27.5078 9.61896 28.2174 10.3706 28.6784C11.4934 29.3523 13.0025 29.5589 14.5808 29.1965C15.608 28.8973 16.4943 28.2776 16.9583 27.3342C17.6292 26.0973 17.4852 24.6003 17.4792 22.9445C17.4943 20.2432 17.4795 17.5423 17.4795 14.8324Z" fill="#323330"/>
</svg>
