<svg width="33" height="33" viewBox="0 0 33 33" fill="none" xmlns="http://www.w3.org/2000/svg">
<path d="M8.54819 5.54371C5.21899 5.54371 2.5214 8.23878 2.5214 11.563C2.5214 12.4135 2.69755 13.2238 3.01713 13.9561C2.22696 14.4191 1.57203 15.0813 1.11767 15.8765C0.663324 16.6718 0.425438 17.5722 0.427751 18.4881C0.427751 21.3769 2.74536 23.7197 5.60652 23.7197C5.97139 23.7197 6.32872 23.682 6.67095 23.609C7.45607 25.7404 9.50191 27.2603 11.9051 27.2603C14.2126 27.2603 16.1905 25.8587 17.0411 23.8606C17.7069 24.1867 18.4387 24.3554 19.18 24.3538C21.012 24.3538 22.6099 23.3448 23.4478 21.85C23.8756 21.9356 24.316 21.9809 24.7664 21.9809C28.4605 21.9809 31.455 18.9587 31.455 15.2319C31.455 11.5076 28.4605 8.48539 24.7664 8.48539C23.8026 8.48539 22.8892 8.69173 22.0613 9.06164C21.1101 7.36558 19.3234 6.22314 17.2751 6.22314C15.7325 6.22314 14.341 6.86985 13.3394 7.91164C12.2398 6.47226 10.5009 5.54119 8.54819 5.54371ZM18.4955 13.1256C18.5887 13.1256 18.6717 13.1307 18.7396 13.1433C18.8076 13.1558 18.8604 13.1684 18.9183 13.186C18.9309 13.1911 18.9661 13.2087 18.951 13.2515L18.8126 13.6289C18.8025 13.6566 18.7925 13.6742 18.7346 13.6566C18.7195 13.6516 18.6969 13.6465 18.6415 13.634C18.5927 13.6233 18.5429 13.6182 18.493 13.6189C18.4201 13.6189 18.3571 13.6289 18.2993 13.6465C18.2439 13.6641 18.1936 13.6943 18.1483 13.7396C18.103 13.7849 18.0501 13.8504 18.0225 13.9309C17.957 14.1196 17.9294 14.3234 17.9268 14.336H18.5031C18.5509 14.336 18.566 14.3587 18.561 14.3939L18.493 14.7689C18.483 14.8242 18.4326 14.8217 18.4326 14.8217H17.8413L17.4361 17.1141C17.3934 17.3507 17.3405 17.5545 17.2776 17.7181C17.2147 17.8842 17.1493 18.005 17.0436 18.1207C16.9454 18.2264 16.8372 18.3069 16.7114 18.3522C16.5881 18.3975 16.4371 18.4202 16.271 18.4202C16.1905 18.4202 16.1075 18.4176 16.0068 18.395C15.9516 18.3815 15.8971 18.3655 15.8433 18.3472C15.8206 18.3371 15.803 18.3094 15.8156 18.2742C15.8282 18.239 15.9338 17.9471 15.9489 17.9093C15.9691 17.864 16.0144 17.8816 16.0144 17.8816C16.0471 17.8942 16.0697 17.9043 16.1125 17.9118C16.1553 17.9194 16.2132 17.9269 16.2559 17.9269C16.334 17.9269 16.4044 17.9169 16.4673 17.8967C16.5428 17.8716 16.5856 17.8288 16.6309 17.7709C16.6787 17.708 16.7164 17.625 16.7567 17.5143C16.797 17.401 16.8347 17.2525 16.8649 17.0714L17.2675 14.8217H16.8699C16.8221 14.8217 16.807 14.799 16.8121 14.7638L16.88 14.3889C16.8901 14.3335 16.9404 14.336 16.9404 14.336H17.3481L17.3707 14.2152C17.4336 13.8554 17.5544 13.5811 17.7331 13.3999C17.9143 13.2187 18.1709 13.1256 18.4955 13.1256ZM10.355 13.181H10.8331C10.8633 13.181 10.8859 13.2062 10.8859 13.2364V17.0739C10.8859 17.1041 10.8633 17.1292 10.8331 17.1292H10.355C10.3248 17.1292 10.3046 17.1041 10.3046 17.0739V13.2364C10.3046 13.2062 10.3248 13.181 10.355 13.181ZM24.8117 14.2756C24.9602 14.2756 25.0936 14.2857 25.2093 14.3033C25.3326 14.3209 25.4962 14.3637 25.5641 14.3914C25.5767 14.3964 25.6119 14.414 25.5968 14.4543C25.5465 14.5952 25.5113 14.6883 25.466 14.8167C25.4459 14.872 25.4031 14.8544 25.4031 14.8544C25.2294 14.799 25.0609 14.7739 24.8419 14.7739C24.5802 14.7739 24.3814 14.862 24.2531 15.0331C24.1222 15.2042 24.0493 15.4307 24.0493 15.7326C24.0493 16.0648 24.1323 16.3089 24.2782 16.4599C24.4267 16.6109 24.6305 16.6864 24.8872 16.6864C24.9929 16.6864 25.091 16.6788 25.1791 16.6662C25.2672 16.6536 25.3477 16.626 25.4257 16.5958C25.4257 16.5958 25.4761 16.5756 25.4937 16.6285L25.627 16.9858C25.6421 17.0311 25.6044 17.0487 25.6044 17.0487C25.4031 17.1267 25.1238 17.1821 24.852 17.1821C24.3915 17.1821 24.0367 17.0487 23.8026 16.787C23.5661 16.5278 23.4478 16.1705 23.4478 15.7301C23.4478 15.5263 23.4755 15.335 23.5334 15.1589C23.5913 14.9827 23.6793 14.8292 23.7926 14.6984C23.9058 14.5675 24.0518 14.4644 24.2204 14.3889C24.389 14.3134 24.5878 14.2756 24.8117 14.2756ZM5.98146 14.2782H6.04437C6.3866 14.2782 6.71625 14.3763 6.95531 14.5222C6.97544 14.5348 6.99809 14.56 6.98551 14.5927C6.97544 14.6229 6.86975 14.9073 6.85717 14.94C6.83452 15.0004 6.77413 14.9601 6.77413 14.9601C6.56527 14.8443 6.24065 14.7538 5.96636 14.7538C5.71975 14.7538 5.56122 14.8846 5.56122 15.0633V15.0733C5.56122 15.2797 5.83551 15.3678 6.15006 15.4709L6.20542 15.4885C6.62566 15.6194 7.07106 15.8031 7.07106 16.3064V16.3164C7.07106 16.86 6.67599 17.1997 6.03934 17.1997C5.72479 17.1997 5.42785 17.1519 5.11078 16.9833C5.05291 16.9481 4.99251 16.9179 4.93463 16.8751C4.9296 16.865 4.90192 16.855 4.92205 16.8046L5.04284 16.4599C5.06297 16.402 5.10827 16.4196 5.12588 16.4322C5.16111 16.4523 5.18628 16.4725 5.23157 16.4976C5.60148 16.7316 5.94371 16.7342 6.05192 16.7342C6.32872 16.7342 6.49984 16.5857 6.49984 16.3894V16.3794C6.49984 16.1655 6.23562 16.0824 5.92861 15.9893L5.86067 15.9692C5.44043 15.8484 4.99251 15.6748 4.99251 15.1438V15.1337C4.99251 14.6304 5.40017 14.2782 5.98146 14.2782ZM8.60607 14.2782C8.96592 14.2782 9.24272 14.3612 9.43145 14.5273C9.6227 14.6908 9.71832 14.9601 9.71832 15.3199V16.9657C9.71832 16.9657 9.72336 17.0135 9.67806 17.0236C9.67806 17.0236 9.61263 17.0412 9.55224 17.0563C9.49185 17.0714 9.27544 17.1141 9.09929 17.1443C8.92062 17.1745 8.73693 17.1896 8.55323 17.1896C8.3934 17.1916 8.23386 17.1756 8.07763 17.1418C7.93419 17.1091 7.81089 17.0563 7.71023 16.9833C7.60957 16.9103 7.53157 16.8147 7.4762 16.7015C7.42084 16.5882 7.39316 16.4498 7.39316 16.2913C7.39316 16.1353 7.42588 15.9943 7.48879 15.8761C7.55421 15.7578 7.64229 15.6571 7.75049 15.5791C7.8587 15.5011 7.98452 15.4432 8.12544 15.4055C8.26636 15.3678 8.41482 15.3476 8.56833 15.3476C8.68156 15.3476 8.77719 15.3501 8.85016 15.3552C8.85016 15.3552 8.99108 15.3678 9.14962 15.3879V15.3124C9.14962 15.0733 9.09929 14.9601 9.00115 14.8846C8.90049 14.8066 8.74951 14.7689 8.55574 14.7689C8.55574 14.7689 8.1204 14.7638 7.77314 14.9525C7.75553 14.9626 7.74294 14.9676 7.74294 14.9676C7.74294 14.9676 7.70017 14.9827 7.68507 14.9375L7.55673 14.5952C7.5366 14.5474 7.57183 14.5248 7.57183 14.5248C7.73288 14.3989 8.12544 14.3234 8.12544 14.3234C8.25377 14.2958 8.47019 14.2782 8.60607 14.2782ZM15.2997 14.2782H15.3626C15.7049 14.2782 16.0345 14.3763 16.2736 14.5222C16.2937 14.5348 16.3163 14.56 16.3038 14.5927C16.2937 14.6229 16.188 14.9073 16.1754 14.94C16.1528 15.0004 16.0924 14.9601 16.0924 14.9601C15.8835 14.8443 15.5589 14.7538 15.2846 14.7538C15.038 14.7538 14.8795 14.8846 14.8795 15.0633V15.0733C14.8795 15.2797 15.1538 15.3678 15.4683 15.4709L15.5237 15.4885C15.9439 15.6194 16.3893 15.8031 16.3893 16.3064V16.3164C16.3893 16.86 15.9942 17.1997 15.3576 17.1997C15.043 17.1997 14.7461 17.1519 14.429 16.9833C14.3712 16.9481 14.3108 16.9179 14.2529 16.8751C14.2479 16.865 14.2202 16.855 14.2403 16.8046L14.3611 16.4599C14.3787 16.4045 14.4316 16.4246 14.4441 16.4322C14.4794 16.4523 14.5045 16.4725 14.5498 16.4976C14.9197 16.7316 15.262 16.7342 15.3702 16.7342C15.647 16.7342 15.8181 16.5857 15.8181 16.3894V16.3794C15.8181 16.1655 15.5539 16.0824 15.2469 15.9893L15.1789 15.9692C14.7587 15.8484 14.3108 15.6748 14.3108 15.1438V15.1337C14.3108 14.6304 14.7184 14.2782 15.2997 14.2782ZM12.7229 14.2832C12.9167 14.2832 13.0928 14.3234 13.2388 14.3864C13.352 14.4342 13.4653 14.5197 13.581 14.6455C13.654 14.7236 13.7647 14.8947 13.81 15.0658C13.9258 15.4709 13.8654 15.8207 13.8654 15.8459C13.8603 15.8937 13.8125 15.8937 13.8125 15.8937L12.0133 15.8912C12.0234 16.1655 12.0888 16.3592 12.2221 16.4901C12.3505 16.6184 12.5568 16.7015 12.8361 16.7015C13.2614 16.7015 13.4451 16.6159 13.5735 16.5681C13.5735 16.5681 13.6238 16.5505 13.6414 16.5983L13.7597 16.9279C13.7823 16.9833 13.7647 17.0034 13.7446 17.0135C13.6313 17.0739 13.357 17.1896 12.8387 17.1922C12.587 17.1922 12.3681 17.1569 12.1869 17.0865C12.0032 17.016 11.8522 16.9153 11.734 16.787C11.6138 16.6557 11.5244 16.4992 11.4723 16.329C11.4174 16.1428 11.3903 15.9494 11.3917 15.7553C11.3917 15.5515 11.4169 15.3577 11.4697 15.1815C11.5226 15.0054 11.6056 14.8469 11.7138 14.716C11.8246 14.5826 11.963 14.4769 12.129 14.3989C12.2951 14.3209 12.499 14.2832 12.7229 14.2832ZM19.9123 14.2832C20.1262 14.2832 20.3199 14.3209 20.481 14.3964C20.6446 14.4719 20.7804 14.5751 20.8886 14.7059C20.9969 14.8343 21.0774 14.9903 21.1302 15.1664C21.1831 15.3401 21.2082 15.5338 21.2082 15.7377C21.2082 15.9415 21.1831 16.1327 21.1302 16.3089C21.0774 16.485 20.9969 16.6411 20.8886 16.7694C20.7804 16.8977 20.642 17.0034 20.481 17.0764C20.3199 17.1494 20.1287 17.1871 19.9123 17.1871C19.6984 17.1871 19.5071 17.1494 19.3436 17.0764C19.186 17.0066 19.0465 16.9016 18.9359 16.7694C18.8277 16.6411 18.7472 16.485 18.6943 16.3089C18.6407 16.1233 18.6144 15.9309 18.6163 15.7377C18.6163 15.5338 18.6415 15.3426 18.6943 15.1664C18.7472 14.9903 18.8277 14.8368 18.9359 14.7059C19.0441 14.5776 19.18 14.4719 19.3436 14.3964C19.5046 14.3209 19.6959 14.2832 19.9123 14.2832ZM27.1218 14.2832C27.3156 14.2832 27.4917 14.3234 27.6377 14.3864C27.7509 14.4342 27.8641 14.5197 27.9799 14.6455C28.0554 14.7236 28.1661 14.8947 28.2114 15.0658C28.3271 15.4709 28.2668 15.8207 28.2642 15.8459C28.2592 15.8937 28.2114 15.8937 28.2114 15.8937L26.4122 15.8912C26.4222 16.1655 26.4877 16.3592 26.621 16.4901C26.7494 16.6184 26.9557 16.7015 27.235 16.7015C27.6603 16.7015 27.844 16.6159 27.9723 16.5681C27.9723 16.5681 28.0227 16.5505 28.0403 16.5983L28.1585 16.9279C28.1812 16.9833 28.1636 17.0034 28.1434 17.0135C28.0302 17.0739 27.7559 17.1896 27.2375 17.1922C26.9859 17.1922 26.767 17.1569 26.5858 17.0865C26.4021 17.016 26.2511 16.9153 26.1328 16.787C26.0146 16.6587 25.9265 16.5052 25.8711 16.329C25.8163 16.1428 25.7891 15.9494 25.7906 15.7553C25.7906 15.5515 25.8158 15.3577 25.8686 15.1815C25.9215 15.0054 26.0045 14.8469 26.1127 14.716C26.2234 14.5826 26.3618 14.4769 26.5279 14.3989C26.694 14.3209 26.8978 14.2832 27.1218 14.2832ZM22.8728 14.3101C22.9181 14.3076 22.9685 14.3076 23.0251 14.3106C23.1433 14.3182 23.2968 14.3511 23.327 14.3637C23.3396 14.3687 23.3673 14.3889 23.3547 14.4291C23.3371 14.4769 23.249 14.7236 23.2214 14.8041C23.2088 14.8343 23.1912 14.8569 23.1559 14.8519C23.1559 14.8519 23.0502 14.8267 22.9571 14.8267C22.8917 14.8267 22.7986 14.8368 22.7156 14.862C22.635 14.8871 22.5595 14.9324 22.4941 14.9953C22.4287 15.0582 22.3733 15.1488 22.3356 15.2596C22.2953 15.3728 22.2752 15.554 22.2752 15.7326V17.0739C22.2752 17.1041 22.25 17.1292 22.2198 17.1292H21.7467C21.7165 17.1292 21.6914 17.1041 21.6914 17.0739V14.3914C21.6914 14.3612 21.714 14.336 21.7442 14.336H22.2047C22.2349 14.336 22.2576 14.3612 22.2576 14.3914V14.6103C22.328 14.5172 22.4513 14.4367 22.5621 14.3864C22.6451 14.3486 22.7367 14.3179 22.8728 14.3101ZM12.6801 14.754C12.4436 14.754 12.2773 14.8469 12.1665 15.0155C12.0936 15.1262 12.0457 15.2696 12.0206 15.4407H13.3014C13.2889 15.2746 13.2561 15.1262 13.1832 15.0155C13.0724 14.8469 12.9164 14.7538 12.6799 14.7538L12.6801 14.754ZM27.084 14.754C26.8475 14.754 26.6812 14.8469 26.5704 15.0155C26.4975 15.1262 26.4497 15.2696 26.4245 15.4407H27.7053C27.6928 15.2746 27.6626 15.1262 27.5871 15.0155C27.4763 14.8469 27.3203 14.7538 27.0838 14.7538L27.084 14.754ZM19.9123 14.7686C19.6757 14.7686 19.5071 14.8491 19.3964 15.0177C19.2832 15.1888 19.2278 15.4304 19.2278 15.7374C19.2278 16.0444 19.2857 16.2888 19.3964 16.4599C19.5071 16.6285 19.6757 16.7115 19.9123 16.7115C20.1463 16.7115 20.3172 16.6285 20.4279 16.4599C20.5411 16.2888 20.599 16.0447 20.599 15.7377C20.599 15.4281 20.5411 15.1866 20.4304 15.018C20.3172 14.8494 20.1486 14.7689 19.912 14.7689L19.9123 14.7686ZM8.65892 15.8003C8.29152 15.7953 8.13525 15.9317 8.13777 15.9317C8.02956 16.0072 7.97672 16.1199 7.97672 16.2784C7.97672 16.3791 7.99433 16.4571 8.02956 16.5125C8.05221 16.5477 8.06228 16.5628 8.13274 16.6182C8.13274 16.6182 8.29379 16.747 8.66118 16.7269C8.91785 16.7093 9.14685 16.6614 9.14685 16.6614V15.8436C9.14685 15.8436 8.91559 15.8028 8.65892 15.8003Z" fill="white"/>
</svg>
