<svg width="33" height="33" viewBox="0 0 33 33" fill="none" xmlns="http://www.w3.org/2000/svg">
<path d="M27.1831 4.02637H15.5527C15.5527 6.92527 17.9 9.27257 20.7987 9.27257H22.9376V11.3426C22.9376 14.2415 25.2849 16.5888 28.1838 16.5888V5.02714C28.1838 4.76174 28.0783 4.50723 27.8906 4.31956C27.703 4.13189 27.4485 4.02643 27.1831 4.02637Z" fill="white"/>
<path d="M21.4201 9.82398H9.78955C9.78955 12.7226 12.1361 15.0699 15.0347 15.0699H17.1747V17.1399C17.1747 20.0388 19.522 22.3861 22.4209 22.3861V10.8245C22.4205 10.5592 22.3149 10.3049 22.1273 10.1173C21.9397 9.9297 21.6854 9.82438 21.4201 9.82398Z" fill="white"/>
<path d="M15.6569 15.6213H4.02637C4.02637 18.5202 6.37266 20.8675 9.27156 20.8675H11.4115V22.9375C11.4115 25.8374 13.7588 28.1837 16.6575 28.1837V16.6231C16.6572 16.3578 16.5517 16.1033 16.3642 15.9156C16.1766 15.7278 15.9223 15.6219 15.6569 15.6213Z" fill="white"/>
</svg>
