<svg width="33" height="33" viewBox="0 0 33 33" fill="none" xmlns="http://www.w3.org/2000/svg">
<path d="M29.4287 24.6121C27.7017 24.5651 26.3829 24.7259 25.2553 25.2012C24.9349 25.3364 24.4236 25.3401 24.3713 25.7415C24.5474 25.926 24.5748 26.2018 24.7148 26.4287C24.984 26.8641 25.4385 27.4484 25.8441 27.7544C26.2875 28.0891 26.7442 28.4466 27.2193 28.7363C28.0643 29.2514 29.0077 29.5458 29.8213 30.0619C30.3009 30.3664 30.7773 30.7497 31.2451 31.0929C31.4766 31.2628 31.6319 31.5267 31.9326 31.6332V31.5844C31.7745 31.383 31.7338 31.1067 31.5888 30.8966L30.9504 30.2582C30.3263 29.4298 29.5339 28.7021 28.6917 28.0979C28.0201 27.6157 26.517 26.9645 26.2369 26.1831L26.1879 26.1341C26.664 26.0802 27.2213 25.9081 27.661 25.7901C28.3993 25.5923 29.0591 25.6434 29.8213 25.4466L30.8523 25.1519V24.9556C30.467 24.5603 30.1922 24.0369 29.7722 23.6791C28.6726 22.743 27.4727 21.8076 26.2372 21.0275C25.5517 20.5952 24.7049 20.3141 23.9785 19.9475C23.7341 19.8239 23.3048 19.7598 23.1435 19.5544C22.7618 19.0683 22.5542 18.4517 22.26 17.8853C21.6437 16.6983 21.0385 15.4021 20.4925 14.1532C20.12 13.3017 19.8767 12.4622 19.4122 11.6982C17.1826 8.03255 14.783 5.82038 11.0655 3.6457C10.2744 3.18318 9.3219 3.00075 8.31533 2.76169C7.77557 2.72922 7.23529 2.69626 6.69527 2.6633C6.36537 2.5259 6.02264 2.12252 5.71337 1.92674C4.48184 1.14867 1.32275 -0.543613 0.4108 1.68139C-0.165205 3.0858 1.27166 4.45573 1.78526 5.16762C2.14611 5.66637 2.60787 6.22627 2.86555 6.78768C3.03516 7.15684 3.06435 7.527 3.20955 7.9173C3.56612 8.87907 3.8769 9.92539 4.33866 10.8139C4.57193 11.2639 4.82911 11.7375 5.12428 12.1396C5.30496 12.3864 5.61523 12.4951 5.66405 12.8761C5.36107 13.3004 5.34371 13.9592 5.17335 14.4967C4.40585 16.9162 4.69548 19.9238 5.81176 21.7145C6.15399 22.2646 6.961 23.4435 8.07024 22.9911C9.04056 22.596 8.8239 21.371 9.10146 20.2905C9.16412 20.0456 9.12562 19.8654 9.24867 19.7014V19.7504L10.1327 21.518C10.7869 22.5716 11.9475 23.6725 12.9314 24.4154C13.4415 24.8006 13.8431 25.4665 14.5027 25.6919V25.6426H14.4536C14.3258 25.4436 14.1257 25.361 13.9627 25.201C13.5784 24.8243 13.1511 24.356 12.8335 23.9244C11.9387 22.7097 11.1481 21.3803 10.4276 19.9966C10.0834 19.3355 9.78416 18.6067 9.49427 17.9341C9.38254 17.6749 9.38405 17.2826 9.15103 17.1485C8.83321 17.6412 8.36541 18.0398 8.11981 18.6216C7.727 19.5517 7.67642 20.686 7.53072 21.8622C7.44466 21.8929 7.48291 21.8718 7.43233 21.911C6.74837 21.7462 6.5083 21.0424 6.2539 20.4382C5.61121 18.9107 5.49168 16.4517 6.05736 14.6935C6.20382 14.2383 6.86513 12.8059 6.59738 12.3854C6.46955 11.9662 6.0478 11.7236 5.81201 11.4033C5.51986 11.0072 5.22846 10.4858 5.02589 10.0283C4.49996 8.8378 4.25436 7.50083 3.7005 6.29699C3.43552 5.72148 2.98785 5.13894 2.6202 4.6276C2.2133 4.06066 1.75733 3.64318 1.44177 2.95797C1.32954 2.71438 1.1773 2.32434 1.34338 2.07395C1.39622 1.9051 1.47121 1.83464 1.63805 1.77953C1.92291 1.55985 2.71608 1.85251 3.01251 1.97556C3.7999 2.30269 4.45718 2.61423 5.12428 3.05611C5.44412 3.26849 5.76823 3.67892 6.15525 3.79266H6.59713C7.28839 3.95144 8.06269 3.84173 8.70865 4.03801C9.85009 4.38477 10.873 4.92454 11.8018 5.51111C14.6318 7.29826 16.9459 9.84185 18.5287 12.8764C18.7833 13.3651 18.8936 13.8311 19.1178 14.3495C19.5702 15.3945 20.1402 16.4698 20.5904 17.492C21.0398 18.5116 21.4776 19.5406 22.1128 20.3891C22.4467 20.835 23.7361 21.0743 24.3224 21.3222C24.7331 21.4956 25.4063 21.6768 25.7956 21.911C26.5386 22.3595 27.2588 22.8932 27.9561 23.3844C28.3042 23.6297 29.3754 24.1685 29.4287 24.6121ZM7.48089 5.90493C7.1208 5.89814 6.86614 5.94419 6.59688 6.00282V6.05189H6.64595C6.81782 6.40469 7.12105 6.63217 7.33318 6.9359C7.49675 7.27989 7.66057 7.62338 7.82438 7.96687L7.8732 7.91831C8.17744 7.70366 8.31659 7.36117 8.31483 6.83776C8.19304 6.70968 8.17517 6.54913 8.06948 6.39613C7.92957 6.19205 7.65805 6.07605 7.48089 5.90493Z" fill="white"/>
</svg>
