<svg width="37" height="37" viewBox="0 0 37 37" fill="none" xmlns="http://www.w3.org/2000/svg">
<path d="M31.5627 10.1963C31.5627 14.2142 25.5478 17.4724 18.13 17.4724C10.7121 17.4724 4.69727 14.2142 4.69727 10.1963C4.69727 6.17847 10.7121 2.92029 18.13 2.92029C25.5478 2.92029 31.5627 6.17847 31.5627 10.1963Z" fill="white"/>
<path d="M18.13 19.7112C22.1374 19.7112 25.8762 18.8366 28.6941 17.3097C29.7311 16.7591 30.6845 16.0636 31.5254 15.244C31.5493 15.4246 31.5627 15.6082 31.5627 15.7933C31.5627 19.8112 25.5478 23.0694 18.13 23.0694C10.7121 23.0694 4.69727 19.8112 4.69727 15.7933C4.69727 15.6082 4.7107 15.4246 4.73458 15.244C5.57549 16.0635 6.52884 16.7591 7.5659 17.3097C10.3823 18.8366 14.1226 19.7112 18.13 19.7112Z" fill="white"/>
<path d="M18.13 25.3082C22.1374 25.3082 25.8762 24.4336 28.6941 22.9067C29.7312 22.3561 30.6845 21.6606 31.5254 20.841C31.5493 21.0216 31.5627 21.2052 31.5627 21.3903C31.5627 25.4082 25.5478 28.6664 18.13 28.6664C10.7121 28.6664 4.69727 25.4082 4.69727 21.3903C4.69727 21.2052 4.7107 21.0216 4.73458 20.841C5.57548 21.6605 6.52883 22.3561 7.5659 22.9067C10.3823 24.4336 14.1226 25.3082 18.13 25.3082Z" fill="white"/>
<path d="M18.13 30.9051C22.1374 30.9051 25.8762 30.0305 28.6941 28.5037C29.7312 27.9531 30.6845 27.2575 31.5254 26.438C31.5493 26.6186 31.5627 26.8022 31.5627 26.9873C31.5627 31.0051 25.5478 34.2633 18.13 34.2633C10.7121 34.2633 4.69727 31.0051 4.69727 26.9873C4.69727 26.8022 4.7107 26.6186 4.73458 26.438C5.57548 27.2575 6.52883 27.953 7.5659 28.5037C10.3823 30.0305 14.1226 30.9051 18.13 30.9051Z" fill="white"/>
</svg>
