<svg width="33" height="33" viewBox="0 0 33 33" fill="none" xmlns="http://www.w3.org/2000/svg">
<path d="M6.85341 3.49414C5.04738 3.49414 3.71142 5.07545 3.77106 6.79038C3.82844 8.43762 3.75395 10.5715 3.2167 12.3114C2.67819 14.0568 1.76725 15.1597 0.279297 15.3016V16.9088C1.76725 17.0505 2.67819 18.1537 3.2167 19.8991C3.75395 21.6389 3.82818 23.7729 3.77106 25.4201C3.71117 27.135 5.04738 28.7161 6.85341 28.7161H25.3591C27.1651 28.7161 28.501 27.1348 28.4414 25.4201C28.384 23.7729 28.4585 21.6389 28.9955 19.8991C29.534 18.154 30.4427 17.0508 31.9307 16.9088V15.3016C30.4427 15.1599 29.5343 14.0568 28.9955 12.3114C28.4585 10.5715 28.384 8.43762 28.4414 6.79038C28.501 5.07545 27.1651 3.49414 25.3588 3.49414H6.85341ZM21.4773 19.0168C21.4773 21.3782 19.7153 22.8098 16.7915 22.8098H11.4008C11.368 22.8098 11.3366 22.7968 11.3134 22.7736C11.2903 22.7505 11.2772 22.719 11.2772 22.6863V9.51892C11.2772 9.50267 11.2804 9.48658 11.2866 9.47156C11.2928 9.45654 11.3019 9.44289 11.3133 9.43139C11.3248 9.41989 11.3385 9.41077 11.3535 9.40454C11.3685 9.39832 11.3846 9.39511 11.4008 9.39511H16.763C19.2012 9.39511 20.8011 10.7152 20.8011 12.7419C20.8011 14.1645 19.7248 15.4378 18.3534 15.661V15.7354C20.2201 15.94 21.4773 17.2322 21.4773 19.0168ZM16.2487 11.0965H13.4107V15.1031H15.8012C17.6488 15.1031 18.6677 14.3595 18.6677 13.0301C18.6677 11.7844 17.7917 11.0965 16.2487 11.0965ZM13.4107 16.6929V21.1087H16.3536C18.2774 21.1087 19.2965 20.3372 19.2965 18.8867C19.2965 17.4365 18.249 16.6929 16.2298 16.6929H13.4107Z" fill="white"/>
</svg>
