<svg width="33" height="33" viewBox="0 0 33 33" fill="none" xmlns="http://www.w3.org/2000/svg">
<path fill-rule="evenodd" clip-rule="evenodd" d="M16.1048 1.28418C7.71331 1.28418 0.908691 8.08728 0.908691 16.4803C0.908691 23.1945 5.26283 28.8904 11.3007 30.9C12.0599 31.0409 12.3387 30.5704 12.3387 30.169C12.3387 29.8066 12.3246 28.6096 12.3181 27.3398C8.09051 28.259 7.19845 25.5469 7.19845 25.5469C6.50719 23.7904 5.5112 23.3234 5.5112 23.3234C4.13221 22.3802 5.61513 22.3998 5.61513 22.3998C7.14082 22.5068 7.94456 23.9658 7.94456 23.9658C9.2999 26.2885 11.4995 25.6171 12.3666 25.229C12.503 24.2469 12.8969 23.5763 13.3314 23.1968C9.95618 22.813 6.40779 21.5098 6.40779 15.6871C6.40779 14.028 7.00167 12.6724 7.97375 11.608C7.81572 11.2255 7.29558 9.67992 8.12071 7.58677C8.12071 7.58677 9.39653 7.17836 12.3005 9.14443C13.5129 8.80748 14.8131 8.63813 16.1048 8.63234C17.3957 8.63813 18.6967 8.80698 19.9113 9.14392C22.8117 7.17785 24.0861 7.58627 24.0861 7.58627C24.9132 9.67916 24.3931 11.225 24.2353 11.6075C25.2096 12.6719 25.7992 14.0275 25.7992 15.6866C25.7992 21.5231 22.2443 22.808 18.8605 23.1845C19.4058 23.656 19.8915 24.5811 19.8915 25.9986C19.8915 28.0318 19.8738 29.6682 19.8738 30.1687C19.8738 30.5731 20.1476 31.047 20.9176 30.8978C26.952 28.8861 31.3011 23.192 31.3011 16.4803C31.3008 8.08779 24.497 1.28418 16.1048 1.28418Z" fill="white"/>
<path d="M6.66408 23.1022C6.63061 23.1777 6.51184 23.2003 6.40363 23.1488C6.29291 23.0994 6.23126 22.9965 6.26699 22.9208C6.2997 22.8428 6.41873 22.8214 6.5287 22.8735C6.63942 22.923 6.70233 23.027 6.66383 23.1025L6.66408 23.1022ZM7.27959 23.7889C7.20737 23.8561 7.0657 23.8249 6.96957 23.7185C6.86992 23.6128 6.8513 23.4711 6.92503 23.4029C7.00002 23.336 7.13742 23.3677 7.23706 23.4734C7.33621 23.5806 7.35584 23.721 7.27984 23.7892L7.27959 23.7889ZM7.879 24.6639C7.78589 24.7288 7.6334 24.6682 7.53929 24.533C7.44618 24.3977 7.44618 24.2353 7.5418 24.1707C7.63566 24.1058 7.78589 24.1644 7.88152 24.2983C7.97412 24.4354 7.97412 24.598 7.879 24.6639ZM8.6996 25.5097C8.61656 25.6015 8.4389 25.5768 8.30905 25.4518C8.17644 25.3292 8.13945 25.1548 8.22274 25.0632C8.30729 24.9711 8.48571 24.9968 8.61631 25.1211C8.74892 25.2434 8.78893 25.4181 8.7001 25.5094L8.6996 25.5097ZM9.83198 26.0006C9.79499 26.1196 9.62438 26.1737 9.45201 26.1229C9.28013 26.0708 9.16765 25.9317 9.20288 25.8114C9.23811 25.6913 9.40998 25.6352 9.58336 25.6893C9.75523 25.7412 9.86772 25.8796 9.83198 26.0006ZM11.0758 26.0914C11.0801 26.2168 10.9342 26.3204 10.7537 26.323C10.5718 26.3272 10.4246 26.2256 10.4228 26.1023C10.4228 25.9757 10.5658 25.8733 10.7475 25.8698C10.9279 25.8665 11.0761 25.9671 11.0761 26.0912L11.0758 26.0914ZM12.2329 25.8947C12.2545 26.0167 12.129 26.1423 11.9495 26.1757C11.7734 26.2085 11.6098 26.1325 11.5872 26.0114C11.5655 25.8861 11.6934 25.7605 11.8695 25.7281C12.0492 25.6971 12.2102 25.7706 12.2329 25.8947Z" fill="white"/>
</svg>
