<svg width="33" height="33" viewBox="0 0 33 33" fill="none" xmlns="http://www.w3.org/2000/svg">
<g clip-path="url(#clip0_123_1124)">
<path d="M29.1779 0.69983C27.7928 -0.534719 26.1179 -0.0382322 24.4626 1.43009C24.2078 1.65911 23.9628 1.89889 23.7283 2.14878C20.8984 5.15085 18.2718 10.7096 17.4559 14.956C17.7735 15.601 18.0221 16.4236 18.1862 17.0517C18.268 17.3632 18.3415 17.6778 18.4064 17.9943C18.4064 17.9943 18.381 17.899 18.2768 17.5972L18.2099 17.4017C18.1961 17.3656 18.1813 17.3298 18.1656 17.2945C17.9809 16.865 17.4708 15.9586 17.2456 15.5645C17.0671 16.0872 16.8986 16.6132 16.7403 17.1423C17.39 18.3285 17.7843 20.3633 17.7843 20.3633C17.7843 20.3633 17.7509 20.2307 17.5875 19.7707C17.4441 19.3638 16.7227 18.1005 16.5515 17.8056C16.2596 18.8851 16.1439 19.6124 16.2478 19.7893C16.4524 20.1323 16.6449 20.7261 16.814 21.3807C17.1985 22.8573 17.4647 24.656 17.4647 24.656L17.4884 24.956C17.4373 26.1855 17.4627 27.4173 17.5631 28.644C17.691 30.1823 17.9298 31.5024 18.2345 32.2103L18.4419 32.097C17.9937 30.7042 17.8118 28.878 17.8923 26.7736C18.0123 23.5551 18.7534 19.6735 20.1208 15.6284C22.4336 9.52336 25.6413 4.62341 28.5764 2.2829C25.9015 4.6989 22.2796 12.5234 21.1953 15.4193C19.9814 18.6622 19.1223 21.7045 18.6039 24.6205C19.4985 21.887 22.3894 20.7133 22.3894 20.7133C22.3894 20.7133 23.8079 18.9634 25.4652 16.4649C24.4724 16.6908 22.8416 17.0791 22.295 17.3081C21.4897 17.6453 21.2726 17.7603 21.2726 17.7603C21.2726 17.7603 23.8823 16.172 26.1217 15.4523C29.2003 10.6031 32.5551 3.71448 29.1779 0.69983ZM4.25185 1.42959C2.8935 1.43462 1.79333 2.53429 1.78955 3.8929V26.1817C1.79358 27.5401 2.89425 28.639 4.25185 28.644H16.891C16.7965 27.4354 16.7733 26.2222 16.8213 25.0108C16.8135 24.9273 16.8065 24.8211 16.7997 24.7423C16.6362 23.6694 16.4244 22.6043 16.1648 21.5505C16.0025 20.9197 15.7961 20.3454 15.6703 20.1323C15.514 19.8678 15.5384 19.7163 15.5394 19.5522C15.5394 19.3912 15.5601 19.2239 15.5898 19.0341C15.6693 18.5615 15.7735 18.0935 15.9033 17.6315L16.1942 17.5942C16.1716 17.5469 16.1756 17.5067 16.1529 17.4644L16.0978 16.9533C16.2589 16.4155 16.429 15.8808 16.6112 15.3501L16.8794 15.3244C16.8686 15.3038 16.8656 15.2733 16.8548 15.254L16.7969 14.83C17.6432 10.4272 20.2695 4.84007 23.2391 1.68953C23.3277 1.59643 23.4181 1.51766 23.5046 1.42908L4.25185 1.42959Z" fill="white"/>
</g>
<defs>
<clipPath id="clip0_123_1124">
<rect width="32.21" height="32.21" fill="white"/>
</clipPath>
</defs>
</svg>
