<svg width="33" height="33" viewBox="0 0 33 33" fill="none" xmlns="http://www.w3.org/2000/svg">
<path d="M12.4133 15.6016H19.7509C21.7935 15.6016 23.4025 13.8734 23.4025 11.8222V4.82712C23.4025 2.83614 21.7336 1.34039 19.7399 1.00822C18.4781 0.798105 17.1744 0.702481 15.9182 0.708521C14.6625 0.714308 13.4994 0.821256 12.4443 1.00822C9.33527 1.55705 8.80733 2.70705 8.80733 4.82712V7.54912H16.1049V8.55568H5.98291C3.84799 8.55568 1.9783 9.84106 1.39374 12.2827C0.719093 15.081 0.689148 16.7919 1.39374 19.7137C1.9159 21.8884 3.16278 23.4025 5.29795 23.4025H7.80076V20.1191C7.80076 17.694 9.92159 15.6016 12.4133 15.6016ZM11.9508 5.75995C11.1894 5.75995 10.5723 5.13614 10.5723 4.36461C10.5723 3.58981 11.1891 2.9602 11.9508 2.9602C12.7095 2.9602 13.3296 3.58981 13.3296 4.36461C13.3293 5.13614 12.7093 5.75995 11.9508 5.75995ZM30.7708 12.2827C30.2428 10.1569 29.235 8.55568 27.0971 8.55568H24.409V11.8222C24.409 14.3512 22.1961 16.3565 19.7509 16.3565H12.4133C10.4032 16.3565 8.80733 18.2001 8.80733 20.2132V27.2088C8.80733 29.1993 10.5046 30.3704 12.4466 30.9416C14.7722 31.6253 16.9746 31.7489 19.757 30.9416C21.6063 30.4059 23.4025 29.3284 23.4025 27.2088V24.409H16.1049V23.4025H27.0971C29.232 23.4025 30.0279 21.949 30.7708 19.7134C31.5375 17.4122 31.5046 15.2345 30.7708 12.2827ZM20.2132 26.2755C20.9749 26.2755 21.5919 26.8993 21.5919 27.6713C21.5919 28.4454 20.9752 29.0752 20.2132 29.0752C19.4545 29.0752 18.8347 28.4456 18.8347 27.6713C18.8347 26.8993 19.4545 26.2755 20.2132 26.2755Z" fill="white"/>
</svg>
