<svg width="33" height="33" viewBox="0 0 33 33" fill="none" xmlns="http://www.w3.org/2000/svg">
<path d="M2.20459 0.251709L4.73484 28.6577L16.0884 31.8233L27.4736 28.6461L30.0058 0.251709H2.20459ZM24.7493 6.75964L23.9071 16.2226L23.9096 16.2737L23.9061 16.3912V16.3902L23.3077 23.0068L23.2417 23.5946L16.1052 25.5685L16.0997 25.5735L8.97548 23.5886L8.49309 18.1182H11.9866L12.2345 20.8998L16.1062 21.9492L16.1052 21.9512V21.9507L19.9913 20.8865L20.402 16.3567H12.2783L12.2086 15.591L12.0498 13.797L11.9665 12.8337H20.7107L21.0288 9.31077H7.71049L7.64078 8.54553L7.48225 6.75108L7.3987 5.7878H24.8326L24.7493 6.75964Z" fill="white"/>
</svg>
