<svg width="409" height="356" viewBox="0 0 409 356" fill="none" xmlns="http://www.w3.org/2000/svg">
<g clip-path="url(#clip0_344_6459)">
<path d="M368.354 185.186C368.407 229.217 351.388 271.555 320.873 303.299C319.034 305.225 317.144 307.105 315.205 308.938C312.251 311.748 309.198 314.449 306.045 317.041C276.554 341.338 239.738 354.992 201.535 355.799C200.263 355.827 198.985 355.842 197.702 355.842C167.235 355.842 128.915 339.568 94.1387 317.041C91.2615 315.177 88.41 313.27 85.5841 311.32C84.2632 310.417 82.9487 309.501 81.6406 308.573C68.228 299.102 55.4968 288.701 43.5409 277.447C35.7129 270.101 28.3723 262.252 21.5658 253.95C-5.15489 220.99 -11.0485 191.291 27.0464 185.186C31.5567 184.465 35.9341 183.695 40.1786 182.875C46.3268 181.694 52.2108 180.418 57.8307 179.047C65.4006 177.208 72.5127 175.213 79.1669 173.062C81.4052 172.342 83.5923 171.607 85.7282 170.858C117.305 159.767 138.439 145.304 152.825 129.612C155.265 126.956 157.515 124.267 159.574 121.547C162.724 117.406 165.586 113.054 168.138 108.521C171.661 102.221 174.62 95.6233 176.981 88.803L177.111 88.4284C188.557 55.4105 185.075 24.7848 197.702 14.5345C251.682 -29.2859 318.885 33.1185 350.428 106.71C352.018 110.418 353.513 114.148 354.914 117.901C355.543 119.578 356.15 121.257 356.735 122.94C358.272 127.325 359.666 131.722 360.918 136.13C361.399 137.811 361.857 139.491 362.292 141.168C362.758 142.979 363.205 144.785 363.618 146.591C366.687 159.815 368.354 172.856 368.354 185.186Z" fill="#F2F2F2"/>
<path d="M201.535 355.799C200.263 355.827 198.985 355.842 197.702 355.842C167.235 355.842 128.914 339.568 94.1386 317.041C91.2615 315.177 88.4099 313.27 85.584 311.32L88.0625 296.238L163.095 286.276L200.752 315.072L201.535 355.799Z" fill="#2F2E41"/>
<path d="M205.147 86.483H194.455C194.124 86.4832 193.807 86.6148 193.572 86.849C193.338 87.0831 193.207 87.4007 193.207 87.7318V98.4287C193.207 98.5925 193.239 98.7546 193.302 98.9057C193.365 99.0569 193.457 99.1942 193.573 99.3098C193.689 99.4253 193.827 99.5168 193.978 99.5791C194.129 99.6415 194.292 99.6733 194.455 99.6728H205.147C205.478 99.673 205.795 99.5421 206.029 99.3089C206.263 99.0757 206.395 98.7592 206.396 98.4287V87.7318C206.395 87.4009 206.263 87.0838 206.029 86.8498C205.795 86.6158 205.478 86.484 205.147 86.483Z" fill="#F5F5F5"/>
<path d="M205.147 104.711H194.455C194.124 104.712 193.807 104.843 193.572 105.077C193.338 105.312 193.207 105.629 193.207 105.96V116.657C193.207 116.821 193.239 116.983 193.302 117.134C193.365 117.285 193.457 117.423 193.573 117.538C193.689 117.654 193.827 117.745 193.978 117.808C194.129 117.87 194.292 117.902 194.455 117.901H205.147C205.478 117.901 205.795 117.771 206.029 117.537C206.263 117.304 206.395 116.988 206.396 116.657V105.96C206.395 105.629 206.263 105.312 206.029 105.078C205.795 104.844 205.478 104.712 205.147 104.711Z" fill="#E6E6E6"/>
<path d="M205.147 122.94H194.455C194.124 122.94 193.807 123.072 193.572 123.306C193.338 123.54 193.207 123.858 193.207 124.189V134.881C193.206 135.045 193.238 135.208 193.301 135.359C193.364 135.511 193.456 135.649 193.572 135.765C193.688 135.881 193.825 135.973 193.977 136.035C194.129 136.098 194.291 136.13 194.455 136.13H205.147C205.479 136.13 205.796 135.998 206.03 135.764C206.265 135.53 206.396 135.212 206.396 134.881V124.189C206.395 123.858 206.263 123.541 206.029 123.307C205.795 123.073 205.478 122.941 205.147 122.94Z" fill="#E6E6E6"/>
<path d="M206.377 142.196C206.324 141.909 206.172 141.649 205.947 141.461C205.723 141.273 205.44 141.17 205.147 141.168H194.455C194.124 141.169 193.807 141.3 193.572 141.534C193.338 141.769 193.207 142.086 193.207 142.417V153.109C193.206 153.274 193.238 153.436 193.301 153.588C193.364 153.739 193.456 153.877 193.572 153.993C193.688 154.109 193.825 154.201 193.977 154.264C194.129 154.327 194.291 154.359 194.455 154.358H205.147C205.479 154.358 205.796 154.227 206.03 153.992C206.265 153.758 206.396 153.441 206.396 153.109V142.417C206.397 142.343 206.391 142.269 206.377 142.196Z" fill="#E6E6E6"/>
<path d="M205.633 159.493C205.479 159.429 205.314 159.397 205.147 159.397H194.455C194.291 159.397 194.129 159.429 193.977 159.491C193.825 159.554 193.688 159.646 193.572 159.762C193.456 159.878 193.364 160.016 193.301 160.168C193.238 160.319 193.206 160.482 193.207 160.646V171.338C193.206 171.502 193.238 171.665 193.3 171.817C193.363 171.969 193.455 172.107 193.571 172.223C193.687 172.339 193.825 172.431 193.977 172.493C194.128 172.556 194.291 172.588 194.455 172.587H205.147C205.479 172.587 205.796 172.455 206.03 172.221C206.265 171.987 206.396 171.669 206.396 171.338V160.646C206.396 160.4 206.323 160.16 206.187 159.955C206.052 159.75 205.859 159.589 205.633 159.493Z" fill="#E6E6E6"/>
<path d="M227.608 86.4832H216.916C216.585 86.4833 216.267 86.6149 216.033 86.8491C215.799 87.0832 215.667 87.4008 215.667 87.7319V98.4289C215.667 98.5926 215.7 98.7547 215.762 98.9058C215.825 99.057 215.917 99.1943 216.033 99.3099C216.149 99.4254 216.287 99.517 216.438 99.5793C216.59 99.6416 216.752 99.6734 216.916 99.673H227.608C227.938 99.6731 228.255 99.5422 228.489 99.309C228.724 99.0758 228.856 98.7593 228.857 98.4289V87.7319C228.856 87.401 228.724 87.0839 228.49 86.85C228.256 86.616 227.939 86.4841 227.608 86.4832Z" fill="#E6E6E6"/>
<path d="M227.608 104.711H216.916C216.585 104.712 216.267 104.843 216.033 105.077C215.799 105.312 215.667 105.629 215.667 105.96V116.657C215.667 116.821 215.7 116.983 215.762 117.134C215.825 117.285 215.917 117.423 216.033 117.538C216.149 117.654 216.287 117.745 216.438 117.808C216.59 117.87 216.752 117.902 216.916 117.901H227.608C227.938 117.901 228.255 117.771 228.489 117.537C228.724 117.304 228.856 116.988 228.857 116.657V105.96C228.856 105.629 228.724 105.312 228.49 105.078C228.256 104.844 227.939 104.712 227.608 104.711Z" fill="#6C63FF"/>
<path d="M227.608 122.94H216.916C216.585 122.94 216.267 123.072 216.033 123.306C215.799 123.54 215.667 123.858 215.667 124.189V134.881C215.667 135.045 215.699 135.208 215.761 135.359C215.824 135.511 215.916 135.649 216.032 135.765C216.148 135.881 216.286 135.973 216.438 136.035C216.589 136.098 216.752 136.13 216.916 136.13H227.608C227.939 136.13 228.257 135.998 228.491 135.764C228.725 135.53 228.857 135.212 228.857 134.881V124.189C228.856 123.858 228.724 123.541 228.49 123.307C228.256 123.073 227.939 122.941 227.608 122.94Z" fill="#6C63FF"/>
<path d="M227.608 141.168H216.916C216.654 141.169 216.399 141.251 216.187 141.405C215.975 141.558 215.816 141.775 215.734 142.023C215.69 142.15 215.667 142.283 215.667 142.417V153.109C215.667 153.274 215.699 153.436 215.761 153.588C215.824 153.739 215.916 153.877 216.032 153.993C216.148 154.109 216.286 154.201 216.437 154.264C216.589 154.327 216.752 154.359 216.916 154.358H227.608C227.939 154.358 228.257 154.227 228.491 153.992C228.725 153.758 228.857 153.441 228.857 153.109V142.417C228.856 142.086 228.724 141.769 228.49 141.535C228.256 141.301 227.939 141.169 227.608 141.168Z" fill="#6C63FF"/>
<path d="M227.608 159.397H216.916C216.752 159.397 216.589 159.429 216.438 159.491C216.286 159.554 216.148 159.646 216.032 159.762C215.916 159.878 215.824 160.016 215.761 160.168C215.699 160.319 215.667 160.482 215.667 160.646V171.338C215.667 171.502 215.699 171.665 215.761 171.816C215.824 171.968 215.916 172.106 216.032 172.222C216.148 172.338 216.286 172.43 216.438 172.492C216.589 172.555 216.752 172.587 216.916 172.587H227.608C227.939 172.587 228.257 172.455 228.491 172.221C228.725 171.987 228.857 171.669 228.857 171.338V160.646C228.857 160.315 228.725 159.997 228.491 159.763C228.257 159.529 227.939 159.397 227.608 159.397Z" fill="#E6E6E6"/>
<path d="M250.068 86.483H239.376C239.045 86.4832 238.727 86.6148 238.493 86.849C238.259 87.0831 238.127 87.4007 238.127 87.7318V98.4287C238.127 98.5925 238.16 98.7546 238.222 98.9057C238.285 99.0569 238.377 99.1942 238.493 99.3098C238.609 99.4253 238.747 99.5168 238.898 99.5791C239.05 99.6415 239.212 99.6733 239.376 99.6728H250.068C250.398 99.673 250.715 99.5421 250.949 99.3089C251.183 99.0757 251.316 98.7592 251.317 98.4287V87.7318C251.316 87.4009 251.184 87.0838 250.95 86.8498C250.716 86.6158 250.399 86.484 250.068 86.483Z" fill="#6C63FF"/>
<path d="M250.068 104.711H239.376C239.045 104.712 238.727 104.843 238.493 105.077C238.259 105.312 238.127 105.629 238.127 105.96V116.657C238.127 116.821 238.16 116.983 238.222 117.134C238.285 117.285 238.377 117.423 238.493 117.538C238.609 117.654 238.747 117.745 238.898 117.808C239.05 117.87 239.212 117.902 239.376 117.901H250.068C250.398 117.901 250.715 117.771 250.949 117.537C251.184 117.304 251.316 116.988 251.317 116.657V105.96C251.316 105.629 251.184 105.312 250.95 105.078C250.716 104.844 250.399 104.712 250.068 104.711Z" fill="#6C63FF"/>
<path d="M250.068 122.94H239.376C239.045 122.94 238.727 123.072 238.493 123.306C238.259 123.54 238.127 123.858 238.127 124.189V134.881C238.127 135.045 238.159 135.208 238.221 135.359C238.284 135.511 238.376 135.649 238.492 135.765C238.608 135.881 238.746 135.973 238.897 136.035C239.049 136.098 239.212 136.13 239.376 136.13H250.068C250.399 136.13 250.717 135.998 250.951 135.764C251.185 135.53 251.317 135.212 251.317 134.881V124.189C251.316 123.858 251.184 123.541 250.95 123.307C250.716 123.073 250.399 122.941 250.068 122.94Z" fill="#E6E6E6"/>
<path d="M250.068 141.168H239.376C239.045 141.169 238.727 141.3 238.493 141.534C238.259 141.769 238.127 142.086 238.127 142.417V153.109C238.127 153.274 238.159 153.436 238.221 153.588C238.284 153.739 238.376 153.877 238.492 153.993C238.608 154.109 238.746 154.201 238.897 154.264C239.049 154.327 239.212 154.359 239.376 154.358H250.068C250.399 154.358 250.717 154.227 250.951 153.992C251.185 153.758 251.317 153.441 251.317 153.109V142.417C251.316 142.086 251.184 141.769 250.95 141.535C250.716 141.301 250.399 141.169 250.068 141.168Z" fill="#6C63FF"/>
<path d="M250.068 159.397H239.376C239.212 159.397 239.049 159.429 238.897 159.491C238.746 159.554 238.608 159.646 238.492 159.762C238.376 159.878 238.284 160.016 238.221 160.168C238.159 160.319 238.127 160.482 238.127 160.646V171.338C238.127 171.502 238.159 171.665 238.221 171.816C238.284 171.968 238.376 172.106 238.492 172.222C238.608 172.338 238.746 172.43 238.897 172.492C239.049 172.555 239.212 172.587 239.376 172.587H250.068C250.399 172.587 250.717 172.455 250.951 172.221C251.185 171.987 251.317 171.669 251.317 171.338V160.646C251.317 160.315 251.185 159.997 250.951 159.763C250.717 159.529 250.399 159.397 250.068 159.397Z" fill="#6C63FF"/>
<path d="M272.528 86.483H261.836C261.505 86.4832 261.187 86.6148 260.953 86.849C260.719 87.0831 260.587 87.4007 260.587 87.7318V98.4287C260.587 98.5925 260.62 98.7546 260.682 98.9057C260.745 99.0569 260.837 99.1942 260.953 99.3098C261.069 99.4253 261.207 99.5169 261.358 99.5792C261.51 99.6415 261.672 99.6733 261.836 99.6728H272.528C272.858 99.673 273.175 99.5421 273.409 99.3089C273.644 99.0757 273.776 98.7592 273.777 98.4287V87.7318C273.776 87.4009 273.644 87.0838 273.41 86.8498C273.176 86.6158 272.859 86.484 272.528 86.483Z" fill="#6C63FF"/>
<path d="M272.528 104.711H261.836C261.505 104.712 261.187 104.843 260.953 105.077C260.719 105.312 260.587 105.629 260.587 105.96V116.657C260.587 116.821 260.62 116.983 260.682 117.134C260.745 117.285 260.837 117.423 260.953 117.538C261.069 117.654 261.207 117.745 261.358 117.808C261.51 117.87 261.672 117.902 261.836 117.901H272.528C272.858 117.901 273.175 117.771 273.409 117.537C273.644 117.304 273.776 116.988 273.777 116.657V105.96C273.776 105.629 273.644 105.312 273.41 105.078C273.176 104.844 272.859 104.712 272.528 104.711Z" fill="#F5F5F5"/>
<path d="M272.528 122.94H261.836C261.505 122.94 261.187 123.072 260.953 123.306C260.719 123.54 260.587 123.858 260.587 124.189V134.881C260.587 135.045 260.619 135.208 260.681 135.359C260.744 135.511 260.836 135.649 260.952 135.765C261.068 135.881 261.206 135.973 261.357 136.035C261.509 136.098 261.672 136.13 261.836 136.13H272.528C272.859 136.13 273.177 135.998 273.411 135.764C273.645 135.53 273.777 135.212 273.777 134.881V124.189C273.776 123.858 273.644 123.541 273.41 123.307C273.176 123.073 272.859 122.941 272.528 122.94Z" fill="#F5F5F5"/>
<path d="M272.528 141.168H261.836C261.505 141.169 261.187 141.3 260.953 141.534C260.719 141.769 260.587 142.086 260.587 142.417V153.109C260.587 153.274 260.619 153.436 260.681 153.588C260.744 153.739 260.836 153.877 260.952 153.993C261.068 154.109 261.206 154.201 261.357 154.264C261.509 154.327 261.672 154.359 261.836 154.358H272.528C272.859 154.358 273.177 154.227 273.411 153.992C273.645 153.758 273.777 153.441 273.777 153.109V142.417C273.776 142.086 273.644 141.769 273.41 141.535C273.176 141.301 272.859 141.169 272.528 141.168Z" fill="#E6E6E6"/>
<path d="M272.528 159.397H261.836C261.672 159.397 261.509 159.429 261.357 159.491C261.206 159.554 261.068 159.646 260.952 159.762C260.836 159.878 260.744 160.016 260.681 160.168C260.619 160.319 260.587 160.482 260.587 160.646V171.338C260.587 171.502 260.619 171.665 260.681 171.816C260.744 171.968 260.836 172.106 260.952 172.222C261.068 172.338 261.206 172.43 261.357 172.492C261.509 172.555 261.672 172.587 261.836 172.587H272.528C272.859 172.587 273.177 172.455 273.411 172.221C273.645 171.987 273.777 171.669 273.777 171.338V160.646C273.777 160.315 273.645 159.997 273.411 159.763C273.177 159.529 272.859 159.397 272.528 159.397Z" fill="#6C63FF"/>
<path d="M294.988 86.483H284.291C283.961 86.4842 283.645 86.6163 283.411 86.8503C283.178 87.0844 283.047 87.4014 283.047 87.7318V98.4287C283.047 98.7587 283.179 99.0751 283.412 99.3084C283.645 99.5417 283.962 99.6728 284.291 99.6728H294.988C295.319 99.673 295.636 99.5421 295.87 99.3089C296.104 99.0757 296.236 98.7592 296.237 98.4287V87.7318C296.236 87.4009 296.104 87.0838 295.87 86.8498C295.636 86.6158 295.319 86.484 294.988 86.483Z" fill="#F5F5F5"/>
<path d="M294.988 104.711H284.291C283.961 104.713 283.644 104.845 283.411 105.079C283.178 105.313 283.047 105.63 283.047 105.96V116.657C283.047 116.987 283.179 117.304 283.412 117.537C283.645 117.77 283.962 117.901 284.291 117.901H294.988C295.319 117.901 295.636 117.771 295.87 117.537C296.104 117.304 296.236 116.988 296.237 116.657V105.96C296.236 105.629 296.104 105.312 295.87 105.078C295.636 104.844 295.319 104.712 294.988 104.711Z" fill="#F5F5F5"/>
<path d="M294.988 122.94H284.291C283.961 122.941 283.645 123.073 283.411 123.307C283.178 123.541 283.047 123.858 283.047 124.189V134.881C283.047 135.045 283.079 135.207 283.141 135.358C283.203 135.51 283.295 135.647 283.41 135.763C283.526 135.879 283.663 135.971 283.814 136.034C283.966 136.097 284.128 136.13 284.291 136.13H294.988C295.32 136.13 295.637 135.998 295.871 135.764C296.105 135.53 296.237 135.212 296.237 134.881V124.189C296.236 123.858 296.104 123.541 295.87 123.307C295.636 123.073 295.319 122.941 294.988 122.94Z" fill="#F5F5F5"/>
<path d="M294.988 141.168H284.291C283.961 141.17 283.645 141.302 283.411 141.536C283.178 141.77 283.047 142.087 283.047 142.417V153.109C283.047 153.273 283.079 153.435 283.141 153.587C283.203 153.738 283.295 153.876 283.41 153.992C283.526 154.108 283.663 154.2 283.814 154.263C283.966 154.326 284.128 154.358 284.291 154.358H294.988C295.32 154.358 295.637 154.227 295.871 153.992C296.105 153.758 296.237 153.441 296.237 153.109V142.417C296.236 142.086 296.104 141.769 295.87 141.535C295.636 141.301 295.319 141.169 294.988 141.168Z" fill="#6C63FF"/>
<path d="M294.988 159.397H284.291C284.128 159.397 283.966 159.43 283.814 159.492C283.663 159.555 283.526 159.647 283.41 159.763C283.295 159.879 283.203 160.017 283.141 160.168C283.079 160.32 283.047 160.482 283.047 160.646V171.338C283.047 171.502 283.079 171.664 283.141 171.815C283.203 171.967 283.295 172.104 283.41 172.22C283.526 172.336 283.663 172.428 283.814 172.491C283.966 172.554 284.128 172.587 284.291 172.587H294.988C295.32 172.587 295.637 172.455 295.871 172.221C296.105 171.987 296.237 171.669 296.237 171.338V160.646C296.237 160.315 296.105 159.997 295.871 159.763C295.637 159.529 295.32 159.397 294.988 159.397Z" fill="#E6E6E6"/>
<path d="M317.448 86.483H306.751C306.421 86.4842 306.104 86.6163 305.871 86.8503C305.638 87.0844 305.507 87.4014 305.507 87.7318V98.4287C305.507 98.7587 305.638 99.0751 305.872 99.3084C306.105 99.5417 306.421 99.6728 306.751 99.6728H317.448C317.779 99.6729 318.096 99.5421 318.33 99.3089C318.564 99.0757 318.696 98.7592 318.697 98.4287V87.7318C318.696 87.4009 318.564 87.0838 318.33 86.8498C318.096 86.6159 317.779 86.484 317.448 86.483Z" fill="#F5F5F5"/>
<path d="M317.448 104.711H306.751C306.421 104.713 306.104 104.845 305.871 105.079C305.638 105.313 305.507 105.63 305.507 105.96V116.657C305.507 116.987 305.638 117.304 305.872 117.537C306.105 117.77 306.421 117.901 306.751 117.901H317.448C317.779 117.901 318.096 117.771 318.33 117.537C318.564 117.304 318.696 116.988 318.697 116.657V105.96C318.696 105.629 318.564 105.312 318.33 105.078C318.096 104.844 317.779 104.712 317.448 104.711Z" fill="#F5F5F5"/>
<path d="M317.448 122.94H306.751C306.421 122.941 306.104 123.073 305.871 123.307C305.638 123.541 305.507 123.858 305.507 124.189V134.881C305.507 135.045 305.539 135.207 305.601 135.358C305.663 135.51 305.755 135.647 305.87 135.763C305.986 135.879 306.123 135.971 306.274 136.034C306.426 136.097 306.588 136.13 306.751 136.13H317.448C317.779 136.13 318.097 135.998 318.331 135.764C318.565 135.53 318.697 135.212 318.697 134.881V124.189C318.696 123.858 318.564 123.541 318.33 123.307C318.096 123.073 317.779 122.941 317.448 122.94Z" fill="#6C63FF"/>
<path d="M317.448 141.168H306.751C306.421 141.17 306.104 141.302 305.871 141.536C305.638 141.77 305.507 142.087 305.507 142.417V153.109C305.507 153.273 305.539 153.435 305.601 153.587C305.663 153.738 305.755 153.876 305.87 153.992C305.986 154.108 306.123 154.2 306.274 154.263C306.426 154.326 306.588 154.358 306.751 154.358H317.448C317.78 154.358 318.097 154.227 318.331 153.992C318.565 153.758 318.697 153.441 318.697 153.109V142.417C318.696 142.086 318.564 141.769 318.33 141.535C318.096 141.301 317.779 141.169 317.448 141.168Z" fill="#E6E6E6"/>
<path d="M317.448 159.397H306.751C306.588 159.397 306.426 159.43 306.274 159.492C306.123 159.555 305.986 159.647 305.87 159.763C305.755 159.879 305.663 160.017 305.601 160.168C305.539 160.32 305.507 160.482 305.507 160.646V171.338C305.507 171.502 305.539 171.664 305.601 171.815C305.663 171.967 305.755 172.104 305.87 172.22C305.986 172.336 306.123 172.428 306.274 172.491C306.426 172.554 306.588 172.587 306.751 172.587H317.448C317.78 172.587 318.097 172.455 318.331 172.221C318.565 171.987 318.697 171.669 318.697 171.338V160.646C318.697 160.315 318.565 159.997 318.331 159.763C318.097 159.529 317.78 159.397 317.448 159.397Z" fill="#F5F5F5"/>
<path d="M339.909 86.483H329.212C328.881 86.4842 328.565 86.6163 328.332 86.8503C328.099 87.0844 327.968 87.4014 327.968 87.7318V98.4287C327.968 98.7587 328.099 99.0751 328.332 99.3084C328.566 99.5417 328.882 99.6728 329.212 99.6728H339.909C340.239 99.6729 340.556 99.5421 340.79 99.3089C341.024 99.0757 341.156 98.7592 341.158 98.4287V87.7318C341.157 87.4009 341.025 87.0838 340.791 86.8498C340.557 86.6159 340.24 86.484 339.909 86.483Z" fill="#6C63FF"/>
<path d="M339.909 104.711H329.212C328.881 104.713 328.565 104.845 328.332 105.079C328.099 105.313 327.968 105.63 327.968 105.96V116.657C327.968 116.987 328.099 117.304 328.332 117.537C328.566 117.77 328.882 117.901 329.212 117.901H339.909C340.239 117.901 340.556 117.771 340.79 117.537C341.024 117.304 341.156 116.988 341.158 116.657V105.96C341.157 105.629 341.025 105.312 340.791 105.078C340.557 104.844 340.24 104.712 339.909 104.711Z" fill="#6C63FF"/>
<path d="M339.909 122.94H329.212C328.881 122.941 328.565 123.073 328.332 123.307C328.099 123.541 327.968 123.858 327.968 124.189V134.881C327.967 135.045 327.999 135.207 328.061 135.358C328.124 135.51 328.215 135.647 328.331 135.763C328.446 135.879 328.584 135.971 328.735 136.034C328.886 136.097 329.048 136.13 329.212 136.13H339.909C340.24 136.13 340.557 135.998 340.792 135.764C341.026 135.53 341.157 135.212 341.158 134.881V124.189C341.157 123.858 341.025 123.541 340.791 123.307C340.557 123.073 340.24 122.941 339.909 122.94Z" fill="#E6E6E6"/>
<path d="M339.909 141.168H329.212C328.881 141.17 328.565 141.302 328.332 141.536C328.099 141.77 327.968 142.087 327.968 142.417V153.109C327.967 153.273 327.999 153.435 328.061 153.587C328.124 153.738 328.215 153.876 328.331 153.992C328.446 154.108 328.584 154.2 328.735 154.263C328.886 154.326 329.048 154.358 329.212 154.358H339.909C340.24 154.358 340.558 154.227 340.792 153.992C341.026 153.758 341.157 153.441 341.158 153.109V142.417C341.157 142.086 341.025 141.769 340.791 141.535C340.557 141.301 340.24 141.169 339.909 141.168Z" fill="#F5F5F5"/>
<path d="M339.909 159.397H329.212C329.048 159.397 328.886 159.43 328.735 159.492C328.584 159.555 328.446 159.647 328.331 159.763C328.215 159.879 328.124 160.017 328.061 160.168C327.999 160.32 327.967 160.482 327.968 160.646V171.338C327.967 171.502 327.999 171.664 328.061 171.815C328.124 171.967 328.215 172.104 328.331 172.22C328.446 172.336 328.584 172.428 328.735 172.491C328.886 172.554 329.048 172.587 329.212 172.587H339.909C340.24 172.587 340.558 172.455 340.792 172.221C341.026 171.987 341.157 171.669 341.158 171.338V160.646C341.157 160.315 341.026 159.997 340.792 159.763C340.558 159.529 340.24 159.397 339.909 159.397Z" fill="#6C63FF"/>
<path d="M362.369 86.483H351.672C351.341 86.4842 351.025 86.6163 350.792 86.8503C350.559 87.0844 350.428 87.4014 350.428 87.7318V98.4287C350.428 98.7587 350.559 99.0751 350.792 99.3084C351.025 99.5417 351.342 99.6728 351.672 99.6728H362.369C362.699 99.6729 363.016 99.5421 363.25 99.3089C363.484 99.0757 363.616 98.7592 363.618 98.4287V87.7318C363.617 87.4009 363.485 87.0838 363.251 86.8498C363.017 86.6159 362.7 86.484 362.369 86.483Z" fill="#6C63FF"/>
<path d="M362.369 104.711H351.672C351.341 104.713 351.025 104.845 350.792 105.079C350.558 105.313 350.428 105.63 350.428 105.96V116.657C350.428 116.987 350.559 117.304 350.792 117.537C351.025 117.77 351.342 117.901 351.672 117.901H362.369C362.699 117.901 363.016 117.771 363.25 117.537C363.484 117.304 363.616 116.988 363.618 116.657V105.96C363.617 105.629 363.485 105.312 363.251 105.078C363.017 104.844 362.7 104.712 362.369 104.711Z" fill="#6C63FF"/>
<path d="M362.369 122.94H351.672C351.341 122.941 351.025 123.073 350.792 123.307C350.558 123.541 350.428 123.858 350.428 124.189V134.881C350.427 135.045 350.459 135.207 350.521 135.358C350.584 135.51 350.675 135.647 350.791 135.763C350.906 135.879 351.044 135.971 351.195 136.034C351.346 136.097 351.508 136.13 351.672 136.13H362.369C362.7 136.13 363.017 135.998 363.252 135.764C363.486 135.53 363.617 135.212 363.618 134.881V124.189C363.617 123.858 363.485 123.541 363.251 123.307C363.017 123.073 362.7 122.941 362.369 122.94Z" fill="#E6E6E6"/>
<path d="M362.369 141.168H351.672C351.341 141.17 351.025 141.302 350.792 141.536C350.559 141.77 350.428 142.087 350.428 142.417V153.109C350.427 153.273 350.459 153.435 350.521 153.587C350.584 153.738 350.675 153.876 350.791 153.992C350.906 154.108 351.044 154.2 351.195 154.263C351.346 154.326 351.508 154.358 351.672 154.358H362.369C362.7 154.358 363.017 154.227 363.252 153.992C363.486 153.758 363.617 153.441 363.618 153.109V142.417C363.617 142.086 363.485 141.769 363.251 141.535C363.017 141.301 362.7 141.169 362.369 141.168Z" fill="#6C63FF"/>
<path d="M362.369 159.397H351.672C351.508 159.397 351.346 159.43 351.195 159.492C351.044 159.555 350.906 159.647 350.791 159.763C350.675 159.879 350.584 160.017 350.521 160.168C350.459 160.32 350.427 160.482 350.428 160.646V171.338C350.427 171.502 350.459 171.664 350.521 171.815C350.584 171.967 350.675 172.104 350.791 172.22C350.906 172.336 351.044 172.428 351.195 172.491C351.346 172.554 351.508 172.587 351.672 172.587H362.369C362.7 172.587 363.017 172.455 363.252 172.221C363.486 171.987 363.617 171.669 363.618 171.338V160.646C363.617 160.315 363.486 159.997 363.252 159.763C363.017 159.529 362.7 159.397 362.369 159.397Z" fill="#6C63FF"/>
<path d="M384.829 86.483H374.132C373.801 86.4842 373.485 86.6163 373.252 86.8503C373.018 87.0844 372.888 87.4014 372.888 87.7318V98.4287C372.888 98.7587 373.019 99.0751 373.252 99.3084C373.485 99.5417 373.802 99.6728 374.132 99.6728H384.829C385.159 99.6729 385.476 99.5421 385.71 99.3089C385.944 99.0757 386.076 98.7592 386.078 98.4287V87.7318C386.077 87.4009 385.945 87.0838 385.711 86.8498C385.477 86.6159 385.16 86.484 384.829 86.483Z" fill="#E6E6E6"/>
<path d="M384.829 104.711H374.132C373.801 104.713 373.485 104.845 373.252 105.079C373.018 105.313 372.888 105.63 372.888 105.96V116.657C372.888 116.987 373.019 117.304 373.252 117.537C373.485 117.77 373.802 117.901 374.132 117.901H384.829C385.159 117.901 385.476 117.771 385.71 117.537C385.944 117.304 386.076 116.988 386.078 116.657V105.96C386.077 105.629 385.945 105.312 385.711 105.078C385.477 104.844 385.16 104.712 384.829 104.711Z" fill="#6C63FF"/>
<path d="M384.829 122.94H374.132C373.801 122.941 373.485 123.073 373.252 123.307C373.018 123.541 372.888 123.858 372.888 124.189V134.881C372.887 135.045 372.919 135.207 372.981 135.358C373.044 135.51 373.135 135.647 373.251 135.763C373.366 135.879 373.504 135.971 373.655 136.034C373.806 136.097 373.968 136.13 374.132 136.13H384.829C385.16 136.13 385.477 135.998 385.712 135.764C385.946 135.53 386.077 135.212 386.078 134.881V124.189C386.077 123.858 385.945 123.541 385.711 123.307C385.477 123.073 385.16 122.941 384.829 122.94Z" fill="#6C63FF"/>
<path d="M384.829 141.168H374.132C373.801 141.17 373.485 141.302 373.252 141.536C373.018 141.77 372.888 142.087 372.888 142.417V153.109C372.887 153.273 372.919 153.435 372.981 153.587C373.044 153.738 373.135 153.876 373.251 153.992C373.366 154.108 373.504 154.2 373.655 154.263C373.806 154.326 373.968 154.358 374.132 154.358H384.829C385.16 154.358 385.477 154.227 385.712 153.992C385.946 153.758 386.077 153.441 386.078 153.109V142.417C386.077 142.086 385.945 141.769 385.711 141.535C385.477 141.301 385.16 141.169 384.829 141.168Z" fill="#6C63FF"/>
<path d="M384.829 159.397H374.132C373.968 159.397 373.806 159.43 373.655 159.492C373.504 159.555 373.366 159.647 373.251 159.763C373.135 159.879 373.044 160.017 372.981 160.168C372.919 160.32 372.887 160.482 372.888 160.646V171.338C372.887 171.502 372.919 171.664 372.981 171.815C373.044 171.967 373.135 172.104 373.251 172.22C373.366 172.336 373.504 172.428 373.655 172.491C373.806 172.554 373.968 172.587 374.132 172.587H384.829C385.16 172.587 385.477 172.455 385.712 172.221C385.946 171.987 386.077 171.669 386.078 171.338V160.646C386.077 160.315 385.946 159.997 385.712 159.763C385.477 159.529 385.16 159.397 384.829 159.397Z" fill="#E6E6E6"/>
<path d="M407.289 86.483H396.592C396.262 86.4842 395.945 86.6163 395.712 86.8503C395.479 87.0844 395.348 87.4014 395.348 87.7318V98.4287C395.348 98.7587 395.479 99.0751 395.713 99.3084C395.946 99.5417 396.262 99.6728 396.592 99.6728H407.289C407.62 99.6729 407.937 99.5421 408.171 99.3089C408.405 99.0757 408.537 98.7592 408.538 98.4287V87.7318C408.537 87.4009 408.405 87.0838 408.171 86.8498C407.937 86.6159 407.62 86.484 407.289 86.483Z" fill="#E6E6E6"/>
<path d="M407.289 104.711H396.592C396.262 104.713 395.945 104.845 395.712 105.079C395.479 105.313 395.348 105.63 395.348 105.96V116.657C395.348 116.987 395.479 117.304 395.713 117.537C395.946 117.77 396.262 117.901 396.592 117.901H407.289C407.62 117.901 407.937 117.771 408.171 117.537C408.405 117.304 408.537 116.988 408.538 116.657V105.96C408.537 105.629 408.405 105.312 408.171 105.078C407.937 104.844 407.62 104.712 407.289 104.711Z" fill="#E6E6E6"/>
<path d="M407.289 122.94H396.592C396.262 122.941 395.945 123.073 395.712 123.307C395.479 123.541 395.348 123.858 395.348 124.189V134.881C395.348 135.045 395.38 135.207 395.442 135.358C395.504 135.51 395.596 135.647 395.711 135.763C395.827 135.879 395.964 135.971 396.115 136.034C396.266 136.097 396.429 136.13 396.592 136.13H407.289C407.62 136.13 407.938 135.998 408.172 135.764C408.406 135.53 408.538 135.212 408.538 134.881V124.189C408.537 123.858 408.405 123.541 408.171 123.307C407.937 123.073 407.62 122.941 407.289 122.94Z" fill="#6C63FF"/>
<path d="M407.289 141.168H396.592C396.262 141.17 395.945 141.302 395.712 141.536C395.479 141.77 395.348 142.087 395.348 142.417V153.109C395.348 153.273 395.38 153.435 395.442 153.587C395.504 153.738 395.596 153.876 395.711 153.992C395.827 154.108 395.964 154.2 396.115 154.263C396.266 154.326 396.429 154.358 396.592 154.358H407.289C407.62 154.358 407.938 154.227 408.172 153.992C408.406 153.758 408.538 153.441 408.538 153.109V142.417C408.537 142.086 408.405 141.769 408.171 141.535C407.937 141.301 407.62 141.169 407.289 141.168Z" fill="#E6E6E6"/>
<path d="M407.289 159.397H396.592C396.429 159.397 396.266 159.43 396.115 159.492C395.964 159.555 395.827 159.647 395.711 159.763C395.596 159.879 395.504 160.017 395.442 160.168C395.38 160.32 395.348 160.482 395.348 160.646V171.338C395.348 171.502 395.38 171.664 395.442 171.815C395.504 171.967 395.596 172.104 395.711 172.22C395.827 172.336 395.964 172.428 396.115 172.491C396.266 172.554 396.429 172.587 396.592 172.587H407.289C407.62 172.587 407.938 172.455 408.172 172.221C408.406 171.987 408.538 171.669 408.538 171.338V160.646C408.538 160.315 408.406 159.997 408.172 159.763C407.938 159.529 407.62 159.397 407.289 159.397Z" fill="#E6E6E6"/>
<path d="M161.435 317.041H161.138L161.392 317.008L161.435 317.041Z" fill="#2F2E41"/>
<path d="M135.844 117.707C153.968 117.707 168.661 103.014 168.661 84.8898C168.661 66.7655 153.968 52.0729 135.844 52.0729C117.72 52.0729 103.027 66.7655 103.027 84.8898C103.027 103.014 117.72 117.707 135.844 117.707Z" fill="#FFB6B6"/>
<path d="M164.583 60.829C164.583 60.829 173.166 44.4205 154.282 42.9288C154.282 42.9288 138.184 28.3258 121.776 40.2592C121.776 40.2592 112.826 40.2592 107.932 50.3872C107.932 50.3872 100.892 47.7176 99.3454 54.8623C99.3454 54.8623 94.1946 69.7791 99.3454 83.2042C104.496 96.6294 106.207 98.121 106.207 98.121C106.207 98.121 97.7432 69.9745 118.345 68.4828C138.947 66.9911 162 54.1165 163.717 70.5249C165.434 86.9334 168.018 90.9763 168.018 90.9763C168.018 90.9763 184.325 67.5416 164.583 60.829Z" fill="#2F2E41"/>
<path d="M220.734 165.766L220.629 166.323L219.442 172.587L211.243 215.912L210.758 218.463L209.74 223.857L208.347 231.216L205.258 247.523L204.374 252.196L204.043 253.95L203.928 254.564L203.01 259.401L202.732 260.862L200.493 277.447L198.538 291.9L205.08 298.442L201.18 302.343L198.62 317.007L198.625 317.041H94.139C89.912 314.303 85.746 311.48 81.6408 308.573L82.5006 302.136C82.5006 302.136 85.4594 290.642 84.2153 289.268C82.9761 287.895 80.2574 285.44 80.2574 285.44L83.6822 277.447L84.1577 276.338L83.3603 259.8L83.3412 259.401L83.077 253.95L83.0433 253.248L82.9905 252.196L81.977 231.216L81.9578 230.87L81.6504 224.51L81.3622 218.463L81.2373 215.912L80.0029 190.392L79.1671 173.062L78.437 157.975L81.3718 156.981L112.761 146.313L125.764 129.41L152.826 129.612L166.073 129.713L188.178 150.213L193.207 152.615L193.245 152.634L196.852 154.358L205.998 158.724L215.667 163.345L220.629 165.713L220.734 165.766Z" fill="#CACACA"/>
<path d="M129.261 267.808C127.278 268.576 125.15 268.9 123.028 268.757C120.906 268.614 118.842 268.008 116.979 266.981C115.117 265.954 113.503 264.531 112.25 262.812C110.997 261.094 110.137 259.121 109.729 257.034L58.5454 249.772L76.3381 229.646L122.215 239.627C125.767 239.174 129.361 240.04 132.318 242.06C135.274 244.08 137.386 247.114 138.255 250.588C139.123 254.062 138.688 257.733 137.03 260.907C135.372 264.081 132.608 266.536 129.261 267.808Z" fill="#FFB6B6"/>
<path d="M106.44 231.216C105.492 230.014 104.15 229.185 102.65 228.877L81.6503 224.51L79.4936 224.064C78.2403 223.802 77.0563 223.279 76.0191 222.528C74.982 221.777 74.115 220.816 73.4751 219.707C72.8112 218.543 72.4096 217.248 72.2982 215.912C72.1982 214.698 72.3435 213.476 72.7257 212.32L80.0027 190.393L84.7243 176.165C85.2966 174.449 85.6343 172.664 85.7283 170.858C85.9913 165.859 84.4447 160.932 81.3716 156.981C78.67 153.508 74.9227 150.996 70.6836 149.816C66.4445 148.636 61.9383 148.851 57.8307 150.429C57.7106 150.472 57.5858 150.52 57.4657 150.568C54.52 151.745 51.8881 153.59 49.7782 155.958C47.6683 158.327 46.1381 161.153 45.3086 164.215L40.1786 182.875L29.597 221.345C28.5377 225.199 28.3237 229.237 28.9696 233.182C29.6156 237.126 31.1061 240.885 33.3394 244.2C35.5726 247.515 38.4958 250.309 41.9088 252.389C45.3217 254.47 49.144 255.789 53.1139 256.255L83.3602 259.8L97.357 261.443C98.9755 261.637 100.608 261.215 101.929 260.26C103.25 259.305 104.163 257.887 104.485 256.289C104.508 256.202 104.525 256.114 104.538 256.025L104.874 253.95L107.723 236.475L107.751 236.298C107.9 235.406 107.86 234.493 107.634 233.618C107.408 232.743 107.001 231.924 106.44 231.216Z" fill="#CACACA"/>
<path d="M161.863 268.368C163.934 268.849 166.086 268.87 168.167 268.429C170.247 267.988 172.206 267.097 173.905 265.817C175.603 264.538 177.001 262.901 177.999 261.023C178.997 259.145 179.571 257.071 179.68 254.947L229.328 240.541L208.875 223.124L164.864 239.475C161.284 239.528 157.847 240.891 155.205 243.308C152.563 245.725 150.9 249.027 150.53 252.588C150.16 256.15 151.109 259.723 153.198 262.632C155.287 265.54 158.37 267.581 161.863 268.368Z" fill="#FFB6B6"/>
<path d="M253.978 208.314L230.365 153.969C228.434 149.508 224.984 145.874 220.629 143.714C219.282 143.051 217.868 142.536 216.411 142.177C216.186 142.119 215.96 142.067 215.734 142.023C212.645 141.349 209.44 141.408 206.377 142.196C203.578 142.916 200.961 144.217 198.699 146.015C196.436 147.814 194.578 150.069 193.245 152.634C193.231 152.655 193.218 152.678 193.207 152.701C191.718 155.58 190.927 158.769 190.896 162.01C190.865 165.252 191.596 168.455 193.029 171.362L193.322 171.948L210.009 205.46C210.578 206.606 210.899 207.86 210.951 209.139C211.002 210.418 210.782 211.693 210.306 212.881C209.83 214.068 209.108 215.142 208.187 216.031C207.267 216.921 206.169 217.605 204.965 218.04L203.793 218.463L182.716 226.076C181.135 226.64 179.834 227.796 179.088 229.301C178.341 230.805 178.208 232.54 178.715 234.141L178.768 234.309L184.676 253.215C184.705 253.301 184.734 253.388 184.767 253.474C184.819 253.637 184.883 253.796 184.959 253.95C185.587 255.358 186.697 256.496 188.089 257.159C189.481 257.822 191.064 257.966 192.553 257.567L203.928 254.564L206.248 253.95L235.62 246.192C239.484 245.171 243.083 243.327 246.169 240.786C249.254 238.244 251.755 235.066 253.498 231.469C255.241 227.872 256.187 223.94 256.27 219.944C256.353 215.947 255.571 211.98 253.978 208.314Z" fill="#CACACA"/>
<path d="M21.5659 253.95C28.3724 262.252 35.713 270.101 43.541 277.447H260.635C262.727 277.451 264.732 278.283 266.21 279.763C267.689 281.242 268.52 283.248 268.522 285.339L268.834 340.351C282.19 334.215 294.697 326.38 306.046 317.041C309.197 314.452 312.25 311.751 315.205 308.938C317.141 307.103 319.03 305.223 320.873 303.299C334.689 288.906 345.877 272.204 353.93 253.95H21.5659Z" fill="#3F3D56"/>
<path d="M320.873 303.299C319.033 305.225 317.144 307.105 315.205 308.938H268.993V303.299H320.873Z" fill="#F5F5F5"/>
<path d="M220.302 122.94C220.074 122.519 219.736 122.167 219.324 121.922C218.912 121.676 218.442 121.547 217.963 121.547H60.4916C59.7856 121.549 59.1091 121.831 58.6103 122.33C58.1115 122.83 57.8311 123.507 57.8306 124.213V218.463H220.628V124.213C220.631 123.768 220.518 123.329 220.302 122.94Z" fill="#3F3D56"/>
<path d="M57.688 215.911V227.542C57.688 228.024 57.783 228.501 57.9675 228.947C58.152 229.392 58.4224 229.797 58.7633 230.138C59.1043 230.479 59.509 230.749 59.9545 230.934C60.4 231.119 60.8774 231.214 61.3595 231.214H121.447V254.167H120.649C120.586 254.167 120.524 254.179 120.466 254.203C120.408 254.227 120.356 254.262 120.312 254.306C120.267 254.351 120.232 254.403 120.208 254.461C120.184 254.519 120.172 254.581 120.172 254.644V256.24C120.172 256.303 120.184 256.365 120.208 256.423C120.232 256.481 120.267 256.533 120.312 256.577C120.356 256.622 120.408 256.657 120.466 256.681C120.524 256.705 120.586 256.717 120.649 256.717H157.95C158.013 256.717 158.075 256.705 158.133 256.681C158.191 256.657 158.243 256.622 158.288 256.577C158.332 256.533 158.367 256.481 158.391 256.423C158.415 256.365 158.427 256.303 158.427 256.24V254.644C158.427 254.581 158.415 254.519 158.391 254.461C158.367 254.403 158.332 254.351 158.288 254.306C158.243 254.262 158.191 254.227 158.133 254.203C158.075 254.179 158.013 254.167 157.95 254.167H157.152V231.214H217.24C217.722 231.214 218.199 231.119 218.645 230.934C219.09 230.749 219.495 230.479 219.836 230.138C220.177 229.797 220.447 229.392 220.632 228.947C220.816 228.501 220.911 228.024 220.911 227.542V215.911H57.688Z" fill="#3F3D56"/>
<path d="M137.327 182.53C145.632 182.53 152.365 175.797 152.365 167.492C152.365 159.188 145.632 152.455 137.327 152.455C129.022 152.455 122.29 159.188 122.29 167.492C122.29 175.797 129.022 182.53 137.327 182.53Z" fill="#6C63FF"/>
<path d="M175.641 83.0967H173.239C173.239 64.9402 155.27 53.0425 137.142 53.0329C134.506 53.0252 131.875 53.281 129.289 53.7966C126.378 54.3778 123.357 55.0743 120.388 55.9821C108.683 59.5702 97.8274 66.5061 97.8274 83.0967C97.8249 86.3187 98.2349 89.5277 99.0475 92.6456L96.7227 93.2508C95.8604 89.935 95.4246 86.5228 95.4258 83.0967C95.4258 68.6003 101.377 58.6431 111.656 52.7063C117.06 49.5841 123.655 47.5715 131.21 46.5917C134.354 46.1734 137.533 46.0768 140.697 46.3035C161.543 47.8021 175.641 63.7874 175.641 83.0967Z" fill="#6C63FF"/>
<path d="M179.642 84.4272L178.696 77.4336C178.463 75.6674 177.612 74.0408 176.294 72.8416C175.449 72.0599 174.436 71.4807 173.333 71.1478C172.231 70.815 171.067 70.7372 169.93 70.9203L168.427 71.1269C168.015 71.181 167.619 71.3163 167.26 71.5249C166.901 71.7335 166.588 72.0113 166.337 72.3421C166.084 72.6718 165.9 73.0482 165.793 73.4497C165.687 73.8512 165.661 74.2698 165.717 74.6813L167.903 90.7915C167.993 91.4482 168.287 92.0598 168.744 92.54C169.201 93.0201 169.797 93.3444 170.449 93.467C170.642 93.5056 170.838 93.5249 171.035 93.5246C171.176 93.5246 171.317 93.515 171.457 93.4958L173.139 93.27C174.164 93.134 175.15 92.7899 176.037 92.2588C176.924 91.7276 177.693 91.0208 178.297 90.1815C178.427 89.999 178.552 89.8117 178.667 89.6195C179.567 88.0479 179.911 86.2184 179.642 84.4272Z" fill="#6C63FF"/>
<path d="M167.456 71.4199C167.015 71.6342 166.632 71.9503 166.337 72.3422C166.084 72.6718 165.9 73.0483 165.793 73.4498C165.687 73.8513 165.661 74.2698 165.717 74.6814L167.903 90.7916C167.993 91.4482 168.287 92.0599 168.744 92.54C169.201 93.0202 169.797 93.3445 170.449 93.467L167.456 71.4199Z" fill="#F5F5F5"/>
<path d="M179.642 84.4272L178.696 77.4336C178.463 75.6675 177.612 74.0408 176.294 72.8417L178.47 88.8702C178.503 89.1276 178.569 89.3795 178.667 89.6196C179.568 88.0479 179.911 86.2184 179.642 84.4272Z" fill="#3F3D56"/>
<path d="M172.164 89.4662C172.821 89.377 173.151 87.8131 172.902 85.973C172.652 84.1329 171.917 82.7135 171.26 82.8026C170.603 82.8918 170.272 84.4557 170.522 86.2958C170.771 88.1359 171.507 89.5553 172.164 89.4662Z" fill="#3F3D56"/>
<path d="M170.722 80.8203C171.379 80.7311 171.71 79.1671 171.46 77.3271C171.211 75.487 170.476 74.0675 169.818 74.1567C169.161 74.2458 168.831 75.8098 169.08 77.6499C169.33 79.49 170.065 80.9094 170.722 80.8203Z" fill="#3F3D56"/>
<path d="M179.849 84.1826C180.506 84.0934 180.836 82.5295 180.587 80.6894C180.337 78.8493 179.602 77.4298 178.945 77.519C178.288 77.6081 177.957 79.1721 178.207 81.0122C178.456 82.8523 179.192 84.2717 179.849 84.1826Z" fill="#3F3D56"/>
<path d="M137.143 53.0329C134.506 53.0252 131.875 53.281 129.289 53.7966C126.378 54.3778 123.357 55.0743 120.389 55.9821C115.753 55.7563 112.343 54.5555 111.656 52.7063C117.06 49.5841 123.655 47.5715 131.21 46.5917C134.355 46.1734 137.533 46.0768 140.697 46.3035C141.032 46.4998 141.321 46.7648 141.547 47.081C141.772 47.3973 141.927 47.7576 142.003 48.1383C142.229 49.8099 140.322 51.5871 137.143 53.0329Z" fill="#3F3D56"/>
<path d="M106.478 99.7641L102.78 84.3888C102.648 83.8341 102.355 83.3307 101.938 82.9419C101.521 82.553 100.998 82.2961 100.436 82.2033C100.277 82.1785 100.116 82.1657 99.9553 82.1649C99.7287 82.1657 99.503 82.1931 99.2828 82.2465L97.8515 82.5923C96.0085 83.0381 94.4177 84.1967 93.428 85.814C92.4384 87.4313 92.1307 89.3752 92.5727 91.2191L94.2298 98.1166C94.6082 99.7404 95.5093 101.195 96.7947 102.257C97.0031 102.425 97.2212 102.581 97.448 102.723C98.2531 103.228 99.1512 103.566 100.089 103.718C101.027 103.869 101.986 103.832 102.909 103.607L104.336 103.261C104.713 103.173 105.068 103.008 105.378 102.776C105.84 102.439 106.19 101.974 106.386 101.437C106.582 100.901 106.614 100.319 106.478 99.7641Z" fill="#6C63FF"/>
<path d="M98.7247 96.9033C99.3695 96.7482 99.54 95.1588 99.1055 93.3534C98.6711 91.548 97.7962 90.2102 97.1514 90.3654C96.5066 90.5205 96.3361 92.1099 96.7705 93.9153C97.205 95.7207 98.0799 97.0585 98.7247 96.9033Z" fill="#3F3D56"/>
<path d="M93.9215 98.3443C94.5663 98.1891 94.7368 96.5998 94.3023 94.7944C93.8678 92.989 92.9929 91.6512 92.3482 91.8063C91.7034 91.9615 91.5329 93.5509 91.9673 95.3563C92.4018 97.1617 93.2767 98.4995 93.9215 98.3443Z" fill="#3F3D56"/>
<path d="M106.714 99.7064L103.015 84.3311C102.871 83.7309 102.553 83.1866 102.101 82.7662C101.649 82.3459 101.083 82.0682 100.474 81.9679L105.522 102.968C106.021 102.603 106.4 102.098 106.612 101.518C106.824 100.937 106.859 100.307 106.714 99.7064Z" fill="#F5F5F5"/>
<path d="M93.4089 88.1738C93.3068 87.7462 93.1152 87.3451 92.8469 86.9969C92.327 88.3434 92.2314 89.8167 92.5731 91.219L94.2302 98.1166C94.6086 99.7404 95.5097 101.195 96.7952 102.257L93.4089 88.1738Z" fill="#3F3D56"/>
</g>
<defs>
<clipPath id="clip0_344_6459">
<rect width="408.538" height="355.842" fill="white"/>
</clipPath>
</defs>
</svg>
