<svg width="326" height="42" viewBox="0 0 326 42" fill="none" xmlns="http://www.w3.org/2000/svg">
<g clip-path="url(#clip0_344_6545)">
<path d="M0.0322266 4.53588V0H9.17797V15.9836C10.3825 15.0836 11.6912 14.3708 13.104 13.8452C14.5167 13.3196 15.9778 13.0568 17.4872 13.0568C19.3387 13.0568 21.0377 13.388 22.5843 14.0504C24.1235 14.72 25.4507 15.6632 26.566 16.8799C27.6814 18.0895 28.5476 19.5439 29.1648 21.243C29.7819 22.935 30.0905 24.8105 30.0905 26.8697C30.0905 29.0656 29.7485 31.0564 29.0644 32.8419C28.3729 34.6275 27.4137 36.161 26.1868 37.4426C24.96 38.7242 23.5026 39.7141 21.8147 40.4125C20.1268 41.1037 18.2754 41.4493 16.2604 41.4493C14.8625 41.4493 13.5501 41.2513 12.3232 40.8553C11.1038 40.4593 10.0554 39.9445 9.17797 39.3109V41.0281H4.11435V4.53588H0.0322266ZM16.1488 17.3767C14.8253 17.3767 13.5575 17.6395 12.3455 18.1651C11.1261 18.6979 10.0702 19.4107 9.17797 20.3034V34.9911C9.76538 35.567 10.6205 36.0818 11.7432 36.5354C12.866 36.9818 14.2825 37.205 15.9927 37.205C17.1526 37.205 18.268 36.9926 19.3387 36.5678C20.4094 36.1502 21.3537 35.513 22.1716 34.6563C22.9895 33.8067 23.6439 32.7483 24.1346 31.4811C24.6254 30.214 24.8707 28.738 24.8707 27.0533C24.8707 25.5053 24.6365 24.1337 24.1681 22.9386C23.7071 21.7434 23.0825 20.7318 22.2943 19.9039C21.5061 19.0831 20.5841 18.4567 19.5283 18.0247C18.4799 17.5927 17.3534 17.3767 16.1488 17.3767ZM60.4276 28.0036H40.1174C40.1174 28.774 40.1769 29.4796 40.2958 30.1204C40.4074 30.7684 40.5747 31.3804 40.7977 31.9563C41.4669 33.7131 42.5414 35.0379 44.021 35.9306C45.5007 36.8162 47.1737 37.259 49.0401 37.259C50.5123 37.259 51.9436 37.061 53.3341 36.665C54.7245 36.269 56.1819 35.6498 57.7062 34.8075L59.7473 38.1554C57.8958 39.3865 56.0332 40.3009 54.1594 40.8985C52.2931 41.4961 50.3524 41.7949 48.3374 41.7949C46.4339 41.7949 44.6679 41.4853 43.0395 40.8661C41.4186 40.2541 40.0207 39.3397 38.8459 38.123C37.6785 36.9134 36.7639 35.405 36.1022 33.5979C35.433 31.7835 35.0984 29.674 35.0984 27.2693C35.0984 25.3181 35.3809 23.475 35.946 21.7398C36.5111 20.0119 37.3513 18.4999 38.4667 17.2039C39.582 15.9152 40.965 14.8928 42.6157 14.1368C44.2664 13.3808 46.1922 13.0028 48.3932 13.0028C50.5123 13.0028 52.2857 13.3124 53.7133 13.9316C55.1409 14.558 56.3046 15.386 57.2043 16.4156C58.0966 17.4451 58.7769 18.6187 59.2454 19.9363C59.7064 21.2538 60.0261 22.5966 60.2046 23.9646C60.3012 24.6341 60.3607 25.3109 60.383 25.9949C60.4128 26.6861 60.4276 27.3557 60.4276 28.0036ZM48.0362 17.1175C46.854 17.1175 45.8242 17.2795 44.9468 17.6035C44.0694 17.9275 43.3221 18.3919 42.7049 18.9967C42.0878 19.6015 41.5933 20.3466 41.2215 21.2322C40.8423 22.1106 40.5635 23.0934 40.3851 24.1805H55.0071C54.9327 23.1582 54.7654 22.2186 54.5052 21.3618C54.2449 20.4978 53.8397 19.7491 53.2895 19.1155C52.7467 18.4819 52.0477 17.9887 51.1926 17.6359C50.345 17.2903 49.2929 17.1175 48.0362 17.1175ZM83.8943 41.0281V38.501C82.8235 39.4657 81.6413 40.2541 80.3475 40.8661C79.0463 41.4853 77.5703 41.7949 75.9196 41.7949C74.5366 41.7949 73.2688 41.5825 72.1163 41.1577C70.9638 40.7401 69.9712 40.1641 69.1384 39.4297C68.3056 38.7026 67.655 37.8566 67.1865 36.8918C66.7255 35.9198 66.495 34.8903 66.495 33.8031C66.495 32.6439 66.6735 31.6143 67.0304 30.7144C67.3799 29.8216 67.852 29.044 68.4469 28.3816C69.0343 27.7265 69.7221 27.1757 70.5102 26.7293C71.2984 26.2757 72.1238 25.9121 72.9863 25.6385C73.8488 25.3721 74.7299 25.1813 75.6296 25.0661C76.5293 24.9509 77.3882 24.8933 78.2061 24.8933C79.5147 24.8933 80.6115 24.9329 81.4963 25.0121C82.3886 25.0913 83.199 25.1993 83.9277 25.3361L83.95 23.1006C83.95 22.1358 83.805 21.297 83.5151 20.5842C83.2251 19.8715 82.8161 19.2811 82.2882 18.8131C81.7603 18.3451 81.1282 17.9995 80.3921 17.7763C79.6634 17.5459 78.8455 17.4307 77.9384 17.4307C77.0833 17.4307 76.2654 17.4883 75.4846 17.6035C74.7039 17.7187 73.9715 17.8663 73.2874 18.0463C72.6108 18.2335 71.9862 18.4459 71.4137 18.6835C70.8411 18.9211 70.3541 19.1695 69.9526 19.4287L68.2907 16.0376C68.9674 15.6128 69.7035 15.2204 70.4991 14.8604C71.2947 14.5004 72.1349 14.1908 73.0198 13.9316C73.8971 13.6796 74.7969 13.478 75.7189 13.3268C76.6334 13.1828 77.5331 13.1108 78.418 13.1108C80.0538 13.1108 81.526 13.298 82.8347 13.6724C84.1434 14.054 85.2513 14.6372 86.1584 15.422C87.0655 16.214 87.7645 17.2219 88.2552 18.4459C88.746 19.6699 88.9913 21.1314 88.9913 22.8306L88.9579 36.4922H92.092V41.0281H83.8943ZM77.035 37.6802C77.7042 37.6802 78.3771 37.601 79.0537 37.4426C79.7229 37.2842 80.3587 37.0682 80.9609 36.7946C81.5558 36.521 82.106 36.2042 82.6116 35.8442C83.1247 35.4842 83.5522 35.1135 83.8943 34.7319L83.9277 28.5544H78.0388C77.0573 28.5544 76.165 28.6624 75.362 28.8784C74.5515 29.0872 73.8525 29.3932 73.2651 29.7964C72.6703 30.1996 72.213 30.7 71.8933 31.2976C71.5661 31.8951 71.4025 32.5827 71.4025 33.3603C71.4025 34.0803 71.5364 34.7067 71.804 35.2394C72.0792 35.7794 72.4658 36.2294 72.964 36.5894C73.4622 36.9494 74.057 37.2194 74.7485 37.3994C75.44 37.5866 76.2022 37.6802 77.035 37.6802ZM105.978 4.90307V13.7156H112.592V17.6899H105.922L105.844 33.4575C105.844 34.5303 105.97 35.4014 106.223 36.071C106.476 36.7406 106.885 37.2014 107.45 37.4534C108.008 37.7126 108.644 37.8422 109.357 37.8422C110.116 37.8422 110.785 37.7738 111.365 37.637C111.945 37.5074 112.581 37.2842 113.272 36.9674L114.443 40.2613C113.573 40.7005 112.659 41.0497 111.7 41.3089C110.733 41.5609 109.595 41.6869 108.287 41.6869C107.052 41.6869 105.978 41.5429 105.063 41.2549C104.149 40.9597 103.379 40.4701 102.755 39.7861C102.123 39.1021 101.654 38.1842 101.349 37.0322C101.037 35.8802 100.881 34.4439 100.881 32.7231L100.97 17.6899H96.4753V13.7156H101.026V7.17101L105.978 4.90307ZM138.836 13.5536V19.4827H133.672V17.7979C133.069 17.7979 132.456 17.9095 131.831 18.1327C131.207 18.3487 130.619 18.6799 130.069 19.1263C129.526 19.5799 129.05 20.1523 128.642 20.8434C128.233 21.5418 127.939 22.3626 127.76 23.3058V36.4922H132.545V41.0281H118.559V36.4922H122.451L122.474 18.2515H118.559V13.7156H127.571V17.4847C127.898 16.9231 128.266 16.4012 128.675 15.9188C129.084 15.4292 129.537 15.0044 130.036 14.6444C130.534 14.2844 131.088 14.0036 131.698 13.802C132.3 13.6004 132.958 13.4996 133.672 13.4996C134.616 13.4996 135.505 13.4996 136.337 13.4996C137.17 13.4996 138.003 13.5176 138.836 13.5536ZM144.479 18.2515V13.7156H153.681V36.4922H157.93V41.0281H144.524V36.4922H148.561V18.2515H144.479ZM147.602 4.03909C147.602 3.57831 147.699 3.14272 147.892 2.73233C148.086 2.31474 148.338 1.95475 148.651 1.65236C148.97 1.34277 149.35 1.09437 149.788 0.907176C150.22 0.72718 150.681 0.637183 151.171 0.637183C151.647 0.637183 152.097 0.72718 152.521 0.907176C152.945 1.09437 153.316 1.34277 153.636 1.65236C153.956 1.95475 154.209 2.31474 154.395 2.73233C154.588 3.14272 154.685 3.57831 154.685 4.03909C154.685 4.51428 154.588 4.96067 154.395 5.37826C154.209 5.80305 153.956 6.17744 153.636 6.50143C153.316 6.82542 152.945 7.08101 152.521 7.2682C152.097 7.4482 151.647 7.5382 151.171 7.5382C150.681 7.5382 150.22 7.4482 149.788 7.2682C149.35 7.08101 148.97 6.82542 148.651 6.50143C148.338 6.17744 148.086 5.80305 147.892 5.37826C147.699 4.96067 147.602 4.51428 147.602 4.03909ZM161.923 41.0281V37.9934L176.222 17.7979H167.21V21.6534H162.202V13.7156H182.378V16.8259L168.102 36.9134H177.75V32.2695H183.003V41.0281H161.923ZM197.759 18.2515V13.7156H207.507V18.2515H204.864L211.834 37.0754L218.638 18.2515H216.92V13.7156H225.854V18.2515H223.434L214.199 41.4493H209.191L199.989 18.2515H197.759ZM229.669 18.2515V13.7156H238.87V36.4922H243.12V41.0281H229.724V36.4922H233.751V18.2515H229.669ZM232.792 4.03909C232.792 3.57831 232.888 3.14272 233.081 2.73233C233.275 2.31474 233.528 1.95475 233.84 1.65236C234.16 1.34277 234.539 1.09437 234.978 0.907176C235.409 0.72718 235.87 0.637183 236.361 0.637183C236.836 0.637183 237.286 0.72718 237.71 0.907176C238.141 1.09437 238.513 1.34277 238.825 1.65236C239.145 1.95475 239.402 2.31474 239.595 2.73233C239.781 3.14272 239.874 3.57831 239.874 4.03909C239.874 4.51428 239.781 4.96067 239.595 5.37826C239.402 5.80305 239.145 6.17744 238.825 6.50143C238.513 6.82542 238.141 7.08101 237.71 7.2682C237.286 7.4482 236.836 7.5382 236.361 7.5382C235.87 7.5382 235.409 7.4482 234.978 7.2682C234.539 7.08101 234.16 6.82542 233.84 6.50143C233.528 6.17744 233.275 5.80305 233.081 5.37826C232.888 4.96067 232.792 4.51428 232.792 4.03909ZM264.411 4.53588V0H273.312V36.4922H277.45V41.0281H268.248V38.7818C267.341 39.6817 266.289 40.3837 265.092 40.8877C263.894 41.3845 262.534 41.6329 261.009 41.6329C259.099 41.6329 257.321 41.3125 255.678 40.6717C254.035 40.0309 252.611 39.0913 251.406 37.853C250.202 36.6146 249.258 35.0919 248.574 33.2847C247.889 31.4847 247.547 29.4256 247.547 27.1073C247.547 24.9977 247.875 23.0754 248.529 21.3402C249.183 19.6123 250.109 18.1363 251.306 16.9123C252.511 15.6956 253.957 14.7488 255.645 14.072C257.333 13.3952 259.21 13.0568 261.277 13.0568C262.638 13.0568 263.88 13.2008 265.002 13.4888C266.133 13.7768 267.214 14.2808 268.248 15.0008V4.53588H264.411ZM261.656 37.367C263.166 37.367 264.426 37.151 265.437 36.719C266.456 36.287 267.393 35.639 268.248 34.7751V19.4827C267.341 18.7483 266.296 18.2119 265.114 17.8735C263.939 17.5423 262.731 17.3767 261.489 17.3767C260.292 17.3767 259.169 17.5927 258.121 18.0247C257.065 18.4567 256.143 19.0831 255.355 19.9039C254.567 20.7318 253.946 21.7434 253.492 22.9386C253.039 24.1337 252.812 25.5053 252.812 27.0533C252.812 28.738 253.027 30.2248 253.459 31.5135C253.897 32.7951 254.507 33.8715 255.288 34.7427C256.069 35.6138 257.002 36.269 258.087 36.7082C259.18 37.1474 260.37 37.367 261.656 37.367ZM298.875 41.0281V38.501C297.804 39.4657 296.622 40.2541 295.328 40.8661C294.027 41.4853 292.551 41.7949 290.9 41.7949C289.517 41.7949 288.25 41.5825 287.097 41.1577C285.945 40.7401 284.952 40.1641 284.119 39.4297C283.286 38.7026 282.636 37.8566 282.167 36.8918C281.706 35.9198 281.476 34.8903 281.476 33.8031C281.476 32.6439 281.654 31.6143 282.011 30.7144C282.361 29.8216 282.833 29.044 283.428 28.3816C284.015 27.7265 284.703 27.1757 285.491 26.7293C286.287 26.2757 287.116 25.9121 287.978 25.6385C288.833 25.3721 289.711 25.1813 290.61 25.0661C291.51 24.9509 292.369 24.8933 293.187 24.8933C294.496 24.8933 295.592 24.9329 296.477 25.0121C297.369 25.0913 298.18 25.1993 298.909 25.3361L298.931 23.1006C298.931 22.1358 298.786 21.297 298.496 20.5842C298.206 19.8715 297.797 19.2811 297.269 18.8131C296.741 18.3451 296.113 17.9995 295.384 17.7763C294.648 17.5459 293.826 17.4307 292.919 17.4307C292.064 17.4307 291.246 17.4883 290.465 17.6035C289.685 17.7187 288.952 17.8663 288.268 18.0463C287.592 18.2335 286.967 18.4459 286.395 18.6835C285.822 18.9211 285.335 19.1695 284.933 19.4287L283.272 16.0376C283.948 15.6128 284.684 15.2204 285.48 14.8604C286.283 14.5004 287.123 14.1908 288.001 13.9316C288.878 13.6796 289.778 13.478 290.7 13.3268C291.614 13.1828 292.518 13.1108 293.41 13.1108C295.038 13.1108 296.507 13.298 297.816 13.6724C299.124 14.054 300.232 14.6372 301.139 15.422C302.046 16.214 302.745 17.2219 303.236 18.4459C303.727 19.6699 303.972 21.1314 303.972 22.8306L303.939 36.4922H307.073V41.0281H298.875ZM292.016 37.6802C292.685 37.6802 293.358 37.601 294.035 37.4426C294.704 37.2842 295.339 37.0682 295.942 36.7946C296.537 36.521 297.091 36.2042 297.604 35.8442C298.109 35.4842 298.533 35.1135 298.875 34.7319L298.909 28.5544H293.02C292.046 28.5544 291.153 28.6624 290.343 28.8784C289.532 29.0872 288.833 29.3932 288.246 29.7964C287.659 30.1996 287.201 30.7 286.874 31.2976C286.547 31.8951 286.383 32.5827 286.383 33.3603C286.383 34.0803 286.517 34.7067 286.785 35.2394C287.06 35.7794 287.447 36.2294 287.945 36.5894C288.443 36.9494 289.038 37.2194 289.729 37.3994C290.421 37.5866 291.183 37.6802 292.016 37.6802ZM312.571 4.53588V0H321.717V36.4922H325.967V41.0281H312.571V36.4922H316.654V4.53588H312.571Z" fill="#F5F5F5"/>
</g>
<defs>
<clipPath id="clip0_344_6545">
<rect width="326" height="41.7949" fill="white"/>
</clipPath>
</defs>
</svg>
