<svg width="181" height="28" viewBox="0 0 181 28" fill="none" xmlns="http://www.w3.org/2000/svg">
<path fill-rule="evenodd" clip-rule="evenodd" d="M18.6608 3.78245C18.7837 3.81474 18.8987 3.87014 18.9994 3.94548C19.1001 4.02083 19.1845 4.11464 19.2477 4.22156C19.3109 4.32847 19.3518 4.4464 19.3679 4.56859C19.384 4.69078 19.375 4.81485 19.3415 4.9337L13.529 25.5587C13.4616 25.7987 13.2983 26.003 13.0752 26.1265C12.8521 26.25 12.5874 26.2828 12.3394 26.2174C12.0914 26.1521 11.8803 25.9942 11.7527 25.7782C11.625 25.5623 11.5912 25.3062 11.6587 25.0662L17.4712 4.4412C17.5046 4.32232 17.5618 4.21098 17.6397 4.11352C17.7175 4.01607 17.8145 3.93442 17.925 3.87324C18.0354 3.81207 18.1573 3.77256 18.2836 3.75698C18.4098 3.7414 18.538 3.75005 18.6608 3.78245ZM21.5968 7.77495C21.7784 7.59938 22.0247 7.50077 22.2814 7.50077C22.5381 7.50077 22.7843 7.59938 22.966 7.77495L29.7472 14.3374C29.9286 14.5132 30.0305 14.7515 30.0305 14.9999C30.0305 15.2484 29.9286 15.4867 29.7472 15.6624L22.966 22.2249C22.8773 22.3171 22.7703 22.3909 22.6515 22.4422C22.5327 22.4934 22.4044 22.521 22.2743 22.5232C22.1442 22.5254 22.015 22.5023 21.8944 22.4551C21.7738 22.4079 21.6642 22.3378 21.5722 22.2487C21.4802 22.1597 21.4077 22.0537 21.359 21.9369C21.3102 21.8202 21.2863 21.6952 21.2886 21.5693C21.2909 21.4434 21.3194 21.3193 21.3723 21.2043C21.4253 21.0893 21.5016 20.9858 21.5968 20.8999L27.6935 14.9999L21.5968 9.09995C21.4154 8.92416 21.3135 8.68588 21.3135 8.43745C21.3135 8.18901 21.4154 7.95073 21.5968 7.77495ZM9.40346 7.77495C9.58487 7.95073 9.68677 8.18901 9.68677 8.43745C9.68677 8.68588 9.58487 8.92416 9.40346 9.09995L3.30679 14.9999L9.40346 20.8999C9.57458 21.0777 9.66774 21.3127 9.66331 21.5556C9.65888 21.7985 9.55721 22.0302 9.37972 22.202C9.20223 22.3737 8.96277 22.4721 8.7118 22.4764C8.46083 22.4807 8.21793 22.3905 8.03429 22.2249L1.25304 15.6624C1.07163 15.4867 0.969727 15.2484 0.969727 14.9999C0.969727 14.7515 1.07163 14.5132 1.25304 14.3374L8.03429 7.77495C8.21593 7.59938 8.46215 7.50077 8.71887 7.50077C8.97559 7.50077 9.22182 7.59938 9.40346 7.77495Z" fill="#6C63FF"/>
<g clip-path="url(#clip0_344_6758)">
<path d="M48.0132 7.34496V5.5H51.7332V12.0013C52.2232 11.6352 52.7555 11.3453 53.3301 11.1315C53.9047 10.9177 54.499 10.8109 55.113 10.8109C55.8661 10.8109 56.5571 10.9456 57.1862 11.215C57.8123 11.4873 58.3521 11.871 58.8058 12.3659C59.2594 12.8579 59.6118 13.4494 59.8628 14.1406C60.1138 14.8288 60.2393 15.5916 60.2393 16.4292C60.2393 17.3224 60.1002 18.1321 59.822 18.8584C59.5407 19.5847 59.1506 20.2084 58.6515 20.7297C58.1525 21.251 57.5597 21.6537 56.8732 21.9377C56.1866 22.2189 55.4336 22.3594 54.6139 22.3594C54.0454 22.3594 53.5116 22.2789 53.0125 22.1178C52.5165 21.9568 52.0901 21.7474 51.7332 21.4897V22.1881H49.6736V7.34496H48.0132ZM54.5686 12.568C54.0302 12.568 53.5146 12.6748 53.0216 12.8886C52.5256 13.1053 52.0961 13.3953 51.7332 13.7584V19.7326C51.9721 19.9668 52.3199 20.1762 52.7766 20.3607C53.2333 20.5423 53.8095 20.6331 54.5051 20.6331C54.9769 20.6331 55.4305 20.5467 55.8661 20.3739C56.3016 20.204 56.6857 19.9449 57.0184 19.5964C57.351 19.2508 57.6172 18.8203 57.8168 18.3049C58.0164 17.7895 58.1162 17.1891 58.1162 16.5039C58.1162 15.8742 58.0209 15.3164 57.8304 14.8302C57.6429 14.3441 57.3888 13.9326 57.0683 13.5959C56.7477 13.262 56.3726 13.0072 55.9432 12.8315C55.5167 12.6558 55.0585 12.568 54.5686 12.568ZM72.5789 16.8904H64.3178C64.3178 17.2038 64.3419 17.4908 64.3903 17.7514C64.4357 18.015 64.5038 18.2639 64.5945 18.4982C64.8667 19.2127 65.3037 19.7516 65.9056 20.1147C66.5074 20.4749 67.1879 20.655 67.947 20.655C68.5459 20.655 69.1281 20.5745 69.6936 20.4134C70.2592 20.2524 70.852 20.0005 71.472 19.6579L72.3022 21.0196C71.5491 21.5204 70.7915 21.8923 70.0293 22.1354C69.2702 22.3785 68.4809 22.5 67.6612 22.5C66.887 22.5 66.1687 22.3741 65.5063 22.1222C64.847 21.8733 64.2784 21.5014 63.8006 21.0065C63.3257 20.5145 62.9537 19.9009 62.6846 19.1659C62.4124 18.4279 62.2763 17.5699 62.2763 16.5917C62.2763 15.7981 62.3912 15.0484 62.6211 14.3426C62.8509 13.6398 63.1927 13.0248 63.6463 12.4977C64.1 11.9735 64.6625 11.5576 65.334 11.2501C66.0054 10.9426 66.7887 10.7889 67.6839 10.7889C68.5459 10.7889 69.2672 10.9148 69.8479 11.1667C70.4286 11.4214 70.9019 11.7582 71.2678 12.177C71.6308 12.5958 71.9075 13.0731 72.098 13.609C72.2856 14.145 72.4156 14.6911 72.4882 15.2475C72.5275 15.5199 72.5517 15.7952 72.5608 16.0734C72.5729 16.3545 72.5789 16.6269 72.5789 16.8904ZM67.5387 12.4625C67.0579 12.4625 66.639 12.5284 66.2821 12.6602C65.9252 12.792 65.6213 12.9809 65.3702 13.2269C65.1192 13.4729 64.9181 13.776 64.7669 14.1362C64.6126 14.4935 64.4992 14.8932 64.4266 15.3354H70.3741C70.3439 14.9196 70.2758 14.5374 70.17 14.1889C70.0641 13.8375 69.8993 13.5329 69.6755 13.2752C69.4547 13.0175 69.1704 12.8169 68.8226 12.6734C68.4778 12.5328 68.0499 12.4625 67.5387 12.4625ZM82.1239 22.1881V21.1602C81.6884 21.5526 81.2076 21.8733 80.6813 22.1222C80.152 22.3741 79.5517 22.5 78.8803 22.5C78.3177 22.5 77.8021 22.4136 77.3333 22.2408C76.8645 22.071 76.4607 21.8367 76.122 21.538C75.7833 21.2422 75.5186 20.8981 75.3281 20.5057C75.1406 20.1103 75.0468 19.6916 75.0468 19.2494C75.0468 18.7779 75.1194 18.3591 75.2646 17.993C75.4067 17.6299 75.5988 17.3136 75.8407 17.0442C76.0797 16.7777 76.3594 16.5537 76.68 16.3721C77.0006 16.1876 77.3363 16.0397 77.6871 15.9284C78.038 15.8201 78.3964 15.7425 78.7623 15.6956C79.1283 15.6488 79.4776 15.6253 79.8103 15.6253C80.3426 15.6253 80.7887 15.6414 81.1486 15.6736C81.5115 15.7059 81.8412 15.7498 82.1376 15.8054L82.1466 14.8961C82.1466 14.5037 82.0877 14.1625 81.9697 13.8726C81.8517 13.5827 81.6854 13.3425 81.4707 13.1522C81.2559 12.9618 80.9989 12.8213 80.6994 12.7305C80.4031 12.6368 80.0704 12.5899 79.7014 12.5899C79.3536 12.5899 79.0209 12.6134 78.7033 12.6602C78.3858 12.7071 78.0879 12.7671 77.8096 12.8403C77.5344 12.9165 77.2804 13.0028 77.0475 13.0995C76.8146 13.1961 76.6165 13.2972 76.4532 13.4026L75.7772 12.0233C76.0525 11.8505 76.3519 11.6909 76.6755 11.5444C76.9991 11.398 77.3408 11.2721 77.7008 11.1667C78.0576 11.0642 78.4236 10.9822 78.7986 10.9207C79.1706 10.8621 79.5366 10.8328 79.8965 10.8328C80.5618 10.8328 81.1607 10.909 81.693 11.0612C82.2253 11.2165 82.6759 11.4537 83.0449 11.7729C83.4139 12.095 83.6981 12.505 83.8978 13.0028C84.0974 13.5007 84.1972 14.0952 84.1972 14.7863L84.1836 20.3432H85.4584V22.1881H82.1239ZM79.3339 20.8264C79.6061 20.8264 79.8798 20.7941 80.1551 20.7297C80.4272 20.6653 80.6858 20.5774 80.9308 20.4661C81.1728 20.3549 81.3966 20.226 81.6022 20.0796C81.8109 19.9332 81.9848 19.7823 82.1239 19.6271L82.1376 17.1145H79.7422C79.343 17.1145 78.9801 17.1584 78.6534 17.2463C78.3238 17.3312 78.0395 17.4556 77.8006 17.6196C77.5586 17.7836 77.3726 17.9872 77.2426 18.2302C77.1095 18.4733 77.0429 18.753 77.0429 19.0693C77.0429 19.3621 77.0974 19.6169 77.2063 19.8336C77.3182 20.0532 77.4754 20.2363 77.6781 20.3827C77.8807 20.5291 78.1227 20.6389 78.4039 20.7121C78.6852 20.7883 78.9952 20.8264 79.3339 20.8264ZM91.1064 7.49432V11.0788H93.7966V12.6953H91.0837L91.052 19.1088C91.052 19.5451 91.1034 19.8995 91.2062 20.1718C91.3091 20.4442 91.4754 20.6316 91.7053 20.7341C91.9321 20.8395 92.1907 20.8922 92.481 20.8922C92.7895 20.8922 93.0617 20.8644 93.2976 20.8088C93.5335 20.7561 93.7921 20.6653 94.0734 20.5364L94.5497 21.8762C94.1959 22.0549 93.8239 22.1969 93.4337 22.3023C93.0405 22.4048 92.5778 22.4561 92.0455 22.4561C91.5435 22.4561 91.1064 22.3975 90.7344 22.2804C90.3624 22.1603 90.0494 21.9612 89.7953 21.6829C89.5383 21.4047 89.3477 21.0314 89.2237 20.5628C89.0967 20.0942 89.0332 19.51 89.0332 18.8101L89.0695 12.6953H87.2412V11.0788H89.0922V8.4168L91.1064 7.49432ZM104.471 11.0129V13.4245H102.371V12.7393C102.126 12.7393 101.876 12.7847 101.622 12.8755C101.368 12.9633 101.129 13.098 100.906 13.2796C100.685 13.4641 100.491 13.6969 100.325 13.978C100.158 14.2621 100.039 14.596 99.9664 14.9796V20.3432H101.913V22.1881H96.2237V20.3432H97.807L97.8161 12.9238H96.2237V11.0788H99.8893V12.6119C100.022 12.3835 100.172 12.1711 100.338 11.9749C100.505 11.7758 100.689 11.603 100.892 11.4566C101.095 11.3102 101.32 11.196 101.568 11.114C101.813 11.032 102.08 10.991 102.371 10.991C102.755 10.991 103.116 10.991 103.455 10.991C103.794 10.991 104.133 10.9983 104.471 11.0129ZM106.767 12.9238V11.0788H110.509V20.3432H112.238V22.1881H106.785V20.3432H108.427V12.9238H106.767ZM108.037 7.14289C108.037 6.95547 108.076 6.7783 108.155 6.61137C108.234 6.44152 108.336 6.29509 108.463 6.17209C108.594 6.04617 108.748 5.94513 108.926 5.86899C109.102 5.79578 109.289 5.75917 109.489 5.75917C109.682 5.75917 109.865 5.79578 110.038 5.86899C110.21 5.94513 110.361 6.04617 110.491 6.17209C110.621 6.29509 110.724 6.44152 110.8 6.61137C110.878 6.7783 110.918 6.95547 110.918 7.14289C110.918 7.33618 110.878 7.51774 110.8 7.6876C110.724 7.86038 110.621 8.01266 110.491 8.14445C110.361 8.27623 110.21 8.38019 110.038 8.45633C109.865 8.52954 109.682 8.56615 109.489 8.56615C109.289 8.56615 109.102 8.52954 108.926 8.45633C108.748 8.38019 108.594 8.27623 108.463 8.14445C108.336 8.01266 108.234 7.86038 108.155 7.6876C108.076 7.51774 108.037 7.33618 108.037 7.14289ZM113.862 22.1881V20.9537L119.678 12.7393H116.012V14.3075H113.975V11.0788H122.182V12.3439L116.375 20.5145H120.299V18.6256H122.436V22.1881H113.862ZM128.438 12.9238V11.0788H132.403V12.9238H131.328L134.163 20.5804L136.931 12.9238H136.232V11.0788H139.866V12.9238H138.881L135.125 22.3594H133.088L129.345 12.9238H128.438ZM141.417 12.9238V11.0788H145.16V20.3432H146.889V22.1881H141.44V20.3432H143.078V12.9238H141.417ZM142.688 7.14289C142.688 6.95547 142.727 6.7783 142.806 6.61137C142.884 6.44152 142.987 6.29509 143.114 6.17209C143.244 6.04617 143.398 5.94513 143.577 5.86899C143.752 5.79578 143.94 5.75917 144.139 5.75917C144.333 5.75917 144.516 5.79578 144.688 5.86899C144.864 5.94513 145.015 6.04617 145.142 6.17209C145.272 6.29509 145.376 6.44152 145.455 6.61137C145.531 6.7783 145.568 6.95547 145.568 7.14289C145.568 7.33618 145.531 7.51774 145.455 7.6876C145.376 7.86038 145.272 8.01266 145.142 8.14445C145.015 8.27623 144.864 8.38019 144.688 8.45633C144.516 8.52954 144.333 8.56615 144.139 8.56615C143.94 8.56615 143.752 8.52954 143.577 8.45633C143.398 8.38019 143.244 8.27623 143.114 8.14445C142.987 8.01266 142.884 7.86038 142.806 7.6876C142.727 7.51774 142.688 7.33618 142.688 7.14289ZM155.549 7.34496V5.5H159.169V20.3432H160.852V22.1881H157.11V21.2744C156.741 21.6405 156.313 21.926 155.826 22.131C155.339 22.3331 154.785 22.4341 154.165 22.4341C153.388 22.4341 152.665 22.3038 151.997 22.0431C151.328 21.7825 150.749 21.4003 150.259 20.8966C149.769 20.3929 149.385 19.7736 149.107 19.0385C148.829 18.3064 148.69 17.4688 148.69 16.5258C148.69 15.6678 148.823 14.8859 149.089 14.1801C149.355 13.4773 149.731 12.8769 150.218 12.3791C150.708 11.8842 151.297 11.4991 151.983 11.2238C152.67 10.9485 153.433 10.8109 154.274 10.8109C154.828 10.8109 155.333 10.8694 155.789 10.9866C156.249 11.1037 156.689 11.3087 157.11 11.6016V7.34496H155.549ZM154.428 20.699C155.042 20.699 155.555 20.6111 155.966 20.4354C156.381 20.2597 156.762 19.9961 157.11 19.6447V13.4245C156.741 13.1258 156.316 12.9077 155.835 12.77C155.357 12.6353 154.865 12.568 154.36 12.568C153.873 12.568 153.417 12.6558 152.99 12.8315C152.561 13.0072 152.186 13.262 151.865 13.5959C151.545 13.9326 151.292 14.3441 151.108 14.8302C150.923 15.3164 150.831 15.8742 150.831 16.5039C150.831 17.1891 150.919 17.7939 151.094 18.3181C151.272 18.8394 151.52 19.2772 151.838 19.6315C152.156 19.9859 152.535 20.2524 152.977 20.431C153.421 20.6096 153.905 20.699 154.428 20.699ZM169.567 22.1881V21.1602C169.132 21.5526 168.651 21.8733 168.124 22.1222C167.595 22.3741 166.995 22.5 166.323 22.5C165.761 22.5 165.245 22.4136 164.776 22.2408C164.308 22.071 163.904 21.8367 163.565 21.538C163.226 21.2422 162.962 20.8981 162.771 20.5057C162.584 20.1103 162.49 19.6916 162.49 19.2494C162.49 18.7779 162.563 18.3591 162.708 17.993C162.85 17.6299 163.042 17.3136 163.284 17.0442C163.523 16.7777 163.803 16.5537 164.123 16.3721C164.447 16.1876 164.784 16.0397 165.135 15.9284C165.483 15.8201 165.839 15.7425 166.205 15.6956C166.571 15.6488 166.921 15.6253 167.253 15.6253C167.786 15.6253 168.232 15.6414 168.592 15.6736C168.955 15.7059 169.284 15.7498 169.581 15.8054L169.59 14.8961C169.59 14.5037 169.531 14.1625 169.413 13.8726C169.295 13.5827 169.129 13.3425 168.914 13.1522C168.699 12.9618 168.444 12.8213 168.147 12.7305C167.848 12.6368 167.513 12.5899 167.145 12.5899C166.797 12.5899 166.464 12.6134 166.146 12.6602C165.829 12.7071 165.531 12.7671 165.253 12.8403C164.978 12.9165 164.723 13.0028 164.491 13.0995C164.258 13.1961 164.06 13.2972 163.896 13.4026L163.22 12.0233C163.496 11.8505 163.795 11.6909 164.119 11.5444C164.445 11.398 164.787 11.2721 165.144 11.1667C165.501 11.0642 165.867 10.9822 166.242 10.9207C166.614 10.8621 166.981 10.8328 167.344 10.8328C168.006 10.8328 168.604 10.909 169.136 11.0612C169.668 11.2165 170.119 11.4537 170.488 11.7729C170.857 12.095 171.141 12.505 171.341 13.0028C171.54 13.5007 171.64 14.0952 171.64 14.7863L171.627 20.3432H172.901V22.1881H169.567ZM166.777 20.8264C167.049 20.8264 167.323 20.7941 167.598 20.7297C167.87 20.6653 168.129 20.5774 168.374 20.4661C168.616 20.3549 168.841 20.226 169.05 20.0796C169.256 19.9332 169.428 19.7823 169.567 19.6271L169.581 17.1145H167.185C166.789 17.1145 166.426 17.1584 166.097 17.2463C165.767 17.3312 165.483 17.4556 165.244 17.6196C165.005 17.7836 164.819 17.9872 164.686 18.2302C164.553 18.4733 164.486 18.753 164.486 19.0693C164.486 19.3621 164.54 19.6169 164.649 19.8336C164.761 20.0532 164.919 20.2363 165.121 20.3827C165.324 20.5291 165.566 20.6389 165.847 20.7121C166.128 20.7883 166.438 20.8264 166.777 20.8264ZM175.138 7.34496V5.5H178.858V20.3432H180.586V22.1881H175.138V20.3432H176.798V7.34496H175.138Z" fill="#F5F5F5"/>
</g>
<defs>
<clipPath id="clip0_344_6758">
<rect width="132.6" height="17" fill="white" transform="translate(48 5.5)"/>
</clipPath>
</defs>
</svg>
